<?xml version="1.0" encoding="us-ascii" standalone="no"?><svg xmlns="http://www.w3.org/2000/svg" xmlns:xlink="http://www.w3.org/1999/xlink" contentStyleType="text/css" height="576px" preserveAspectRatio="none" style="width:1734px;height:576px;background:#FFFFFF;" version="1.1" viewBox="0 0 1734 576" width="1734px" zoomAndPan="magnify"><defs/><g><line style="stroke:#181818;stroke-width:1.5;" x1="72.5" x2="72.5" y1="69.5" y2="89.5"/><rect fill="#F1F1F1" height="39.5" style="stroke:#181818;stroke-width:1.5;" width="125" x="10" y="89.5"/><path d="M30.989,109.712 C30.962,109.31 30.9205,108.921 30.8655,108.5495 C30.799,108.1045 30.716,107.6855 30.623,107.293 C30.5375,106.9315 30.445,106.5945 30.349,106.2845 C30.205,105.819 30.057,105.4155 29.923,105.0845 C29.6595,104.435 29.4515,104.063 29.4515,104.063 L27.645,104.296 C27.8535,104.731 27.8535,104.731 28.079,105.5835 C28.1705,105.9295 28.2645,106.3455 28.349,106.831 C28.392,107.076 28.432,107.337 28.468,107.6175 C28.518,108.008 28.5595,108.4335 28.589,108.892 C28.606,109.151 28.618,109.421 28.626,109.7015 C28.629,109.8035 28.6335,109.902 28.635,110.007 C28.64,110.335 28.617,110.6685 28.576,111.0015 C28.539,111.3015 28.485,111.6 28.4205,111.896 C28.328,112.32 28.214,112.7365 28.0855,113.1335 C27.9815,113.455 27.87,113.764 27.758,114.0535 C27.586,114.499 27.413,114.8995 27.2635,115.233 C27.0125,115.7925 26.828,116.1645 26.828,116.242 C26.828,116.487 27.003,116.946 28.2265,117.252 C30.14,117.73 30.3245,116.9415 30.3245,116.9415 C30.3245,116.9415 30.446,116.5725 30.5875,115.8455 C30.6575,115.4865 30.732,115.043 30.7995,114.5065 C30.84,114.1855 30.8775,113.8325 30.9105,113.4485 C30.9445,113.0485 30.973,112.615 30.993,112.146 C31.008,111.791 31.0165,111.411 31.0205,111.0165 C31.0215,110.8935 31.0245,110.7745 31.0245,110.648 C31.0245,110.328 31.0095,110.0175 30.989,109.712 " fill="#C1694F" style="stroke:;stroke-width:0.0;stroke-dasharray:;"/><path d="M29.153,114.534 C28.4515,114.412 28.004,114.2075 27.7585,114.0545 C27.5865,114.5 27.4135,114.9005 27.264,115.234 C27.722,115.4835 28.3035,115.6815 28.9345,115.791 C29.299,115.8545 29.6605,115.8865 30,115.8865 C30.207,115.8865 30.4015,115.87 30.588,115.8465 C30.658,115.4875 30.7325,115.044 30.8,114.5075 C30.578,114.586 30.026,114.686 29.153,114.534 M29.683,112.1975 C29.1365,112.1435 28.716,112.0235 28.4205,111.8965 C28.328,112.3205 28.214,112.737 28.0855,113.134 C28.5175,113.297 29.026,113.4145 29.558,113.467 C29.7725,113.488 29.9855,113.499 30.193,113.499 C30.444,113.499 30.682,113.4795 30.9105,113.4495 C30.9445,113.0495 30.973,112.616 30.993,112.147 C30.679,112.2145 30.2385,112.252 29.683,112.1975 M29.8375,111.131 C30.2485,111.131 30.6525,111.0895 31.0205,111.017 C31.0215,110.894 31.0245,110.775 31.0245,110.6485 C31.0245,110.328 31.01,110.0175 30.989,109.712 C30.7245,109.781 30.3465,109.848 29.813,109.855 C29.271,109.8525 28.8895,109.7775 28.626,109.702 C28.629,109.804 28.6335,109.9025 28.635,110.0075 C28.64,110.3355 28.617,110.669 28.576,111.002 C28.9575,111.0825 29.3785,111.1285 29.8065,111.1305 L29.8375,111.131 M29.713,108.8425 C30.1255,108.783 30.508,108.676 30.865,108.55 C30.7985,108.105 30.7155,107.686 30.6225,107.2935 C30.3745,107.3955 30.023,107.509 29.532,107.5795 C29.077,107.6455 28.7295,107.6415 28.4675,107.618 C28.5175,108.0085 28.559,108.434 28.5885,108.8925 C28.6645,108.8955 28.7335,108.907 28.8115,108.907 C29.1055,108.9075 29.4115,108.8855 29.713,108.8425 M30.3485,106.2845 C30.2045,105.819 30.0565,105.4155 29.9225,105.0845 C29.701,105.1955 29.4205,105.3125 29.054,105.414 C28.6565,105.5245 28.3355,105.5685 28.0785,105.5835 C28.17,105.9295 28.264,106.3455 28.3485,106.831 C28.689,106.797 29.04,106.7415 29.3955,106.643 C29.735,106.549 30.0505,106.423 30.3485,106.2845 " fill="#D99E82" style="stroke:;stroke-width:0.0;stroke-dasharray:;"/><path d="M36.305,101.6525 C36.283,101.622 34.065,98.6555 31.188,99.9575 C29.8975,100.541 29.0645,101.4945 28.7625,102.725 C28.2,101.941 27.345,101.4425 26.216,101.241 C23.1165,100.688 21.2535,104.125 21.235,104.16 C21.208,104.211 21.2195,104.2745 21.263,104.3125 C21.3065,104.3505 21.3715,104.353 21.4185,104.32 C21.4325,104.31 22.8415,103.3235 25.19,103.7415 C27.5905,104.1685 29.2735,104.5885 29.2905,104.5925 C29.3005,104.595 29.311,104.596 29.321,104.596 C29.3555,104.596 29.389,104.582 29.413,104.556 C29.429,104.5385 31.023,102.826 32.4895,102.1625 C34.659,101.182 36.1385,101.833 36.1525,101.8395 C36.2045,101.8625 36.266,101.8485 36.3015,101.8045 C36.3375,101.761 36.339,101.698 36.305,101.6525 " fill="#3E721D" style="stroke:;stroke-width:0.0;stroke-dasharray:;"/><path d="M33.942,103.315 C31.7395,102.151 30.0175,102.7185 28.9445,103.425 C27.657,103.1815 25.2775,103.1955 23.2625,105.7785 C20.771,108.972 22.9535,112.9495 22.976,112.9895 C23.0095,113.049 23.0725,113.085 23.1395,113.085 C23.147,113.085 23.155,113.0845 23.1625,113.0835 C23.238,113.074 23.3005,113.02 23.3205,112.9465 C23.328,112.9195 24.084,110.1865 25.9955,107.8875 C27.0325,106.6395 28.2705,105.4845 29.1495,104.7175 C30.0305,104.8665 31.313,105.191 32.5725,105.8945 C35.0515,107.281 36.1895,109.6275 36.201,109.651 C36.235,109.723 36.3065,109.764 36.3905,109.757 C36.4695,109.748 36.535,109.6905 36.553,109.6135 C36.563,109.5695 37.537,105.2135 33.942,103.315 " fill="#5C913B" style="stroke:;stroke-width:0.0;stroke-dasharray:;"/><text fill="#000000" font-family="sans-serif" font-size="12" lengthAdjust="spacing" textLength="84" x="41" y="116.0703">includes.chroot</text><line style="stroke:#181818;stroke-width:1.5;" x1="208" x2="208" y1="69.5" y2="89.5"/><rect fill="#F1F1F1" height="39.5" style="stroke:#181818;stroke-width:1.5;" width="106" x="155" y="89.5"/><path d="M175.989,109.712 C175.962,109.31 175.9205,108.921 175.8655,108.5495 C175.799,108.1045 175.716,107.6855 175.623,107.293 C175.5375,106.9315 175.445,106.5945 175.349,106.2845 C175.205,105.819 175.057,105.4155 174.923,105.0845 C174.6595,104.435 174.4515,104.063 174.4515,104.063 L172.645,104.296 C172.8535,104.731 172.8535,104.731 173.079,105.5835 C173.1705,105.9295 173.2645,106.3455 173.349,106.831 C173.392,107.076 173.432,107.337 173.468,107.6175 C173.518,108.008 173.5595,108.4335 173.589,108.892 C173.606,109.151 173.618,109.421 173.626,109.7015 C173.629,109.8035 173.6335,109.902 173.635,110.007 C173.64,110.335 173.617,110.6685 173.576,111.0015 C173.539,111.3015 173.485,111.6 173.4205,111.896 C173.328,112.32 173.214,112.7365 173.0855,113.1335 C172.9815,113.455 172.87,113.764 172.758,114.0535 C172.586,114.499 172.413,114.8995 172.2635,115.233 C172.0125,115.7925 171.828,116.1645 171.828,116.242 C171.828,116.487 172.003,116.946 173.2265,117.252 C175.14,117.73 175.3245,116.9415 175.3245,116.9415 C175.3245,116.9415 175.446,116.5725 175.5875,115.8455 C175.6575,115.4865 175.732,115.043 175.7995,114.5065 C175.84,114.1855 175.8775,113.8325 175.9105,113.4485 C175.9445,113.0485 175.973,112.615 175.993,112.146 C176.008,111.791 176.0165,111.411 176.0205,111.0165 C176.0215,110.8935 176.0245,110.7745 176.0245,110.648 C176.0245,110.328 176.0095,110.0175 175.989,109.712 " fill="#C1694F" style="stroke:;stroke-width:0.0;stroke-dasharray:;"/><path d="M174.153,114.534 C173.4515,114.412 173.004,114.2075 172.7585,114.0545 C172.5865,114.5 172.4135,114.9005 172.264,115.234 C172.722,115.4835 173.3035,115.6815 173.9345,115.791 C174.299,115.8545 174.6605,115.8865 175,115.8865 C175.207,115.8865 175.4015,115.87 175.588,115.8465 C175.658,115.4875 175.7325,115.044 175.8,114.5075 C175.578,114.586 175.026,114.686 174.153,114.534 M174.683,112.1975 C174.1365,112.1435 173.716,112.0235 173.4205,111.8965 C173.328,112.3205 173.214,112.737 173.0855,113.134 C173.5175,113.297 174.026,113.4145 174.558,113.467 C174.7725,113.488 174.9855,113.499 175.193,113.499 C175.444,113.499 175.682,113.4795 175.9105,113.4495 C175.9445,113.0495 175.973,112.616 175.993,112.147 C175.679,112.2145 175.2385,112.252 174.683,112.1975 M174.8375,111.131 C175.2485,111.131 175.6525,111.0895 176.0205,111.017 C176.0215,110.894 176.0245,110.775 176.0245,110.6485 C176.0245,110.328 176.01,110.0175 175.989,109.712 C175.7245,109.781 175.3465,109.848 174.813,109.855 C174.271,109.8525 173.8895,109.7775 173.626,109.702 C173.629,109.804 173.6335,109.9025 173.635,110.0075 C173.64,110.3355 173.617,110.669 173.576,111.002 C173.9575,111.0825 174.3785,111.1285 174.8065,111.1305 L174.8375,111.131 M174.713,108.8425 C175.1255,108.783 175.508,108.676 175.865,108.55 C175.7985,108.105 175.7155,107.686 175.6225,107.2935 C175.3745,107.3955 175.023,107.509 174.532,107.5795 C174.077,107.6455 173.7295,107.6415 173.4675,107.618 C173.5175,108.0085 173.559,108.434 173.5885,108.8925 C173.6645,108.8955 173.7335,108.907 173.8115,108.907 C174.1055,108.9075 174.4115,108.8855 174.713,108.8425 M175.3485,106.2845 C175.2045,105.819 175.0565,105.4155 174.9225,105.0845 C174.701,105.1955 174.4205,105.3125 174.054,105.414 C173.6565,105.5245 173.3355,105.5685 173.0785,105.5835 C173.17,105.9295 173.264,106.3455 173.3485,106.831 C173.689,106.797 174.04,106.7415 174.3955,106.643 C174.735,106.549 175.0505,106.423 175.3485,106.2845 " fill="#D99E82" style="stroke:;stroke-width:0.0;stroke-dasharray:;"/><path d="M181.305,101.6525 C181.283,101.622 179.065,98.6555 176.188,99.9575 C174.8975,100.541 174.0645,101.4945 173.7625,102.725 C173.2,101.941 172.345,101.4425 171.216,101.241 C168.1165,100.688 166.2535,104.125 166.235,104.16 C166.208,104.211 166.2195,104.2745 166.263,104.3125 C166.3065,104.3505 166.3715,104.353 166.4185,104.32 C166.4325,104.31 167.8415,103.3235 170.19,103.7415 C172.5905,104.1685 174.2735,104.5885 174.2905,104.5925 C174.3005,104.595 174.311,104.596 174.321,104.596 C174.3555,104.596 174.389,104.582 174.413,104.556 C174.429,104.5385 176.023,102.826 177.4895,102.1625 C179.659,101.182 181.1385,101.833 181.1525,101.8395 C181.2045,101.8625 181.266,101.8485 181.3015,101.8045 C181.3375,101.761 181.339,101.698 181.305,101.6525 " fill="#3E721D" style="stroke:;stroke-width:0.0;stroke-dasharray:;"/><path d="M178.942,103.315 C176.7395,102.151 175.0175,102.7185 173.9445,103.425 C172.657,103.1815 170.2775,103.1955 168.2625,105.7785 C165.771,108.972 167.9535,112.9495 167.976,112.9895 C168.0095,113.049 168.0725,113.085 168.1395,113.085 C168.147,113.085 168.155,113.0845 168.1625,113.0835 C168.238,113.074 168.3005,113.02 168.3205,112.9465 C168.328,112.9195 169.084,110.1865 170.9955,107.8875 C172.0325,106.6395 173.2705,105.4845 174.1495,104.7175 C175.0305,104.8665 176.313,105.191 177.5725,105.8945 C180.0515,107.281 181.1895,109.6275 181.201,109.651 C181.235,109.723 181.3065,109.764 181.3905,109.757 C181.4695,109.748 181.535,109.6905 181.553,109.6135 C181.563,109.5695 182.537,105.2135 178.942,103.315 " fill="#5C913B" style="stroke:;stroke-width:0.0;stroke-dasharray:;"/><text fill="#000000" font-family="sans-serif" font-size="12" lengthAdjust="spacing" textLength="65" x="186" y="116.0703">bootloaders</text><line style="stroke:#181818;stroke-width:1.5;" x1="208" x2="218" y1="163.75" y2="163.75"/><rect fill="#F1F1F1" height="39.5" style="stroke:#181818;stroke-width:1.5;" width="84" x="218" y="144"/><path d="M238.989,164.212 C238.962,163.81 238.9205,163.421 238.8655,163.0495 C238.799,162.6045 238.716,162.1855 238.623,161.793 C238.5375,161.4315 238.445,161.0945 238.349,160.7845 C238.205,160.319 238.057,159.9155 237.923,159.5845 C237.6595,158.935 237.4515,158.563 237.4515,158.563 L235.645,158.796 C235.8535,159.231 235.8535,159.231 236.079,160.0835 C236.1705,160.4295 236.2645,160.8455 236.349,161.331 C236.392,161.576 236.432,161.837 236.468,162.1175 C236.518,162.508 236.5595,162.9335 236.589,163.392 C236.606,163.651 236.618,163.921 236.626,164.2015 C236.629,164.3035 236.6335,164.402 236.635,164.507 C236.64,164.835 236.617,165.1685 236.576,165.5015 C236.539,165.8015 236.485,166.1 236.4205,166.396 C236.328,166.82 236.214,167.2365 236.0855,167.6335 C235.9815,167.955 235.87,168.264 235.758,168.5535 C235.586,168.999 235.413,169.3995 235.2635,169.733 C235.0125,170.2925 234.828,170.6645 234.828,170.742 C234.828,170.987 235.003,171.446 236.2265,171.752 C238.14,172.23 238.3245,171.4415 238.3245,171.4415 C238.3245,171.4415 238.446,171.0725 238.5875,170.3455 C238.6575,169.9865 238.732,169.543 238.7995,169.0065 C238.84,168.6855 238.8775,168.3325 238.9105,167.9485 C238.9445,167.5485 238.973,167.115 238.993,166.646 C239.008,166.291 239.0165,165.911 239.0205,165.5165 C239.0215,165.3935 239.0245,165.2745 239.0245,165.148 C239.0245,164.828 239.0095,164.5175 238.989,164.212 " fill="#C1694F" style="stroke:;stroke-width:0.0;stroke-dasharray:;"/><path d="M237.153,169.034 C236.4515,168.912 236.004,168.7075 235.7585,168.5545 C235.5865,169 235.4135,169.4005 235.264,169.734 C235.722,169.9835 236.3035,170.1815 236.9345,170.291 C237.299,170.3545 237.6605,170.3865 238,170.3865 C238.207,170.3865 238.4015,170.37 238.588,170.3465 C238.658,169.9875 238.7325,169.544 238.8,169.0075 C238.578,169.086 238.026,169.186 237.153,169.034 M237.683,166.6975 C237.1365,166.6435 236.716,166.5235 236.4205,166.3965 C236.328,166.8205 236.214,167.237 236.0855,167.634 C236.5175,167.797 237.026,167.9145 237.558,167.967 C237.7725,167.988 237.9855,167.999 238.193,167.999 C238.444,167.999 238.682,167.9795 238.9105,167.9495 C238.9445,167.5495 238.973,167.116 238.993,166.647 C238.679,166.7145 238.2385,166.752 237.683,166.6975 M237.8375,165.631 C238.2485,165.631 238.6525,165.5895 239.0205,165.517 C239.0215,165.394 239.0245,165.275 239.0245,165.1485 C239.0245,164.828 239.01,164.5175 238.989,164.212 C238.7245,164.281 238.3465,164.348 237.813,164.355 C237.271,164.3525 236.8895,164.2775 236.626,164.202 C236.629,164.304 236.6335,164.4025 236.635,164.5075 C236.64,164.8355 236.617,165.169 236.576,165.502 C236.9575,165.5825 237.3785,165.6285 237.8065,165.6305 L237.8375,165.631 M237.713,163.3425 C238.1255,163.283 238.508,163.176 238.865,163.05 C238.7985,162.605 238.7155,162.186 238.6225,161.7935 C238.3745,161.8955 238.023,162.009 237.532,162.0795 C237.077,162.1455 236.7295,162.1415 236.4675,162.118 C236.5175,162.5085 236.559,162.934 236.5885,163.3925 C236.6645,163.3955 236.7335,163.407 236.8115,163.407 C237.1055,163.4075 237.4115,163.3855 237.713,163.3425 M238.3485,160.7845 C238.2045,160.319 238.0565,159.9155 237.9225,159.5845 C237.701,159.6955 237.4205,159.8125 237.054,159.914 C236.6565,160.0245 236.3355,160.0685 236.0785,160.0835 C236.17,160.4295 236.264,160.8455 236.3485,161.331 C236.689,161.297 237.04,161.2415 237.3955,161.143 C237.735,161.049 238.0505,160.923 238.3485,160.7845 " fill="#D99E82" style="stroke:;stroke-width:0.0;stroke-dasharray:;"/><path d="M244.305,156.1525 C244.283,156.122 242.065,153.1555 239.188,154.4575 C237.8975,155.041 237.0645,155.9945 236.7625,157.225 C236.2,156.441 235.345,155.9425 234.216,155.741 C231.1165,155.188 229.2535,158.625 229.235,158.66 C229.208,158.711 229.2195,158.7745 229.263,158.8125 C229.3065,158.8505 229.3715,158.853 229.4185,158.82 C229.4325,158.81 230.8415,157.8235 233.19,158.2415 C235.5905,158.6685 237.2735,159.0885 237.2905,159.0925 C237.3005,159.095 237.311,159.096 237.321,159.096 C237.3555,159.096 237.389,159.082 237.413,159.056 C237.429,159.0385 239.023,157.326 240.4895,156.6625 C242.659,155.682 244.1385,156.333 244.1525,156.3395 C244.2045,156.3625 244.266,156.3485 244.3015,156.3045 C244.3375,156.261 244.339,156.198 244.305,156.1525 " fill="#3E721D" style="stroke:;stroke-width:0.0;stroke-dasharray:;"/><path d="M241.942,157.815 C239.7395,156.651 238.0175,157.2185 236.9445,157.925 C235.657,157.6815 233.2775,157.6955 231.2625,160.2785 C228.771,163.472 230.9535,167.4495 230.976,167.4895 C231.0095,167.549 231.0725,167.585 231.1395,167.585 C231.147,167.585 231.155,167.5845 231.1625,167.5835 C231.238,167.574 231.3005,167.52 231.3205,167.4465 C231.328,167.4195 232.084,164.6865 233.9955,162.3875 C235.0325,161.1395 236.2705,159.9845 237.1495,159.2175 C238.0305,159.3665 239.313,159.691 240.5725,160.3945 C243.0515,161.781 244.1895,164.1275 244.201,164.151 C244.235,164.223 244.3065,164.264 244.3905,164.257 C244.4695,164.248 244.535,164.1905 244.553,164.1135 C244.563,164.0695 245.537,159.7135 241.942,157.815 " fill="#5C913B" style="stroke:;stroke-width:0.0;stroke-dasharray:;"/><text fill="#000000" font-family="sans-serif" font-size="12" lengthAdjust="spacing" textLength="43" x="249" y="170.5703">isolinux</text><line style="stroke:#181818;stroke-width:1.5;" x1="260" x2="270" y1="218.25" y2="218.25"/><rect fill="#F1F1F1" height="39.5" style="stroke:#181818;stroke-width:1.5;" width="104" x="270" y="198.5"/><path d="M296.2755,217.926 C295.229,217.002 292.9325,216.294 291.1865,216.006 C292.9325,215.7175 295.229,215.0095 296.2755,214.0865 C297.2825,213.1985 297.757,212.6125 297.346,211.7255 C297.063,211.116 295.919,211.059 295.263,210.48 C294.607,209.901 294.5415,208.8915 293.85,208.6425 C292.845,208.2795 292.182,208.6995 291.1765,209.587 C290.1295,210.5105 289.3275,212.5365 289,214.077 C288.6735,212.536 287.871,210.51 286.8245,209.5865 C285.817,208.6985 285.154,208.2795 284.1485,208.6425 C283.457,208.8925 283.3925,209.9015 282.737,210.48 C282.0815,211.0585 280.936,211.117 280.654,211.727 C280.2425,212.614 280.7185,213.1985 281.724,214.086 C282.771,215.0095 285.068,215.7175 286.8145,216.006 C285.068,216.2945 282.771,217.0025 281.724,217.926 C280.7175,218.8135 280.2425,219.3985 280.6545,220.2865 C280.937,220.896 282.0815,220.9535 282.7375,221.5315 C283.393,222.1105 283.4595,223.1205 284.151,223.3695 C285.1555,223.733 285.819,223.312 286.825,222.425 C287.6505,221.6965 288.3235,220.281 288.732,218.9585 C288.601,221.226 288.996,224.254 290.658,226.0895 C291.33,226.831 291.8615,226.365 292.069,226.183 C292.277,226.0005 292.8715,225.476 292.162,224.772 C290.207,222.8305 289.529,220.8135 289.348,219.202 C289.7615,220.451 290.4015,221.7405 291.1765,222.425 C292.1825,223.3125 292.846,223.7325 293.852,223.3695 C294.543,223.1195 294.608,222.1095 295.263,221.5315 C295.919,220.9525 297.064,220.895 297.346,220.2845 C297.757,219.3975 297.281,218.8125 296.2755,217.926 " fill="#77B255" style="stroke:;stroke-width:0.0;stroke-dasharray:;"/><text fill="#000000" font-family="sans-serif" font-size="12" lengthAdjust="spacing" textLength="63" x="301" y="225.0703">isolinux.cfg</text><line style="stroke:#181818;stroke-width:1.5;" x1="260" x2="260" y1="183.5" y2="218.25"/><line style="stroke:#181818;stroke-width:1.5;" x1="208" x2="218" y1="272.75" y2="272.75"/><rect fill="#F1F1F1" height="39.5" style="stroke:#181818;stroke-width:1.5;" width="80" x="218" y="253"/><path d="M238.989,273.212 C238.962,272.81 238.9205,272.421 238.8655,272.0495 C238.799,271.6045 238.716,271.1855 238.623,270.793 C238.5375,270.4315 238.445,270.0945 238.349,269.7845 C238.205,269.319 238.057,268.9155 237.923,268.5845 C237.6595,267.935 237.4515,267.563 237.4515,267.563 L235.645,267.796 C235.8535,268.231 235.8535,268.231 236.079,269.0835 C236.1705,269.4295 236.2645,269.8455 236.349,270.331 C236.392,270.576 236.432,270.837 236.468,271.1175 C236.518,271.508 236.5595,271.9335 236.589,272.392 C236.606,272.651 236.618,272.921 236.626,273.2015 C236.629,273.3035 236.6335,273.402 236.635,273.507 C236.64,273.835 236.617,274.1685 236.576,274.5015 C236.539,274.8015 236.485,275.1 236.4205,275.396 C236.328,275.82 236.214,276.2365 236.0855,276.6335 C235.9815,276.955 235.87,277.264 235.758,277.5535 C235.586,277.999 235.413,278.3995 235.2635,278.733 C235.0125,279.2925 234.828,279.6645 234.828,279.742 C234.828,279.987 235.003,280.446 236.2265,280.752 C238.14,281.23 238.3245,280.4415 238.3245,280.4415 C238.3245,280.4415 238.446,280.0725 238.5875,279.3455 C238.6575,278.9865 238.732,278.543 238.7995,278.0065 C238.84,277.6855 238.8775,277.3325 238.9105,276.9485 C238.9445,276.5485 238.973,276.115 238.993,275.646 C239.008,275.291 239.0165,274.911 239.0205,274.5165 C239.0215,274.3935 239.0245,274.2745 239.0245,274.148 C239.0245,273.828 239.0095,273.5175 238.989,273.212 " fill="#C1694F" style="stroke:;stroke-width:0.0;stroke-dasharray:;"/><path d="M237.153,278.034 C236.4515,277.912 236.004,277.7075 235.7585,277.5545 C235.5865,278 235.4135,278.4005 235.264,278.734 C235.722,278.9835 236.3035,279.1815 236.9345,279.291 C237.299,279.3545 237.6605,279.3865 238,279.3865 C238.207,279.3865 238.4015,279.37 238.588,279.3465 C238.658,278.9875 238.7325,278.544 238.8,278.0075 C238.578,278.086 238.026,278.186 237.153,278.034 M237.683,275.6975 C237.1365,275.6435 236.716,275.5235 236.4205,275.3965 C236.328,275.8205 236.214,276.237 236.0855,276.634 C236.5175,276.797 237.026,276.9145 237.558,276.967 C237.7725,276.988 237.9855,276.999 238.193,276.999 C238.444,276.999 238.682,276.9795 238.9105,276.9495 C238.9445,276.5495 238.973,276.116 238.993,275.647 C238.679,275.7145 238.2385,275.752 237.683,275.6975 M237.8375,274.631 C238.2485,274.631 238.6525,274.5895 239.0205,274.517 C239.0215,274.394 239.0245,274.275 239.0245,274.1485 C239.0245,273.828 239.01,273.5175 238.989,273.212 C238.7245,273.281 238.3465,273.348 237.813,273.355 C237.271,273.3525 236.8895,273.2775 236.626,273.202 C236.629,273.304 236.6335,273.4025 236.635,273.5075 C236.64,273.8355 236.617,274.169 236.576,274.502 C236.9575,274.5825 237.3785,274.6285 237.8065,274.6305 L237.8375,274.631 M237.713,272.3425 C238.1255,272.283 238.508,272.176 238.865,272.05 C238.7985,271.605 238.7155,271.186 238.6225,270.7935 C238.3745,270.8955 238.023,271.009 237.532,271.0795 C237.077,271.1455 236.7295,271.1415 236.4675,271.118 C236.5175,271.5085 236.559,271.934 236.5885,272.3925 C236.6645,272.3955 236.7335,272.407 236.8115,272.407 C237.1055,272.4075 237.4115,272.3855 237.713,272.3425 M238.3485,269.7845 C238.2045,269.319 238.0565,268.9155 237.9225,268.5845 C237.701,268.6955 237.4205,268.8125 237.054,268.914 C236.6565,269.0245 236.3355,269.0685 236.0785,269.0835 C236.17,269.4295 236.264,269.8455 236.3485,270.331 C236.689,270.297 237.04,270.2415 237.3955,270.143 C237.735,270.049 238.0505,269.923 238.3485,269.7845 " fill="#D99E82" style="stroke:;stroke-width:0.0;stroke-dasharray:;"/><path d="M244.305,265.1525 C244.283,265.122 242.065,262.1555 239.188,263.4575 C237.8975,264.041 237.0645,264.9945 236.7625,266.225 C236.2,265.441 235.345,264.9425 234.216,264.741 C231.1165,264.188 229.2535,267.625 229.235,267.66 C229.208,267.711 229.2195,267.7745 229.263,267.8125 C229.3065,267.8505 229.3715,267.853 229.4185,267.82 C229.4325,267.81 230.8415,266.8235 233.19,267.2415 C235.5905,267.6685 237.2735,268.0885 237.2905,268.0925 C237.3005,268.095 237.311,268.096 237.321,268.096 C237.3555,268.096 237.389,268.082 237.413,268.056 C237.429,268.0385 239.023,266.326 240.4895,265.6625 C242.659,264.682 244.1385,265.333 244.1525,265.3395 C244.2045,265.3625 244.266,265.3485 244.3015,265.3045 C244.3375,265.261 244.339,265.198 244.305,265.1525 " fill="#3E721D" style="stroke:;stroke-width:0.0;stroke-dasharray:;"/><path d="M241.942,266.815 C239.7395,265.651 238.0175,266.2185 236.9445,266.925 C235.657,266.6815 233.2775,266.6955 231.2625,269.2785 C228.771,272.472 230.9535,276.4495 230.976,276.4895 C231.0095,276.549 231.0725,276.585 231.1395,276.585 C231.147,276.585 231.155,276.5845 231.1625,276.5835 C231.238,276.574 231.3005,276.52 231.3205,276.4465 C231.328,276.4195 232.084,273.6865 233.9955,271.3875 C235.0325,270.1395 236.2705,268.9845 237.1495,268.2175 C238.0305,268.3665 239.313,268.691 240.5725,269.3945 C243.0515,270.781 244.1895,273.1275 244.201,273.151 C244.235,273.223 244.3065,273.264 244.3905,273.257 C244.4695,273.248 244.535,273.1905 244.553,273.1135 C244.563,273.0695 245.537,268.7135 241.942,266.815 " fill="#5C913B" style="stroke:;stroke-width:0.0;stroke-dasharray:;"/><text fill="#000000" font-family="sans-serif" font-size="12" lengthAdjust="spacing" textLength="39" x="249" y="279.5703">grub-pc</text><line style="stroke:#181818;stroke-width:1.5;" x1="258" x2="268" y1="327.25" y2="327.25"/><rect fill="#F1F1F1" height="39.5" style="stroke:#181818;stroke-width:1.5;" width="96" x="268" y="307.5"/><path d="M288.989,327.712 C288.962,327.31 288.9205,326.921 288.8655,326.5495 C288.799,326.1045 288.716,325.6855 288.623,325.293 C288.5375,324.9315 288.445,324.5945 288.349,324.2845 C288.205,323.819 288.057,323.4155 287.923,323.0845 C287.6595,322.435 287.4515,322.063 287.4515,322.063 L285.645,322.296 C285.8535,322.731 285.8535,322.731 286.079,323.5835 C286.1705,323.9295 286.2645,324.3455 286.349,324.831 C286.392,325.076 286.432,325.337 286.468,325.6175 C286.518,326.008 286.5595,326.4335 286.589,326.892 C286.606,327.151 286.618,327.421 286.626,327.7015 C286.629,327.8035 286.6335,327.902 286.635,328.007 C286.64,328.335 286.617,328.6685 286.576,329.0015 C286.539,329.3015 286.485,329.6 286.4205,329.896 C286.328,330.32 286.214,330.7365 286.0855,331.1335 C285.9815,331.455 285.87,331.764 285.758,332.0535 C285.586,332.499 285.413,332.8995 285.2635,333.233 C285.0125,333.7925 284.828,334.1645 284.828,334.242 C284.828,334.487 285.003,334.946 286.2265,335.252 C288.14,335.73 288.3245,334.9415 288.3245,334.9415 C288.3245,334.9415 288.446,334.5725 288.5875,333.8455 C288.6575,333.4865 288.732,333.043 288.7995,332.5065 C288.84,332.1855 288.8775,331.8325 288.9105,331.4485 C288.9445,331.0485 288.973,330.615 288.993,330.146 C289.008,329.791 289.0165,329.411 289.0205,329.0165 C289.0215,328.8935 289.0245,328.7745 289.0245,328.648 C289.0245,328.328 289.0095,328.0175 288.989,327.712 " fill="#C1694F" style="stroke:;stroke-width:0.0;stroke-dasharray:;"/><path d="M287.153,332.534 C286.4515,332.412 286.004,332.2075 285.7585,332.0545 C285.5865,332.5 285.4135,332.9005 285.264,333.234 C285.722,333.4835 286.3035,333.6815 286.9345,333.791 C287.299,333.8545 287.6605,333.8865 288,333.8865 C288.207,333.8865 288.4015,333.87 288.588,333.8465 C288.658,333.4875 288.7325,333.044 288.8,332.5075 C288.578,332.586 288.026,332.686 287.153,332.534 M287.683,330.1975 C287.1365,330.1435 286.716,330.0235 286.4205,329.8965 C286.328,330.3205 286.214,330.737 286.0855,331.134 C286.5175,331.297 287.026,331.4145 287.558,331.467 C287.7725,331.488 287.9855,331.499 288.193,331.499 C288.444,331.499 288.682,331.4795 288.9105,331.4495 C288.9445,331.0495 288.973,330.616 288.993,330.147 C288.679,330.2145 288.2385,330.252 287.683,330.1975 M287.8375,329.131 C288.2485,329.131 288.6525,329.0895 289.0205,329.017 C289.0215,328.894 289.0245,328.775 289.0245,328.6485 C289.0245,328.328 289.01,328.0175 288.989,327.712 C288.7245,327.781 288.3465,327.848 287.813,327.855 C287.271,327.8525 286.8895,327.7775 286.626,327.702 C286.629,327.804 286.6335,327.9025 286.635,328.0075 C286.64,328.3355 286.617,328.669 286.576,329.002 C286.9575,329.0825 287.3785,329.1285 287.8065,329.1305 L287.8375,329.131 M287.713,326.8425 C288.1255,326.783 288.508,326.676 288.865,326.55 C288.7985,326.105 288.7155,325.686 288.6225,325.2935 C288.3745,325.3955 288.023,325.509 287.532,325.5795 C287.077,325.6455 286.7295,325.6415 286.4675,325.618 C286.5175,326.0085 286.559,326.434 286.5885,326.8925 C286.6645,326.8955 286.7335,326.907 286.8115,326.907 C287.1055,326.9075 287.4115,326.8855 287.713,326.8425 M288.3485,324.2845 C288.2045,323.819 288.0565,323.4155 287.9225,323.0845 C287.701,323.1955 287.4205,323.3125 287.054,323.414 C286.6565,323.5245 286.3355,323.5685 286.0785,323.5835 C286.17,323.9295 286.264,324.3455 286.3485,324.831 C286.689,324.797 287.04,324.7415 287.3955,324.643 C287.735,324.549 288.0505,324.423 288.3485,324.2845 " fill="#D99E82" style="stroke:;stroke-width:0.0;stroke-dasharray:;"/><path d="M294.305,319.6525 C294.283,319.622 292.065,316.6555 289.188,317.9575 C287.8975,318.541 287.0645,319.4945 286.7625,320.725 C286.2,319.941 285.345,319.4425 284.216,319.241 C281.1165,318.688 279.2535,322.125 279.235,322.16 C279.208,322.211 279.2195,322.2745 279.263,322.3125 C279.3065,322.3505 279.3715,322.353 279.4185,322.32 C279.4325,322.31 280.8415,321.3235 283.19,321.7415 C285.5905,322.1685 287.2735,322.5885 287.2905,322.5925 C287.3005,322.595 287.311,322.596 287.321,322.596 C287.3555,322.596 287.389,322.582 287.413,322.556 C287.429,322.5385 289.023,320.826 290.4895,320.1625 C292.659,319.182 294.1385,319.833 294.1525,319.8395 C294.2045,319.8625 294.266,319.8485 294.3015,319.8045 C294.3375,319.761 294.339,319.698 294.305,319.6525 " fill="#3E721D" style="stroke:;stroke-width:0.0;stroke-dasharray:;"/><path d="M291.942,321.315 C289.7395,320.151 288.0175,320.7185 286.9445,321.425 C285.657,321.1815 283.2775,321.1955 281.2625,323.7785 C278.771,326.972 280.9535,330.9495 280.976,330.9895 C281.0095,331.049 281.0725,331.085 281.1395,331.085 C281.147,331.085 281.155,331.0845 281.1625,331.0835 C281.238,331.074 281.3005,331.02 281.3205,330.9465 C281.328,330.9195 282.084,328.1865 283.9955,325.8875 C285.0325,324.6395 286.2705,323.4845 287.1495,322.7175 C288.0305,322.8665 289.313,323.191 290.5725,323.8945 C293.0515,325.281 294.1895,327.6275 294.201,327.651 C294.235,327.723 294.3065,327.764 294.3905,327.757 C294.4695,327.748 294.535,327.6905 294.553,327.6135 C294.563,327.5695 295.537,323.2135 291.942,321.315 " fill="#5C913B" style="stroke:;stroke-width:0.0;stroke-dasharray:;"/><text fill="#000000" font-family="sans-serif" font-size="12" lengthAdjust="spacing" textLength="55" x="299" y="334.0703">live-theme</text><line style="stroke:#181818;stroke-width:1.5;" x1="258" x2="268" y1="381.75" y2="381.75"/><rect fill="#F1F1F1" height="39.5" style="stroke:#181818;stroke-width:1.5;" width="85" x="268" y="362"/><path d="M294.2755,381.426 C293.229,380.502 290.9325,379.794 289.1865,379.506 C290.9325,379.2175 293.229,378.5095 294.2755,377.5865 C295.2825,376.6985 295.757,376.1125 295.346,375.2255 C295.063,374.616 293.919,374.559 293.263,373.98 C292.607,373.401 292.5415,372.3915 291.85,372.1425 C290.845,371.7795 290.182,372.1995 289.1765,373.087 C288.1295,374.0105 287.3275,376.0365 287,377.577 C286.6735,376.036 285.871,374.01 284.8245,373.0865 C283.817,372.1985 283.154,371.7795 282.1485,372.1425 C281.457,372.3925 281.3925,373.4015 280.737,373.98 C280.0815,374.5585 278.936,374.617 278.654,375.227 C278.2425,376.114 278.7185,376.6985 279.724,377.586 C280.771,378.5095 283.068,379.2175 284.8145,379.506 C283.068,379.7945 280.771,380.5025 279.724,381.426 C278.7175,382.3135 278.2425,382.8985 278.6545,383.7865 C278.937,384.396 280.0815,384.4535 280.7375,385.0315 C281.393,385.6105 281.4595,386.6205 282.151,386.8695 C283.1555,387.233 283.819,386.812 284.825,385.925 C285.6505,385.1965 286.3235,383.781 286.732,382.4585 C286.601,384.726 286.996,387.754 288.658,389.5895 C289.33,390.331 289.8615,389.865 290.069,389.683 C290.277,389.5005 290.8715,388.976 290.162,388.272 C288.207,386.3305 287.529,384.3135 287.348,382.702 C287.7615,383.951 288.4015,385.2405 289.1765,385.925 C290.1825,386.8125 290.846,387.2325 291.852,386.8695 C292.543,386.6195 292.608,385.6095 293.263,385.0315 C293.919,384.4525 295.064,384.395 295.346,383.7845 C295.757,382.8975 295.281,382.3125 294.2755,381.426 " fill="#77B255" style="stroke:;stroke-width:0.0;stroke-dasharray:;"/><text fill="#000000" font-family="sans-serif" font-size="12" lengthAdjust="spacing" textLength="44" x="299" y="388.5703">grub.cfg</text><line style="stroke:#181818;stroke-width:1.5;" x1="258" x2="258" y1="292.5" y2="381.75"/><line style="stroke:#181818;stroke-width:1.5;" x1="208" x2="208" y1="129" y2="272.75"/><line style="stroke:#181818;stroke-width:1.5;" x1="440.5" x2="440.5" y1="69.5" y2="89.5"/><rect fill="#F1F1F1" height="39.5" style="stroke:#181818;stroke-width:1.5;" width="93" x="394" y="89.5"/><path d="M414.989,109.712 C414.962,109.31 414.9205,108.921 414.8655,108.5495 C414.799,108.1045 414.716,107.6855 414.623,107.293 C414.5375,106.9315 414.445,106.5945 414.349,106.2845 C414.205,105.819 414.057,105.4155 413.923,105.0845 C413.6595,104.435 413.4515,104.063 413.4515,104.063 L411.645,104.296 C411.8535,104.731 411.8535,104.731 412.079,105.5835 C412.1705,105.9295 412.2645,106.3455 412.349,106.831 C412.392,107.076 412.432,107.337 412.468,107.6175 C412.518,108.008 412.5595,108.4335 412.589,108.892 C412.606,109.151 412.618,109.421 412.626,109.7015 C412.629,109.8035 412.6335,109.902 412.635,110.007 C412.64,110.335 412.617,110.6685 412.576,111.0015 C412.539,111.3015 412.485,111.6 412.4205,111.896 C412.328,112.32 412.214,112.7365 412.0855,113.1335 C411.9815,113.455 411.87,113.764 411.758,114.0535 C411.586,114.499 411.413,114.8995 411.2635,115.233 C411.0125,115.7925 410.828,116.1645 410.828,116.242 C410.828,116.487 411.003,116.946 412.2265,117.252 C414.14,117.73 414.3245,116.9415 414.3245,116.9415 C414.3245,116.9415 414.446,116.5725 414.5875,115.8455 C414.6575,115.4865 414.732,115.043 414.7995,114.5065 C414.84,114.1855 414.8775,113.8325 414.9105,113.4485 C414.9445,113.0485 414.973,112.615 414.993,112.146 C415.008,111.791 415.0165,111.411 415.0205,111.0165 C415.0215,110.8935 415.0245,110.7745 415.0245,110.648 C415.0245,110.328 415.0095,110.0175 414.989,109.712 " fill="#C1694F" style="stroke:;stroke-width:0.0;stroke-dasharray:;"/><path d="M413.153,114.534 C412.4515,114.412 412.004,114.2075 411.7585,114.0545 C411.5865,114.5 411.4135,114.9005 411.264,115.234 C411.722,115.4835 412.3035,115.6815 412.9345,115.791 C413.299,115.8545 413.6605,115.8865 414,115.8865 C414.207,115.8865 414.4015,115.87 414.588,115.8465 C414.658,115.4875 414.7325,115.044 414.8,114.5075 C414.578,114.586 414.026,114.686 413.153,114.534 M413.683,112.1975 C413.1365,112.1435 412.716,112.0235 412.4205,111.8965 C412.328,112.3205 412.214,112.737 412.0855,113.134 C412.5175,113.297 413.026,113.4145 413.558,113.467 C413.7725,113.488 413.9855,113.499 414.193,113.499 C414.444,113.499 414.682,113.4795 414.9105,113.4495 C414.9445,113.0495 414.973,112.616 414.993,112.147 C414.679,112.2145 414.2385,112.252 413.683,112.1975 M413.8375,111.131 C414.2485,111.131 414.6525,111.0895 415.0205,111.017 C415.0215,110.894 415.0245,110.775 415.0245,110.6485 C415.0245,110.328 415.01,110.0175 414.989,109.712 C414.7245,109.781 414.3465,109.848 413.813,109.855 C413.271,109.8525 412.8895,109.7775 412.626,109.702 C412.629,109.804 412.6335,109.9025 412.635,110.0075 C412.64,110.3355 412.617,110.669 412.576,111.002 C412.9575,111.0825 413.3785,111.1285 413.8065,111.1305 L413.8375,111.131 M413.713,108.8425 C414.1255,108.783 414.508,108.676 414.865,108.55 C414.7985,108.105 414.7155,107.686 414.6225,107.2935 C414.3745,107.3955 414.023,107.509 413.532,107.5795 C413.077,107.6455 412.7295,107.6415 412.4675,107.618 C412.5175,108.0085 412.559,108.434 412.5885,108.8925 C412.6645,108.8955 412.7335,108.907 412.8115,108.907 C413.1055,108.9075 413.4115,108.8855 413.713,108.8425 M414.3485,106.2845 C414.2045,105.819 414.0565,105.4155 413.9225,105.0845 C413.701,105.1955 413.4205,105.3125 413.054,105.414 C412.6565,105.5245 412.3355,105.5685 412.0785,105.5835 C412.17,105.9295 412.264,106.3455 412.3485,106.831 C412.689,106.797 413.04,106.7415 413.3955,106.643 C413.735,106.549 414.0505,106.423 414.3485,106.2845 " fill="#D99E82" style="stroke:;stroke-width:0.0;stroke-dasharray:;"/><path d="M420.305,101.6525 C420.283,101.622 418.065,98.6555 415.188,99.9575 C413.8975,100.541 413.0645,101.4945 412.7625,102.725 C412.2,101.941 411.345,101.4425 410.216,101.241 C407.1165,100.688 405.2535,104.125 405.235,104.16 C405.208,104.211 405.2195,104.2745 405.263,104.3125 C405.3065,104.3505 405.3715,104.353 405.4185,104.32 C405.4325,104.31 406.8415,103.3235 409.19,103.7415 C411.5905,104.1685 413.2735,104.5885 413.2905,104.5925 C413.3005,104.595 413.311,104.596 413.321,104.596 C413.3555,104.596 413.389,104.582 413.413,104.556 C413.429,104.5385 415.023,102.826 416.4895,102.1625 C418.659,101.182 420.1385,101.833 420.1525,101.8395 C420.2045,101.8625 420.266,101.8485 420.3015,101.8045 C420.3375,101.761 420.339,101.698 420.305,101.6525 " fill="#3E721D" style="stroke:;stroke-width:0.0;stroke-dasharray:;"/><path d="M417.942,103.315 C415.7395,102.151 414.0175,102.7185 412.9445,103.425 C411.657,103.1815 409.2775,103.1955 407.2625,105.7785 C404.771,108.972 406.9535,112.9495 406.976,112.9895 C407.0095,113.049 407.0725,113.085 407.1395,113.085 C407.147,113.085 407.155,113.0845 407.1625,113.0835 C407.238,113.074 407.3005,113.02 407.3205,112.9465 C407.328,112.9195 408.084,110.1865 409.9955,107.8875 C411.0325,106.6395 412.2705,105.4845 413.1495,104.7175 C414.0305,104.8665 415.313,105.191 416.5725,105.8945 C419.0515,107.281 420.1895,109.6275 420.201,109.651 C420.235,109.723 420.3065,109.764 420.3905,109.757 C420.4695,109.748 420.535,109.6905 420.553,109.6135 C420.563,109.5695 421.537,105.2135 417.942,103.315 " fill="#5C913B" style="stroke:;stroke-width:0.0;stroke-dasharray:;"/><text fill="#000000" font-family="sans-serif" font-size="12" lengthAdjust="spacing" textLength="52" x="425" y="116.0703">packages</text><line style="stroke:#181818;stroke-width:1.5;" x1="563.5" x2="563.5" y1="69.5" y2="89.5"/><rect fill="#F1F1F1" height="39.5" style="stroke:#181818;stroke-width:1.5;" width="113" x="507" y="89.5"/><path d="M527.989,109.712 C527.962,109.31 527.9205,108.921 527.8655,108.5495 C527.799,108.1045 527.716,107.6855 527.623,107.293 C527.5375,106.9315 527.445,106.5945 527.349,106.2845 C527.205,105.819 527.057,105.4155 526.923,105.0845 C526.6595,104.435 526.4515,104.063 526.4515,104.063 L524.645,104.296 C524.8535,104.731 524.8535,104.731 525.079,105.5835 C525.1705,105.9295 525.2645,106.3455 525.349,106.831 C525.392,107.076 525.432,107.337 525.468,107.6175 C525.518,108.008 525.5595,108.4335 525.589,108.892 C525.606,109.151 525.618,109.421 525.626,109.7015 C525.629,109.8035 525.6335,109.902 525.635,110.007 C525.64,110.335 525.617,110.6685 525.576,111.0015 C525.539,111.3015 525.485,111.6 525.4205,111.896 C525.328,112.32 525.214,112.7365 525.0855,113.1335 C524.9815,113.455 524.87,113.764 524.758,114.0535 C524.586,114.499 524.413,114.8995 524.2635,115.233 C524.0125,115.7925 523.828,116.1645 523.828,116.242 C523.828,116.487 524.003,116.946 525.2265,117.252 C527.14,117.73 527.3245,116.9415 527.3245,116.9415 C527.3245,116.9415 527.446,116.5725 527.5875,115.8455 C527.6575,115.4865 527.732,115.043 527.7995,114.5065 C527.84,114.1855 527.8775,113.8325 527.9105,113.4485 C527.9445,113.0485 527.973,112.615 527.993,112.146 C528.008,111.791 528.0165,111.411 528.0205,111.0165 C528.0215,110.8935 528.0245,110.7745 528.0245,110.648 C528.0245,110.328 528.0095,110.0175 527.989,109.712 " fill="#C1694F" style="stroke:;stroke-width:0.0;stroke-dasharray:;"/><path d="M526.153,114.534 C525.4515,114.412 525.004,114.2075 524.7585,114.0545 C524.5865,114.5 524.4135,114.9005 524.264,115.234 C524.722,115.4835 525.3035,115.6815 525.9345,115.791 C526.299,115.8545 526.6605,115.8865 527,115.8865 C527.207,115.8865 527.4015,115.87 527.588,115.8465 C527.658,115.4875 527.7325,115.044 527.8,114.5075 C527.578,114.586 527.026,114.686 526.153,114.534 M526.683,112.1975 C526.1365,112.1435 525.716,112.0235 525.4205,111.8965 C525.328,112.3205 525.214,112.737 525.0855,113.134 C525.5175,113.297 526.026,113.4145 526.558,113.467 C526.7725,113.488 526.9855,113.499 527.193,113.499 C527.444,113.499 527.682,113.4795 527.9105,113.4495 C527.9445,113.0495 527.973,112.616 527.993,112.147 C527.679,112.2145 527.2385,112.252 526.683,112.1975 M526.8375,111.131 C527.2485,111.131 527.6525,111.0895 528.0205,111.017 C528.0215,110.894 528.0245,110.775 528.0245,110.6485 C528.0245,110.328 528.01,110.0175 527.989,109.712 C527.7245,109.781 527.3465,109.848 526.813,109.855 C526.271,109.8525 525.8895,109.7775 525.626,109.702 C525.629,109.804 525.6335,109.9025 525.635,110.0075 C525.64,110.3355 525.617,110.669 525.576,111.002 C525.9575,111.0825 526.3785,111.1285 526.8065,111.1305 L526.8375,111.131 M526.713,108.8425 C527.1255,108.783 527.508,108.676 527.865,108.55 C527.7985,108.105 527.7155,107.686 527.6225,107.2935 C527.3745,107.3955 527.023,107.509 526.532,107.5795 C526.077,107.6455 525.7295,107.6415 525.4675,107.618 C525.5175,108.0085 525.559,108.434 525.5885,108.8925 C525.6645,108.8955 525.7335,108.907 525.8115,108.907 C526.1055,108.9075 526.4115,108.8855 526.713,108.8425 M527.3485,106.2845 C527.2045,105.819 527.0565,105.4155 526.9225,105.0845 C526.701,105.1955 526.4205,105.3125 526.054,105.414 C525.6565,105.5245 525.3355,105.5685 525.0785,105.5835 C525.17,105.9295 525.264,106.3455 525.3485,106.831 C525.689,106.797 526.04,106.7415 526.3955,106.643 C526.735,106.549 527.0505,106.423 527.3485,106.2845 " fill="#D99E82" style="stroke:;stroke-width:0.0;stroke-dasharray:;"/><path d="M533.305,101.6525 C533.283,101.622 531.065,98.6555 528.188,99.9575 C526.8975,100.541 526.0645,101.4945 525.7625,102.725 C525.2,101.941 524.345,101.4425 523.216,101.241 C520.1165,100.688 518.2535,104.125 518.235,104.16 C518.208,104.211 518.2195,104.2745 518.263,104.3125 C518.3065,104.3505 518.3715,104.353 518.4185,104.32 C518.4325,104.31 519.8415,103.3235 522.19,103.7415 C524.5905,104.1685 526.2735,104.5885 526.2905,104.5925 C526.3005,104.595 526.311,104.596 526.321,104.596 C526.3555,104.596 526.389,104.582 526.413,104.556 C526.429,104.5385 528.023,102.826 529.4895,102.1625 C531.659,101.182 533.1385,101.833 533.1525,101.8395 C533.2045,101.8625 533.266,101.8485 533.3015,101.8045 C533.3375,101.761 533.339,101.698 533.305,101.6525 " fill="#3E721D" style="stroke:;stroke-width:0.0;stroke-dasharray:;"/><path d="M530.942,103.315 C528.7395,102.151 527.0175,102.7185 525.9445,103.425 C524.657,103.1815 522.2775,103.1955 520.2625,105.7785 C517.771,108.972 519.9535,112.9495 519.976,112.9895 C520.0095,113.049 520.0725,113.085 520.1395,113.085 C520.147,113.085 520.155,113.0845 520.1625,113.0835 C520.238,113.074 520.3005,113.02 520.3205,112.9465 C520.328,112.9195 521.084,110.1865 522.9955,107.8875 C524.0325,106.6395 525.2705,105.4845 526.1495,104.7175 C527.0305,104.8665 528.313,105.191 529.5725,105.8945 C532.0515,107.281 533.1895,109.6275 533.201,109.651 C533.235,109.723 533.3065,109.764 533.3905,109.757 C533.4695,109.748 533.535,109.6905 533.553,109.6135 C533.563,109.5695 534.537,105.2135 530.942,103.315 " fill="#5C913B" style="stroke:;stroke-width:0.0;stroke-dasharray:;"/><text fill="#000000" font-family="sans-serif" font-size="12" lengthAdjust="spacing" textLength="72" x="538" y="116.0703">package-lists</text><line style="stroke:#181818;stroke-width:1.5;" x1="563.5" x2="573.5" y1="163.75" y2="163.75"/><rect fill="#F1F1F1" height="39.5" style="stroke:#181818;stroke-width:1.5;" width="255" x="573.5" y="144"/><path d="M599.7755,163.426 C598.729,162.502 596.4325,161.794 594.6865,161.506 C596.4325,161.2175 598.729,160.5095 599.7755,159.5865 C600.7825,158.6985 601.257,158.1125 600.846,157.2255 C600.563,156.616 599.419,156.559 598.763,155.98 C598.107,155.401 598.0415,154.3915 597.35,154.1425 C596.345,153.7795 595.682,154.1995 594.6765,155.087 C593.6295,156.0105 592.8275,158.0365 592.5,159.577 C592.1735,158.036 591.371,156.01 590.3245,155.0865 C589.317,154.1985 588.654,153.7795 587.6485,154.1425 C586.957,154.3925 586.8925,155.4015 586.237,155.98 C585.5815,156.5585 584.436,156.617 584.154,157.227 C583.7425,158.114 584.2185,158.6985 585.224,159.586 C586.271,160.5095 588.568,161.2175 590.3145,161.506 C588.568,161.7945 586.271,162.5025 585.224,163.426 C584.2175,164.3135 583.7425,164.8985 584.1545,165.7865 C584.437,166.396 585.5815,166.4535 586.2375,167.0315 C586.893,167.6105 586.9595,168.6205 587.651,168.8695 C588.6555,169.233 589.319,168.812 590.325,167.925 C591.1505,167.1965 591.8235,165.781 592.232,164.4585 C592.101,166.726 592.496,169.754 594.158,171.5895 C594.83,172.331 595.3615,171.865 595.569,171.683 C595.777,171.5005 596.3715,170.976 595.662,170.272 C593.707,168.3305 593.029,166.3135 592.848,164.702 C593.2615,165.951 593.9015,167.2405 594.6765,167.925 C595.6825,168.8125 596.346,169.2325 597.352,168.8695 C598.043,168.6195 598.108,167.6095 598.763,167.0315 C599.419,166.4525 600.564,166.395 600.846,165.7845 C601.257,164.8975 600.781,164.3125 599.7755,163.426 " fill="#77B255" style="stroke:;stroke-width:0.0;stroke-dasharray:;"/><text fill="#000000" font-family="sans-serif" font-size="12" lengthAdjust="spacing" textLength="214" x="604.5" y="170.5703">spirallinux-Plasma-packages.list.chroot</text><line style="stroke:#181818;stroke-width:1.5;" x1="563.5" x2="563.5" y1="129" y2="163.75"/><line style="stroke:#181818;stroke-width:1.5;" x1="886" x2="886" y1="69.5" y2="89.5"/><rect fill="#F1F1F1" height="39.5" style="stroke:#181818;stroke-width:1.5;" width="75" x="848.5" y="89.5"/><path d="M869.489,109.712 C869.462,109.31 869.4205,108.921 869.3655,108.5495 C869.299,108.1045 869.216,107.6855 869.123,107.293 C869.0375,106.9315 868.945,106.5945 868.849,106.2845 C868.705,105.819 868.557,105.4155 868.423,105.0845 C868.1595,104.435 867.9515,104.063 867.9515,104.063 L866.145,104.296 C866.3535,104.731 866.3535,104.731 866.579,105.5835 C866.6705,105.9295 866.7645,106.3455 866.849,106.831 C866.892,107.076 866.932,107.337 866.968,107.6175 C867.018,108.008 867.0595,108.4335 867.089,108.892 C867.106,109.151 867.118,109.421 867.126,109.7015 C867.129,109.8035 867.1335,109.902 867.135,110.007 C867.14,110.335 867.117,110.6685 867.076,111.0015 C867.039,111.3015 866.985,111.6 866.9205,111.896 C866.828,112.32 866.714,112.7365 866.5855,113.1335 C866.4815,113.455 866.37,113.764 866.258,114.0535 C866.086,114.499 865.913,114.8995 865.7635,115.233 C865.5125,115.7925 865.328,116.1645 865.328,116.242 C865.328,116.487 865.503,116.946 866.7265,117.252 C868.64,117.73 868.8245,116.9415 868.8245,116.9415 C868.8245,116.9415 868.946,116.5725 869.0875,115.8455 C869.1575,115.4865 869.232,115.043 869.2995,114.5065 C869.34,114.1855 869.3775,113.8325 869.4105,113.4485 C869.4445,113.0485 869.473,112.615 869.493,112.146 C869.508,111.791 869.5165,111.411 869.5205,111.0165 C869.5215,110.8935 869.5245,110.7745 869.5245,110.648 C869.5245,110.328 869.5095,110.0175 869.489,109.712 " fill="#C1694F" style="stroke:;stroke-width:0.0;stroke-dasharray:;"/><path d="M867.653,114.534 C866.9515,114.412 866.504,114.2075 866.2585,114.0545 C866.0865,114.5 865.9135,114.9005 865.764,115.234 C866.222,115.4835 866.8035,115.6815 867.4345,115.791 C867.799,115.8545 868.1605,115.8865 868.5,115.8865 C868.707,115.8865 868.9015,115.87 869.088,115.8465 C869.158,115.4875 869.2325,115.044 869.3,114.5075 C869.078,114.586 868.526,114.686 867.653,114.534 M868.183,112.1975 C867.6365,112.1435 867.216,112.0235 866.9205,111.8965 C866.828,112.3205 866.714,112.737 866.5855,113.134 C867.0175,113.297 867.526,113.4145 868.058,113.467 C868.2725,113.488 868.4855,113.499 868.693,113.499 C868.944,113.499 869.182,113.4795 869.4105,113.4495 C869.4445,113.0495 869.473,112.616 869.493,112.147 C869.179,112.2145 868.7385,112.252 868.183,112.1975 M868.3375,111.131 C868.7485,111.131 869.1525,111.0895 869.5205,111.017 C869.5215,110.894 869.5245,110.775 869.5245,110.6485 C869.5245,110.328 869.51,110.0175 869.489,109.712 C869.2245,109.781 868.8465,109.848 868.313,109.855 C867.771,109.8525 867.3895,109.7775 867.126,109.702 C867.129,109.804 867.1335,109.9025 867.135,110.0075 C867.14,110.3355 867.117,110.669 867.076,111.002 C867.4575,111.0825 867.8785,111.1285 868.3065,111.1305 L868.3375,111.131 M868.213,108.8425 C868.6255,108.783 869.008,108.676 869.365,108.55 C869.2985,108.105 869.2155,107.686 869.1225,107.2935 C868.8745,107.3955 868.523,107.509 868.032,107.5795 C867.577,107.6455 867.2295,107.6415 866.9675,107.618 C867.0175,108.0085 867.059,108.434 867.0885,108.8925 C867.1645,108.8955 867.2335,108.907 867.3115,108.907 C867.6055,108.9075 867.9115,108.8855 868.213,108.8425 M868.8485,106.2845 C868.7045,105.819 868.5565,105.4155 868.4225,105.0845 C868.201,105.1955 867.9205,105.3125 867.554,105.414 C867.1565,105.5245 866.8355,105.5685 866.5785,105.5835 C866.67,105.9295 866.764,106.3455 866.8485,106.831 C867.189,106.797 867.54,106.7415 867.8955,106.643 C868.235,106.549 868.5505,106.423 868.8485,106.2845 " fill="#D99E82" style="stroke:;stroke-width:0.0;stroke-dasharray:;"/><path d="M874.805,101.6525 C874.783,101.622 872.565,98.6555 869.688,99.9575 C868.3975,100.541 867.5645,101.4945 867.2625,102.725 C866.7,101.941 865.845,101.4425 864.716,101.241 C861.6165,100.688 859.7535,104.125 859.735,104.16 C859.708,104.211 859.7195,104.2745 859.763,104.3125 C859.8065,104.3505 859.8715,104.353 859.9185,104.32 C859.9325,104.31 861.3415,103.3235 863.69,103.7415 C866.0905,104.1685 867.7735,104.5885 867.7905,104.5925 C867.8005,104.595 867.811,104.596 867.821,104.596 C867.8555,104.596 867.889,104.582 867.913,104.556 C867.929,104.5385 869.523,102.826 870.9895,102.1625 C873.159,101.182 874.6385,101.833 874.6525,101.8395 C874.7045,101.8625 874.766,101.8485 874.8015,101.8045 C874.8375,101.761 874.839,101.698 874.805,101.6525 " fill="#3E721D" style="stroke:;stroke-width:0.0;stroke-dasharray:;"/><path d="M872.442,103.315 C870.2395,102.151 868.5175,102.7185 867.4445,103.425 C866.157,103.1815 863.7775,103.1955 861.7625,105.7785 C859.271,108.972 861.4535,112.9495 861.476,112.9895 C861.5095,113.049 861.5725,113.085 861.6395,113.085 C861.647,113.085 861.655,113.0845 861.6625,113.0835 C861.738,113.074 861.8005,113.02 861.8205,112.9465 C861.828,112.9195 862.584,110.1865 864.4955,107.8875 C865.5325,106.6395 866.7705,105.4845 867.6495,104.7175 C868.5305,104.8665 869.813,105.191 871.0725,105.8945 C873.5515,107.281 874.6895,109.6275 874.701,109.651 C874.735,109.723 874.8065,109.764 874.8905,109.757 C874.9695,109.748 875.035,109.6905 875.053,109.6135 C875.063,109.5695 876.037,105.2135 872.442,103.315 " fill="#5C913B" style="stroke:;stroke-width:0.0;stroke-dasharray:;"/><text fill="#000000" font-family="sans-serif" font-size="12" lengthAdjust="spacing" textLength="34" x="879.5" y="116.0703">hooks</text><line style="stroke:#181818;stroke-width:1.5;" x1="886" x2="896" y1="163.75" y2="163.75"/><rect fill="#F1F1F1" height="39.5" style="stroke:#181818;stroke-width:1.5;" width="80" x="896" y="144"/><path d="M916.989,164.212 C916.962,163.81 916.9205,163.421 916.8655,163.0495 C916.799,162.6045 916.716,162.1855 916.623,161.793 C916.5375,161.4315 916.445,161.0945 916.349,160.7845 C916.205,160.319 916.057,159.9155 915.923,159.5845 C915.6595,158.935 915.4515,158.563 915.4515,158.563 L913.645,158.796 C913.8535,159.231 913.8535,159.231 914.079,160.0835 C914.1705,160.4295 914.2645,160.8455 914.349,161.331 C914.392,161.576 914.432,161.837 914.468,162.1175 C914.518,162.508 914.5595,162.9335 914.589,163.392 C914.606,163.651 914.618,163.921 914.626,164.2015 C914.629,164.3035 914.6335,164.402 914.635,164.507 C914.64,164.835 914.617,165.1685 914.576,165.5015 C914.539,165.8015 914.485,166.1 914.4205,166.396 C914.328,166.82 914.214,167.2365 914.0855,167.6335 C913.9815,167.955 913.87,168.264 913.758,168.5535 C913.586,168.999 913.413,169.3995 913.2635,169.733 C913.0125,170.2925 912.828,170.6645 912.828,170.742 C912.828,170.987 913.003,171.446 914.2265,171.752 C916.14,172.23 916.3245,171.4415 916.3245,171.4415 C916.3245,171.4415 916.446,171.0725 916.5875,170.3455 C916.6575,169.9865 916.732,169.543 916.7995,169.0065 C916.84,168.6855 916.8775,168.3325 916.9105,167.9485 C916.9445,167.5485 916.973,167.115 916.993,166.646 C917.008,166.291 917.0165,165.911 917.0205,165.5165 C917.0215,165.3935 917.0245,165.2745 917.0245,165.148 C917.0245,164.828 917.0095,164.5175 916.989,164.212 " fill="#C1694F" style="stroke:;stroke-width:0.0;stroke-dasharray:;"/><path d="M915.153,169.034 C914.4515,168.912 914.004,168.7075 913.7585,168.5545 C913.5865,169 913.4135,169.4005 913.264,169.734 C913.722,169.9835 914.3035,170.1815 914.9345,170.291 C915.299,170.3545 915.6605,170.3865 916,170.3865 C916.207,170.3865 916.4015,170.37 916.588,170.3465 C916.658,169.9875 916.7325,169.544 916.8,169.0075 C916.578,169.086 916.026,169.186 915.153,169.034 M915.683,166.6975 C915.1365,166.6435 914.716,166.5235 914.4205,166.3965 C914.328,166.8205 914.214,167.237 914.0855,167.634 C914.5175,167.797 915.026,167.9145 915.558,167.967 C915.7725,167.988 915.9855,167.999 916.193,167.999 C916.444,167.999 916.682,167.9795 916.9105,167.9495 C916.9445,167.5495 916.973,167.116 916.993,166.647 C916.679,166.7145 916.2385,166.752 915.683,166.6975 M915.8375,165.631 C916.2485,165.631 916.6525,165.5895 917.0205,165.517 C917.0215,165.394 917.0245,165.275 917.0245,165.1485 C917.0245,164.828 917.01,164.5175 916.989,164.212 C916.7245,164.281 916.3465,164.348 915.813,164.355 C915.271,164.3525 914.8895,164.2775 914.626,164.202 C914.629,164.304 914.6335,164.4025 914.635,164.5075 C914.64,164.8355 914.617,165.169 914.576,165.502 C914.9575,165.5825 915.3785,165.6285 915.8065,165.6305 L915.8375,165.631 M915.713,163.3425 C916.1255,163.283 916.508,163.176 916.865,163.05 C916.7985,162.605 916.7155,162.186 916.6225,161.7935 C916.3745,161.8955 916.023,162.009 915.532,162.0795 C915.077,162.1455 914.7295,162.1415 914.4675,162.118 C914.5175,162.5085 914.559,162.934 914.5885,163.3925 C914.6645,163.3955 914.7335,163.407 914.8115,163.407 C915.1055,163.4075 915.4115,163.3855 915.713,163.3425 M916.3485,160.7845 C916.2045,160.319 916.0565,159.9155 915.9225,159.5845 C915.701,159.6955 915.4205,159.8125 915.054,159.914 C914.6565,160.0245 914.3355,160.0685 914.0785,160.0835 C914.17,160.4295 914.264,160.8455 914.3485,161.331 C914.689,161.297 915.04,161.2415 915.3955,161.143 C915.735,161.049 916.0505,160.923 916.3485,160.7845 " fill="#D99E82" style="stroke:;stroke-width:0.0;stroke-dasharray:;"/><path d="M922.305,156.1525 C922.283,156.122 920.065,153.1555 917.188,154.4575 C915.8975,155.041 915.0645,155.9945 914.7625,157.225 C914.2,156.441 913.345,155.9425 912.216,155.741 C909.1165,155.188 907.2535,158.625 907.235,158.66 C907.208,158.711 907.2195,158.7745 907.263,158.8125 C907.3065,158.8505 907.3715,158.853 907.4185,158.82 C907.4325,158.81 908.8415,157.8235 911.19,158.2415 C913.5905,158.6685 915.2735,159.0885 915.2905,159.0925 C915.3005,159.095 915.311,159.096 915.321,159.096 C915.3555,159.096 915.389,159.082 915.413,159.056 C915.429,159.0385 917.023,157.326 918.4895,156.6625 C920.659,155.682 922.1385,156.333 922.1525,156.3395 C922.2045,156.3625 922.266,156.3485 922.3015,156.3045 C922.3375,156.261 922.339,156.198 922.305,156.1525 " fill="#3E721D" style="stroke:;stroke-width:0.0;stroke-dasharray:;"/><path d="M919.942,157.815 C917.7395,156.651 916.0175,157.2185 914.9445,157.925 C913.657,157.6815 911.2775,157.6955 909.2625,160.2785 C906.771,163.472 908.9535,167.4495 908.976,167.4895 C909.0095,167.549 909.0725,167.585 909.1395,167.585 C909.147,167.585 909.155,167.5845 909.1625,167.5835 C909.238,167.574 909.3005,167.52 909.3205,167.4465 C909.328,167.4195 910.084,164.6865 911.9955,162.3875 C913.0325,161.1395 914.2705,159.9845 915.1495,159.2175 C916.0305,159.3665 917.313,159.691 918.5725,160.3945 C921.0515,161.781 922.1895,164.1275 922.201,164.151 C922.235,164.223 922.3065,164.264 922.3905,164.257 C922.4695,164.248 922.535,164.1905 922.553,164.1135 C922.563,164.0695 923.537,159.7135 919.942,157.815 " fill="#5C913B" style="stroke:;stroke-width:0.0;stroke-dasharray:;"/><text fill="#000000" font-family="sans-serif" font-size="12" lengthAdjust="spacing" textLength="39" x="927" y="170.5703">normal</text><line style="stroke:#181818;stroke-width:1.5;" x1="936" x2="946" y1="218.25" y2="218.25"/><rect fill="#F1F1F1" height="39.5" style="stroke:#181818;stroke-width:1.5;" width="227" x="946" y="198.5"/><path d="M972.2755,217.926 C971.229,217.002 968.9325,216.294 967.1865,216.006 C968.9325,215.7175 971.229,215.0095 972.2755,214.0865 C973.2825,213.1985 973.757,212.6125 973.346,211.7255 C973.063,211.116 971.919,211.059 971.263,210.48 C970.607,209.901 970.5415,208.8915 969.85,208.6425 C968.845,208.2795 968.182,208.6995 967.1765,209.587 C966.1295,210.5105 965.3275,212.5365 965,214.077 C964.6735,212.536 963.871,210.51 962.8245,209.5865 C961.817,208.6985 961.154,208.2795 960.1485,208.6425 C959.457,208.8925 959.3925,209.9015 958.737,210.48 C958.0815,211.0585 956.936,211.117 956.654,211.727 C956.2425,212.614 956.7185,213.1985 957.724,214.086 C958.771,215.0095 961.068,215.7175 962.8145,216.006 C961.068,216.2945 958.771,217.0025 957.724,217.926 C956.7175,218.8135 956.2425,219.3985 956.6545,220.2865 C956.937,220.896 958.0815,220.9535 958.7375,221.5315 C959.393,222.1105 959.4595,223.1205 960.151,223.3695 C961.1555,223.733 961.819,223.312 962.825,222.425 C963.6505,221.6965 964.3235,220.281 964.732,218.9585 C964.601,221.226 964.996,224.254 966.658,226.0895 C967.33,226.831 967.8615,226.365 968.069,226.183 C968.277,226.0005 968.8715,225.476 968.162,224.772 C966.207,222.8305 965.529,220.8135 965.348,219.202 C965.7615,220.451 966.4015,221.7405 967.1765,222.425 C968.1825,223.3125 968.846,223.7325 969.852,223.3695 C970.543,223.1195 970.608,222.1095 971.263,221.5315 C971.919,220.9525 973.064,220.895 973.346,220.2845 C973.757,219.3975 973.281,218.8125 972.2755,217.926 " fill="#77B255" style="stroke:;stroke-width:0.0;stroke-dasharray:;"/><text fill="#000000" font-family="sans-serif" font-size="12" lengthAdjust="spacing" textLength="186" x="977" y="225.0703">0470-update-dconf-db.hook.chroot</text><line style="stroke:#181818;stroke-width:1.5;" x1="936" x2="946" y1="272.75" y2="272.75"/><rect fill="#F1F1F1" height="39.5" style="stroke:#181818;stroke-width:1.5;" width="221" x="946" y="253"/><path d="M972.2755,272.426 C971.229,271.502 968.9325,270.794 967.1865,270.506 C968.9325,270.2175 971.229,269.5095 972.2755,268.5865 C973.2825,267.6985 973.757,267.1125 973.346,266.2255 C973.063,265.616 971.919,265.559 971.263,264.98 C970.607,264.401 970.5415,263.3915 969.85,263.1425 C968.845,262.7795 968.182,263.1995 967.1765,264.087 C966.1295,265.0105 965.3275,267.0365 965,268.577 C964.6735,267.036 963.871,265.01 962.8245,264.0865 C961.817,263.1985 961.154,262.7795 960.1485,263.1425 C959.457,263.3925 959.3925,264.4015 958.737,264.98 C958.0815,265.5585 956.936,265.617 956.654,266.227 C956.2425,267.114 956.7185,267.6985 957.724,268.586 C958.771,269.5095 961.068,270.2175 962.8145,270.506 C961.068,270.7945 958.771,271.5025 957.724,272.426 C956.7175,273.3135 956.2425,273.8985 956.6545,274.7865 C956.937,275.396 958.0815,275.4535 958.7375,276.0315 C959.393,276.6105 959.4595,277.6205 960.151,277.8695 C961.1555,278.233 961.819,277.812 962.825,276.925 C963.6505,276.1965 964.3235,274.781 964.732,273.4585 C964.601,275.726 964.996,278.754 966.658,280.5895 C967.33,281.331 967.8615,280.865 968.069,280.683 C968.277,280.5005 968.8715,279.976 968.162,279.272 C966.207,277.3305 965.529,275.3135 965.348,273.702 C965.7615,274.951 966.4015,276.2405 967.1765,276.925 C968.1825,277.8125 968.846,278.2325 969.852,277.8695 C970.543,277.6195 970.608,276.6095 971.263,276.0315 C971.919,275.4525 973.064,275.395 973.346,274.7845 C973.757,273.8975 973.281,273.3125 972.2755,272.426 " fill="#77B255" style="stroke:;stroke-width:0.0;stroke-dasharray:;"/><text fill="#000000" font-family="sans-serif" font-size="12" lengthAdjust="spacing" textLength="180" x="977" y="279.5703">0900-clear-apt-cache.hook.chroot</text><line style="stroke:#181818;stroke-width:1.5;" x1="936" x2="946" y1="327.25" y2="327.25"/><rect fill="#F1F1F1" height="39.5" style="stroke:#181818;stroke-width:1.5;" width="196" x="946" y="307.5"/><path d="M972.2755,326.926 C971.229,326.002 968.9325,325.294 967.1865,325.006 C968.9325,324.7175 971.229,324.0095 972.2755,323.0865 C973.2825,322.1985 973.757,321.6125 973.346,320.7255 C973.063,320.116 971.919,320.059 971.263,319.48 C970.607,318.901 970.5415,317.8915 969.85,317.6425 C968.845,317.2795 968.182,317.6995 967.1765,318.587 C966.1295,319.5105 965.3275,321.5365 965,323.077 C964.6735,321.536 963.871,319.51 962.8245,318.5865 C961.817,317.6985 961.154,317.2795 960.1485,317.6425 C959.457,317.8925 959.3925,318.9015 958.737,319.48 C958.0815,320.0585 956.936,320.117 956.654,320.727 C956.2425,321.614 956.7185,322.1985 957.724,323.086 C958.771,324.0095 961.068,324.7175 962.8145,325.006 C961.068,325.2945 958.771,326.0025 957.724,326.926 C956.7175,327.8135 956.2425,328.3985 956.6545,329.2865 C956.937,329.896 958.0815,329.9535 958.7375,330.5315 C959.393,331.1105 959.4595,332.1205 960.151,332.3695 C961.1555,332.733 961.819,332.312 962.825,331.425 C963.6505,330.6965 964.3235,329.281 964.732,327.9585 C964.601,330.226 964.996,333.254 966.658,335.0895 C967.33,335.831 967.8615,335.365 968.069,335.183 C968.277,335.0005 968.8715,334.476 968.162,333.772 C966.207,331.8305 965.529,329.8135 965.348,328.202 C965.7615,329.451 966.4015,330.7405 967.1765,331.425 C968.1825,332.3125 968.846,332.7325 969.852,332.3695 C970.543,332.1195 970.608,331.1095 971.263,330.5315 C971.919,329.9525 973.064,329.895 973.346,329.2845 C973.757,328.3975 973.281,327.8125 972.2755,326.926 " fill="#77B255" style="stroke:;stroke-width:0.0;stroke-dasharray:;"/><text fill="#000000" font-family="sans-serif" font-size="12" lengthAdjust="spacing" textLength="155" x="977" y="334.0703">0999-spirallinux.hook.chroot</text><line style="stroke:#181818;stroke-width:1.5;" x1="936" x2="946" y1="381.75" y2="381.75"/><rect fill="#F1F1F1" height="39.5" style="stroke:#181818;stroke-width:1.5;" width="336" x="946" y="362"/><path d="M972.2755,381.426 C971.229,380.502 968.9325,379.794 967.1865,379.506 C968.9325,379.2175 971.229,378.5095 972.2755,377.5865 C973.2825,376.6985 973.757,376.1125 973.346,375.2255 C973.063,374.616 971.919,374.559 971.263,373.98 C970.607,373.401 970.5415,372.3915 969.85,372.1425 C968.845,371.7795 968.182,372.1995 967.1765,373.087 C966.1295,374.0105 965.3275,376.0365 965,377.577 C964.6735,376.036 963.871,374.01 962.8245,373.0865 C961.817,372.1985 961.154,371.7795 960.1485,372.1425 C959.457,372.3925 959.3925,373.4015 958.737,373.98 C958.0815,374.5585 956.936,374.617 956.654,375.227 C956.2425,376.114 956.7185,376.6985 957.724,377.586 C958.771,378.5095 961.068,379.2175 962.8145,379.506 C961.068,379.7945 958.771,380.5025 957.724,381.426 C956.7175,382.3135 956.2425,382.8985 956.6545,383.7865 C956.937,384.396 958.0815,384.4535 958.7375,385.0315 C959.393,385.6105 959.4595,386.6205 960.151,386.8695 C961.1555,387.233 961.819,386.812 962.825,385.925 C963.6505,385.1965 964.3235,383.781 964.732,382.4585 C964.601,384.726 964.996,387.754 966.658,389.5895 C967.33,390.331 967.8615,389.865 968.069,389.683 C968.277,389.5005 968.8715,388.976 968.162,388.272 C966.207,386.3305 965.529,384.3135 965.348,382.702 C965.7615,383.951 966.4015,385.2405 967.1765,385.925 C968.1825,386.8125 968.846,387.2325 969.852,386.8695 C970.543,386.6195 970.608,385.6095 971.263,385.0315 C971.919,384.4525 973.064,384.395 973.346,383.7845 C973.757,382.8975 973.281,382.3125 972.2755,381.426 " fill="#77B255" style="stroke:;stroke-width:0.0;stroke-dasharray:;"/><text fill="#000000" font-family="sans-serif" font-size="12" lengthAdjust="spacing" textLength="295" x="977" y="388.5703">0425-update-session-manager-alternative.hook.chroot</text><line style="stroke:#181818;stroke-width:1.5;" x1="936" x2="946" y1="436.25" y2="436.25"/><rect fill="#F1F1F1" height="39.5" style="stroke:#181818;stroke-width:1.5;" width="305" x="946" y="416.5"/><path d="M972.2755,435.926 C971.229,435.002 968.9325,434.294 967.1865,434.006 C968.9325,433.7175 971.229,433.0095 972.2755,432.0865 C973.2825,431.1985 973.757,430.6125 973.346,429.7255 C973.063,429.116 971.919,429.059 971.263,428.48 C970.607,427.901 970.5415,426.8915 969.85,426.6425 C968.845,426.2795 968.182,426.6995 967.1765,427.587 C966.1295,428.5105 965.3275,430.5365 965,432.077 C964.6735,430.536 963.871,428.51 962.8245,427.5865 C961.817,426.6985 961.154,426.2795 960.1485,426.6425 C959.457,426.8925 959.3925,427.9015 958.737,428.48 C958.0815,429.0585 956.936,429.117 956.654,429.727 C956.2425,430.614 956.7185,431.1985 957.724,432.086 C958.771,433.0095 961.068,433.7175 962.8145,434.006 C961.068,434.2945 958.771,435.0025 957.724,435.926 C956.7175,436.8135 956.2425,437.3985 956.6545,438.2865 C956.937,438.896 958.0815,438.9535 958.7375,439.5315 C959.393,440.1105 959.4595,441.1205 960.151,441.3695 C961.1555,441.733 961.819,441.312 962.825,440.425 C963.6505,439.6965 964.3235,438.281 964.732,436.9585 C964.601,439.226 964.996,442.254 966.658,444.0895 C967.33,444.831 967.8615,444.365 968.069,444.183 C968.277,444.0005 968.8715,443.476 968.162,442.772 C966.207,440.8305 965.529,438.8135 965.348,437.202 C965.7615,438.451 966.4015,439.7405 967.1765,440.425 C968.1825,441.3125 968.846,441.7325 969.852,441.3695 C970.543,441.1195 970.608,440.1095 971.263,439.5315 C971.919,438.9525 973.064,438.895 973.346,438.2845 C973.757,437.3975 973.281,436.8125 972.2755,435.926 " fill="#77B255" style="stroke:;stroke-width:0.0;stroke-dasharray:;"/><text fill="#000000" font-family="sans-serif" font-size="12" lengthAdjust="spacing" textLength="264" x="977" y="443.0703">0350-update-default-services-status.hook.chroot</text><line style="stroke:#181818;stroke-width:1.5;" x1="936" x2="946" y1="490.75" y2="490.75"/><rect fill="#F1F1F1" height="39.5" style="stroke:#181818;stroke-width:1.5;" width="230" x="946" y="471"/><path d="M972.2755,490.426 C971.229,489.502 968.9325,488.794 967.1865,488.506 C968.9325,488.2175 971.229,487.5095 972.2755,486.5865 C973.2825,485.6985 973.757,485.1125 973.346,484.2255 C973.063,483.616 971.919,483.559 971.263,482.98 C970.607,482.401 970.5415,481.3915 969.85,481.1425 C968.845,480.7795 968.182,481.1995 967.1765,482.087 C966.1295,483.0105 965.3275,485.0365 965,486.577 C964.6735,485.036 963.871,483.01 962.8245,482.0865 C961.817,481.1985 961.154,480.7795 960.1485,481.1425 C959.457,481.3925 959.3925,482.4015 958.737,482.98 C958.0815,483.5585 956.936,483.617 956.654,484.227 C956.2425,485.114 956.7185,485.6985 957.724,486.586 C958.771,487.5095 961.068,488.2175 962.8145,488.506 C961.068,488.7945 958.771,489.5025 957.724,490.426 C956.7175,491.3135 956.2425,491.8985 956.6545,492.7865 C956.937,493.396 958.0815,493.4535 958.7375,494.0315 C959.393,494.6105 959.4595,495.6205 960.151,495.8695 C961.1555,496.233 961.819,495.812 962.825,494.925 C963.6505,494.1965 964.3235,492.781 964.732,491.4585 C964.601,493.726 964.996,496.754 966.658,498.5895 C967.33,499.331 967.8615,498.865 968.069,498.683 C968.277,498.5005 968.8715,497.976 968.162,497.272 C966.207,495.3305 965.529,493.3135 965.348,491.702 C965.7615,492.951 966.4015,494.2405 967.1765,494.925 C968.1825,495.8125 968.846,496.2325 969.852,495.8695 C970.543,495.6195 970.608,494.6095 971.263,494.0315 C971.919,493.4525 973.064,493.395 973.346,492.7845 C973.757,491.8975 973.281,491.3125 972.2755,490.426 " fill="#77B255" style="stroke:;stroke-width:0.0;stroke-dasharray:;"/><text fill="#000000" font-family="sans-serif" font-size="12" lengthAdjust="spacing" textLength="189" x="977" y="497.5703">0450-enable-multiarch.hook.chroot</text><line style="stroke:#181818;stroke-width:1.5;" x1="936" x2="946" y1="545.25" y2="545.25"/><rect fill="#F1F1F1" height="39.5" style="stroke:#181818;stroke-width:1.5;" width="292" x="946" y="525.5"/><path d="M972.2755,544.926 C971.229,544.002 968.9325,543.294 967.1865,543.006 C968.9325,542.7175 971.229,542.0095 972.2755,541.0865 C973.2825,540.1985 973.757,539.6125 973.346,538.7255 C973.063,538.116 971.919,538.059 971.263,537.48 C970.607,536.901 970.5415,535.8915 969.85,535.6425 C968.845,535.2795 968.182,535.6995 967.1765,536.587 C966.1295,537.5105 965.3275,539.5365 965,541.077 C964.6735,539.536 963.871,537.51 962.8245,536.5865 C961.817,535.6985 961.154,535.2795 960.1485,535.6425 C959.457,535.8925 959.3925,536.9015 958.737,537.48 C958.0815,538.0585 956.936,538.117 956.654,538.727 C956.2425,539.614 956.7185,540.1985 957.724,541.086 C958.771,542.0095 961.068,542.7175 962.8145,543.006 C961.068,543.2945 958.771,544.0025 957.724,544.926 C956.7175,545.8135 956.2425,546.3985 956.6545,547.2865 C956.937,547.896 958.0815,547.9535 958.7375,548.5315 C959.393,549.1105 959.4595,550.1205 960.151,550.3695 C961.1555,550.733 961.819,550.312 962.825,549.425 C963.6505,548.6965 964.3235,547.281 964.732,545.9585 C964.601,548.226 964.996,551.254 966.658,553.0895 C967.33,553.831 967.8615,553.365 968.069,553.183 C968.277,553.0005 968.8715,552.476 968.162,551.772 C966.207,549.8305 965.529,547.8135 965.348,546.202 C965.7615,547.451 966.4015,548.7405 967.1765,549.425 C968.1825,550.3125 968.846,550.7325 969.852,550.3695 C970.543,550.1195 970.608,549.1095 971.263,548.5315 C971.919,547.9525 973.064,547.895 973.346,547.2845 C973.757,546.3975 973.281,545.8125 972.2755,544.926 " fill="#77B255" style="stroke:;stroke-width:0.0;stroke-dasharray:;"/><text fill="#000000" font-family="sans-serif" font-size="12" lengthAdjust="spacing" textLength="251" x="977" y="552.0703">0090-remove-unwanted-packages.hook.chroot</text><line style="stroke:#181818;stroke-width:1.5;" x1="936" x2="936" y1="183.5" y2="545.25"/><line style="stroke:#181818;stroke-width:1.5;" x1="886" x2="886" y1="129" y2="163.75"/><line style="stroke:#181818;stroke-width:1.5;" x1="1345.5" x2="1345.5" y1="69.5" y2="89.5"/><rect fill="#F1F1F1" height="39.5" style="stroke:#181818;stroke-width:1.5;" width="87" x="1302" y="89.5"/><path d="M1322.989,109.712 C1322.962,109.31 1322.9205,108.921 1322.8655,108.5495 C1322.799,108.1045 1322.716,107.6855 1322.623,107.293 C1322.5375,106.9315 1322.445,106.5945 1322.349,106.2845 C1322.205,105.819 1322.057,105.4155 1321.923,105.0845 C1321.6595,104.435 1321.4515,104.063 1321.4515,104.063 L1319.645,104.296 C1319.8535,104.731 1319.8535,104.731 1320.079,105.5835 C1320.1705,105.9295 1320.2645,106.3455 1320.349,106.831 C1320.392,107.076 1320.432,107.337 1320.468,107.6175 C1320.518,108.008 1320.5595,108.4335 1320.589,108.892 C1320.606,109.151 1320.618,109.421 1320.626,109.7015 C1320.629,109.8035 1320.6335,109.902 1320.635,110.007 C1320.64,110.335 1320.617,110.6685 1320.576,111.0015 C1320.539,111.3015 1320.485,111.6 1320.4205,111.896 C1320.328,112.32 1320.214,112.7365 1320.0855,113.1335 C1319.9815,113.455 1319.87,113.764 1319.758,114.0535 C1319.586,114.499 1319.413,114.8995 1319.2635,115.233 C1319.0125,115.7925 1318.828,116.1645 1318.828,116.242 C1318.828,116.487 1319.003,116.946 1320.2265,117.252 C1322.14,117.73 1322.3245,116.9415 1322.3245,116.9415 C1322.3245,116.9415 1322.446,116.5725 1322.5875,115.8455 C1322.6575,115.4865 1322.732,115.043 1322.7995,114.5065 C1322.84,114.1855 1322.8775,113.8325 1322.9105,113.4485 C1322.9445,113.0485 1322.973,112.615 1322.993,112.146 C1323.008,111.791 1323.0165,111.411 1323.0205,111.0165 C1323.0215,110.8935 1323.0245,110.7745 1323.0245,110.648 C1323.0245,110.328 1323.0095,110.0175 1322.989,109.712 " fill="#C1694F" style="stroke:;stroke-width:0.0;stroke-dasharray:;"/><path d="M1321.153,114.534 C1320.4515,114.412 1320.004,114.2075 1319.7585,114.0545 C1319.5865,114.5 1319.4135,114.9005 1319.264,115.234 C1319.722,115.4835 1320.3035,115.6815 1320.9345,115.791 C1321.299,115.8545 1321.6605,115.8865 1322,115.8865 C1322.207,115.8865 1322.4015,115.87 1322.588,115.8465 C1322.658,115.4875 1322.7325,115.044 1322.8,114.5075 C1322.578,114.586 1322.026,114.686 1321.153,114.534 M1321.683,112.1975 C1321.1365,112.1435 1320.716,112.0235 1320.4205,111.8965 C1320.328,112.3205 1320.214,112.737 1320.0855,113.134 C1320.5175,113.297 1321.026,113.4145 1321.558,113.467 C1321.7725,113.488 1321.9855,113.499 1322.193,113.499 C1322.444,113.499 1322.682,113.4795 1322.9105,113.4495 C1322.9445,113.0495 1322.973,112.616 1322.993,112.147 C1322.679,112.2145 1322.2385,112.252 1321.683,112.1975 M1321.8375,111.131 C1322.2485,111.131 1322.6525,111.0895 1323.0205,111.017 C1323.0215,110.894 1323.0245,110.775 1323.0245,110.6485 C1323.0245,110.328 1323.01,110.0175 1322.989,109.712 C1322.7245,109.781 1322.3465,109.848 1321.813,109.855 C1321.271,109.8525 1320.8895,109.7775 1320.626,109.702 C1320.629,109.804 1320.6335,109.9025 1320.635,110.0075 C1320.64,110.3355 1320.617,110.669 1320.576,111.002 C1320.9575,111.0825 1321.3785,111.1285 1321.8065,111.1305 L1321.8375,111.131 M1321.713,108.8425 C1322.1255,108.783 1322.508,108.676 1322.865,108.55 C1322.7985,108.105 1322.7155,107.686 1322.6225,107.2935 C1322.3745,107.3955 1322.023,107.509 1321.532,107.5795 C1321.077,107.6455 1320.7295,107.6415 1320.4675,107.618 C1320.5175,108.0085 1320.559,108.434 1320.5885,108.8925 C1320.6645,108.8955 1320.7335,108.907 1320.8115,108.907 C1321.1055,108.9075 1321.4115,108.8855 1321.713,108.8425 M1322.3485,106.2845 C1322.2045,105.819 1322.0565,105.4155 1321.9225,105.0845 C1321.701,105.1955 1321.4205,105.3125 1321.054,105.414 C1320.6565,105.5245 1320.3355,105.5685 1320.0785,105.5835 C1320.17,105.9295 1320.264,106.3455 1320.3485,106.831 C1320.689,106.797 1321.04,106.7415 1321.3955,106.643 C1321.735,106.549 1322.0505,106.423 1322.3485,106.2845 " fill="#D99E82" style="stroke:;stroke-width:0.0;stroke-dasharray:;"/><path d="M1328.305,101.6525 C1328.283,101.622 1326.065,98.6555 1323.188,99.9575 C1321.8975,100.541 1321.0645,101.4945 1320.7625,102.725 C1320.2,101.941 1319.345,101.4425 1318.216,101.241 C1315.1165,100.688 1313.2535,104.125 1313.235,104.16 C1313.208,104.211 1313.2195,104.2745 1313.263,104.3125 C1313.3065,104.3505 1313.3715,104.353 1313.4185,104.32 C1313.4325,104.31 1314.8415,103.3235 1317.19,103.7415 C1319.5905,104.1685 1321.2735,104.5885 1321.2905,104.5925 C1321.3005,104.595 1321.311,104.596 1321.321,104.596 C1321.3555,104.596 1321.389,104.582 1321.413,104.556 C1321.429,104.5385 1323.023,102.826 1324.4895,102.1625 C1326.659,101.182 1328.1385,101.833 1328.1525,101.8395 C1328.2045,101.8625 1328.266,101.8485 1328.3015,101.8045 C1328.3375,101.761 1328.339,101.698 1328.305,101.6525 " fill="#3E721D" style="stroke:;stroke-width:0.0;stroke-dasharray:;"/><path d="M1325.942,103.315 C1323.7395,102.151 1322.0175,102.7185 1320.9445,103.425 C1319.657,103.1815 1317.2775,103.1955 1315.2625,105.7785 C1312.771,108.972 1314.9535,112.9495 1314.976,112.9895 C1315.0095,113.049 1315.0725,113.085 1315.1395,113.085 C1315.147,113.085 1315.155,113.0845 1315.1625,113.0835 C1315.238,113.074 1315.3005,113.02 1315.3205,112.9465 C1315.328,112.9195 1316.084,110.1865 1317.9955,107.8875 C1319.0325,106.6395 1320.2705,105.4845 1321.1495,104.7175 C1322.0305,104.8665 1323.313,105.191 1324.5725,105.8945 C1327.0515,107.281 1328.1895,109.6275 1328.201,109.651 C1328.235,109.723 1328.3065,109.764 1328.3905,109.757 C1328.4695,109.748 1328.535,109.6905 1328.553,109.6135 C1328.563,109.5695 1329.537,105.2135 1325.942,103.315 " fill="#5C913B" style="stroke:;stroke-width:0.0;stroke-dasharray:;"/><text fill="#000000" font-family="sans-serif" font-size="12" lengthAdjust="spacing" textLength="46" x="1333" y="116.0703">archives</text><line style="stroke:#181818;stroke-width:1.5;" x1="1345.5" x2="1355.5" y1="163.75" y2="163.75"/><rect fill="#F1F1F1" height="39.5" style="stroke:#181818;stroke-width:1.5;" width="153" x="1355.5" y="144"/><path d="M1381.7755,163.426 C1380.729,162.502 1378.4325,161.794 1376.6865,161.506 C1378.4325,161.2175 1380.729,160.5095 1381.7755,159.5865 C1382.7825,158.6985 1383.257,158.1125 1382.846,157.2255 C1382.563,156.616 1381.419,156.559 1380.763,155.98 C1380.107,155.401 1380.0415,154.3915 1379.35,154.1425 C1378.345,153.7795 1377.682,154.1995 1376.6765,155.087 C1375.6295,156.0105 1374.8275,158.0365 1374.5,159.577 C1374.1735,158.036 1373.371,156.01 1372.3245,155.0865 C1371.317,154.1985 1370.654,153.7795 1369.6485,154.1425 C1368.957,154.3925 1368.8925,155.4015 1368.237,155.98 C1367.5815,156.5585 1366.436,156.617 1366.154,157.227 C1365.7425,158.114 1366.2185,158.6985 1367.224,159.586 C1368.271,160.5095 1370.568,161.2175 1372.3145,161.506 C1370.568,161.7945 1368.271,162.5025 1367.224,163.426 C1366.2175,164.3135 1365.7425,164.8985 1366.1545,165.7865 C1366.437,166.396 1367.5815,166.4535 1368.2375,167.0315 C1368.893,167.6105 1368.9595,168.6205 1369.651,168.8695 C1370.6555,169.233 1371.319,168.812 1372.325,167.925 C1373.1505,167.1965 1373.8235,165.781 1374.232,164.4585 C1374.101,166.726 1374.496,169.754 1376.158,171.5895 C1376.83,172.331 1377.3615,171.865 1377.569,171.683 C1377.777,171.5005 1378.3715,170.976 1377.662,170.272 C1375.707,168.3305 1375.029,166.3135 1374.848,164.702 C1375.2615,165.951 1375.9015,167.2405 1376.6765,167.925 C1377.6825,168.8125 1378.346,169.2325 1379.352,168.8695 C1380.043,168.6195 1380.108,167.6095 1380.763,167.0315 C1381.419,166.4525 1382.564,166.395 1382.846,165.7845 C1383.257,164.8975 1382.781,164.3125 1381.7755,163.426 " fill="#77B255" style="stroke:;stroke-width:0.0;stroke-dasharray:;"/><text fill="#000000" font-family="sans-serif" font-size="12" lengthAdjust="spacing" textLength="112" x="1386.5" y="170.5703">spirallinux.list.binary</text><line style="stroke:#181818;stroke-width:1.5;" x1="1345.5" x2="1355.5" y1="218.25" y2="218.25"/><rect fill="#F1F1F1" height="39.5" style="stroke:#181818;stroke-width:1.5;" width="155" x="1355.5" y="198.5"/><path d="M1381.7755,217.926 C1380.729,217.002 1378.4325,216.294 1376.6865,216.006 C1378.4325,215.7175 1380.729,215.0095 1381.7755,214.0865 C1382.7825,213.1985 1383.257,212.6125 1382.846,211.7255 C1382.563,211.116 1381.419,211.059 1380.763,210.48 C1380.107,209.901 1380.0415,208.8915 1379.35,208.6425 C1378.345,208.2795 1377.682,208.6995 1376.6765,209.587 C1375.6295,210.5105 1374.8275,212.5365 1374.5,214.077 C1374.1735,212.536 1373.371,210.51 1372.3245,209.5865 C1371.317,208.6985 1370.654,208.2795 1369.6485,208.6425 C1368.957,208.8925 1368.8925,209.9015 1368.237,210.48 C1367.5815,211.0585 1366.436,211.117 1366.154,211.727 C1365.7425,212.614 1366.2185,213.1985 1367.224,214.086 C1368.271,215.0095 1370.568,215.7175 1372.3145,216.006 C1370.568,216.2945 1368.271,217.0025 1367.224,217.926 C1366.2175,218.8135 1365.7425,219.3985 1366.1545,220.2865 C1366.437,220.896 1367.5815,220.9535 1368.2375,221.5315 C1368.893,222.1105 1368.9595,223.1205 1369.651,223.3695 C1370.6555,223.733 1371.319,223.312 1372.325,222.425 C1373.1505,221.6965 1373.8235,220.281 1374.232,218.9585 C1374.101,221.226 1374.496,224.254 1376.158,226.0895 C1376.83,226.831 1377.3615,226.365 1377.569,226.183 C1377.777,226.0005 1378.3715,225.476 1377.662,224.772 C1375.707,222.8305 1375.029,220.8135 1374.848,219.202 C1375.2615,220.451 1375.9015,221.7405 1376.6765,222.425 C1377.6825,223.3125 1378.346,223.7325 1379.352,223.3695 C1380.043,223.1195 1380.108,222.1095 1380.763,221.5315 C1381.419,220.9525 1382.564,220.895 1382.846,220.2845 C1383.257,219.3975 1382.781,218.8125 1381.7755,217.926 " fill="#77B255" style="stroke:;stroke-width:0.0;stroke-dasharray:;"/><text fill="#000000" font-family="sans-serif" font-size="12" lengthAdjust="spacing" textLength="114" x="1386.5" y="225.0703">spirallinux.list.chroot</text><line style="stroke:#181818;stroke-width:1.5;" x1="1345.5" x2="1355.5" y1="272.75" y2="272.75"/><rect fill="#F1F1F1" height="39.5" style="stroke:#181818;stroke-width:1.5;" width="149" x="1355.5" y="253"/><path d="M1381.7755,272.426 C1380.729,271.502 1378.4325,270.794 1376.6865,270.506 C1378.4325,270.2175 1380.729,269.5095 1381.7755,268.5865 C1382.7825,267.6985 1383.257,267.1125 1382.846,266.2255 C1382.563,265.616 1381.419,265.559 1380.763,264.98 C1380.107,264.401 1380.0415,263.3915 1379.35,263.1425 C1378.345,262.7795 1377.682,263.1995 1376.6765,264.087 C1375.6295,265.0105 1374.8275,267.0365 1374.5,268.577 C1374.1735,267.036 1373.371,265.01 1372.3245,264.0865 C1371.317,263.1985 1370.654,262.7795 1369.6485,263.1425 C1368.957,263.3925 1368.8925,264.4015 1368.237,264.98 C1367.5815,265.5585 1366.436,265.617 1366.154,266.227 C1365.7425,267.114 1366.2185,267.6985 1367.224,268.586 C1368.271,269.5095 1370.568,270.2175 1372.3145,270.506 C1370.568,270.7945 1368.271,271.5025 1367.224,272.426 C1366.2175,273.3135 1365.7425,273.8985 1366.1545,274.7865 C1366.437,275.396 1367.5815,275.4535 1368.2375,276.0315 C1368.893,276.6105 1368.9595,277.6205 1369.651,277.8695 C1370.6555,278.233 1371.319,277.812 1372.325,276.925 C1373.1505,276.1965 1373.8235,274.781 1374.232,273.4585 C1374.101,275.726 1374.496,278.754 1376.158,280.5895 C1376.83,281.331 1377.3615,280.865 1377.569,280.683 C1377.777,280.5005 1378.3715,279.976 1377.662,279.272 C1375.707,277.3305 1375.029,275.3135 1374.848,273.702 C1375.2615,274.951 1375.9015,276.2405 1376.6765,276.925 C1377.6825,277.8125 1378.346,278.2325 1379.352,277.8695 C1380.043,277.6195 1380.108,276.6095 1380.763,276.0315 C1381.419,275.4525 1382.564,275.395 1382.846,274.7845 C1383.257,273.8975 1382.781,273.3125 1381.7755,272.426 " fill="#77B255" style="stroke:;stroke-width:0.0;stroke-dasharray:;"/><text fill="#000000" font-family="sans-serif" font-size="12" lengthAdjust="spacing" textLength="108" x="1386.5" y="279.5703">fasttrack.key.chroot</text><line style="stroke:#181818;stroke-width:1.5;" x1="1345.5" x2="1345.5" y1="129" y2="272.75"/><line style="stroke:#181818;stroke-width:1.5;" x1="1572" x2="1572" y1="69.5" y2="89.5"/><rect fill="#F1F1F1" height="39.5" style="stroke:#181818;stroke-width:1.5;" width="83" x="1530.5" y="89.5"/><path d="M1551.489,109.712 C1551.462,109.31 1551.4205,108.921 1551.3655,108.5495 C1551.299,108.1045 1551.216,107.6855 1551.123,107.293 C1551.0375,106.9315 1550.945,106.5945 1550.849,106.2845 C1550.705,105.819 1550.557,105.4155 1550.423,105.0845 C1550.1595,104.435 1549.9515,104.063 1549.9515,104.063 L1548.145,104.296 C1548.3535,104.731 1548.3535,104.731 1548.579,105.5835 C1548.6705,105.9295 1548.7645,106.3455 1548.849,106.831 C1548.892,107.076 1548.932,107.337 1548.968,107.6175 C1549.018,108.008 1549.0595,108.4335 1549.089,108.892 C1549.106,109.151 1549.118,109.421 1549.126,109.7015 C1549.129,109.8035 1549.1335,109.902 1549.135,110.007 C1549.14,110.335 1549.117,110.6685 1549.076,111.0015 C1549.039,111.3015 1548.985,111.6 1548.9205,111.896 C1548.828,112.32 1548.714,112.7365 1548.5855,113.1335 C1548.4815,113.455 1548.37,113.764 1548.258,114.0535 C1548.086,114.499 1547.913,114.8995 1547.7635,115.233 C1547.5125,115.7925 1547.328,116.1645 1547.328,116.242 C1547.328,116.487 1547.503,116.946 1548.7265,117.252 C1550.64,117.73 1550.8245,116.9415 1550.8245,116.9415 C1550.8245,116.9415 1550.946,116.5725 1551.0875,115.8455 C1551.1575,115.4865 1551.232,115.043 1551.2995,114.5065 C1551.34,114.1855 1551.3775,113.8325 1551.4105,113.4485 C1551.4445,113.0485 1551.473,112.615 1551.493,112.146 C1551.508,111.791 1551.5165,111.411 1551.5205,111.0165 C1551.5215,110.8935 1551.5245,110.7745 1551.5245,110.648 C1551.5245,110.328 1551.5095,110.0175 1551.489,109.712 " fill="#C1694F" style="stroke:;stroke-width:0.0;stroke-dasharray:;"/><path d="M1549.653,114.534 C1548.9515,114.412 1548.504,114.2075 1548.2585,114.0545 C1548.0865,114.5 1547.9135,114.9005 1547.764,115.234 C1548.222,115.4835 1548.8035,115.6815 1549.4345,115.791 C1549.799,115.8545 1550.1605,115.8865 1550.5,115.8865 C1550.707,115.8865 1550.9015,115.87 1551.088,115.8465 C1551.158,115.4875 1551.2325,115.044 1551.3,114.5075 C1551.078,114.586 1550.526,114.686 1549.653,114.534 M1550.183,112.1975 C1549.6365,112.1435 1549.216,112.0235 1548.9205,111.8965 C1548.828,112.3205 1548.714,112.737 1548.5855,113.134 C1549.0175,113.297 1549.526,113.4145 1550.058,113.467 C1550.2725,113.488 1550.4855,113.499 1550.693,113.499 C1550.944,113.499 1551.182,113.4795 1551.4105,113.4495 C1551.4445,113.0495 1551.473,112.616 1551.493,112.147 C1551.179,112.2145 1550.7385,112.252 1550.183,112.1975 M1550.3375,111.131 C1550.7485,111.131 1551.1525,111.0895 1551.5205,111.017 C1551.5215,110.894 1551.5245,110.775 1551.5245,110.6485 C1551.5245,110.328 1551.51,110.0175 1551.489,109.712 C1551.2245,109.781 1550.8465,109.848 1550.313,109.855 C1549.771,109.8525 1549.3895,109.7775 1549.126,109.702 C1549.129,109.804 1549.1335,109.9025 1549.135,110.0075 C1549.14,110.3355 1549.117,110.669 1549.076,111.002 C1549.4575,111.0825 1549.8785,111.1285 1550.3065,111.1305 L1550.3375,111.131 M1550.213,108.8425 C1550.6255,108.783 1551.008,108.676 1551.365,108.55 C1551.2985,108.105 1551.2155,107.686 1551.1225,107.2935 C1550.8745,107.3955 1550.523,107.509 1550.032,107.5795 C1549.577,107.6455 1549.2295,107.6415 1548.9675,107.618 C1549.0175,108.0085 1549.059,108.434 1549.0885,108.8925 C1549.1645,108.8955 1549.2335,108.907 1549.3115,108.907 C1549.6055,108.9075 1549.9115,108.8855 1550.213,108.8425 M1550.8485,106.2845 C1550.7045,105.819 1550.5565,105.4155 1550.4225,105.0845 C1550.201,105.1955 1549.9205,105.3125 1549.554,105.414 C1549.1565,105.5245 1548.8355,105.5685 1548.5785,105.5835 C1548.67,105.9295 1548.764,106.3455 1548.8485,106.831 C1549.189,106.797 1549.54,106.7415 1549.8955,106.643 C1550.235,106.549 1550.5505,106.423 1550.8485,106.2845 " fill="#D99E82" style="stroke:;stroke-width:0.0;stroke-dasharray:;"/><path d="M1556.805,101.6525 C1556.783,101.622 1554.565,98.6555 1551.688,99.9575 C1550.3975,100.541 1549.5645,101.4945 1549.2625,102.725 C1548.7,101.941 1547.845,101.4425 1546.716,101.241 C1543.6165,100.688 1541.7535,104.125 1541.735,104.16 C1541.708,104.211 1541.7195,104.2745 1541.763,104.3125 C1541.8065,104.3505 1541.8715,104.353 1541.9185,104.32 C1541.9325,104.31 1543.3415,103.3235 1545.69,103.7415 C1548.0905,104.1685 1549.7735,104.5885 1549.7905,104.5925 C1549.8005,104.595 1549.811,104.596 1549.821,104.596 C1549.8555,104.596 1549.889,104.582 1549.913,104.556 C1549.929,104.5385 1551.523,102.826 1552.9895,102.1625 C1555.159,101.182 1556.6385,101.833 1556.6525,101.8395 C1556.7045,101.8625 1556.766,101.8485 1556.8015,101.8045 C1556.8375,101.761 1556.839,101.698 1556.805,101.6525 " fill="#3E721D" style="stroke:;stroke-width:0.0;stroke-dasharray:;"/><path d="M1554.442,103.315 C1552.2395,102.151 1550.5175,102.7185 1549.4445,103.425 C1548.157,103.1815 1545.7775,103.1955 1543.7625,105.7785 C1541.271,108.972 1543.4535,112.9495 1543.476,112.9895 C1543.5095,113.049 1543.5725,113.085 1543.6395,113.085 C1543.647,113.085 1543.655,113.0845 1543.6625,113.0835 C1543.738,113.074 1543.8005,113.02 1543.8205,112.9465 C1543.828,112.9195 1544.584,110.1865 1546.4955,107.8875 C1547.5325,106.6395 1548.7705,105.4845 1549.6495,104.7175 C1550.5305,104.8665 1551.813,105.191 1553.0725,105.8945 C1555.5515,107.281 1556.6895,109.6275 1556.701,109.651 C1556.735,109.723 1556.8065,109.764 1556.8905,109.757 C1556.9695,109.748 1557.035,109.6905 1557.053,109.6135 C1557.063,109.5695 1558.037,105.2135 1554.442,103.315 " fill="#5C913B" style="stroke:;stroke-width:0.0;stroke-dasharray:;"/><text fill="#000000" font-family="sans-serif" font-size="12" lengthAdjust="spacing" textLength="42" x="1561.5" y="116.0703">preseed</text><line style="stroke:#181818;stroke-width:1.5;" x1="1572" x2="1582" y1="163.75" y2="163.75"/><rect fill="#F1F1F1" height="39.5" style="stroke:#181818;stroke-width:1.5;" width="141" x="1582" y="144"/><path d="M1608.2755,163.426 C1607.229,162.502 1604.9325,161.794 1603.1865,161.506 C1604.9325,161.2175 1607.229,160.5095 1608.2755,159.5865 C1609.2825,158.6985 1609.757,158.1125 1609.346,157.2255 C1609.063,156.616 1607.919,156.559 1607.263,155.98 C1606.607,155.401 1606.5415,154.3915 1605.85,154.1425 C1604.845,153.7795 1604.182,154.1995 1603.1765,155.087 C1602.1295,156.0105 1601.3275,158.0365 1601,159.577 C1600.6735,158.036 1599.871,156.01 1598.8245,155.0865 C1597.817,154.1985 1597.154,153.7795 1596.1485,154.1425 C1595.457,154.3925 1595.3925,155.4015 1594.737,155.98 C1594.0815,156.5585 1592.936,156.617 1592.654,157.227 C1592.2425,158.114 1592.7185,158.6985 1593.724,159.586 C1594.771,160.5095 1597.068,161.2175 1598.8145,161.506 C1597.068,161.7945 1594.771,162.5025 1593.724,163.426 C1592.7175,164.3135 1592.2425,164.8985 1592.6545,165.7865 C1592.937,166.396 1594.0815,166.4535 1594.7375,167.0315 C1595.393,167.6105 1595.4595,168.6205 1596.151,168.8695 C1597.1555,169.233 1597.819,168.812 1598.825,167.925 C1599.6505,167.1965 1600.3235,165.781 1600.732,164.4585 C1600.601,166.726 1600.996,169.754 1602.658,171.5895 C1603.33,172.331 1603.8615,171.865 1604.069,171.683 C1604.277,171.5005 1604.8715,170.976 1604.162,170.272 C1602.207,168.3305 1601.529,166.3135 1601.348,164.702 C1601.7615,165.951 1602.4015,167.2405 1603.1765,167.925 C1604.1825,168.8125 1604.846,169.2325 1605.852,168.8695 C1606.543,168.6195 1606.608,167.6095 1607.263,167.0315 C1607.919,166.4525 1609.064,166.395 1609.346,165.7845 C1609.757,164.8975 1609.281,164.3125 1608.2755,163.426 " fill="#77B255" style="stroke:;stroke-width:0.0;stroke-dasharray:;"/><text fill="#000000" font-family="sans-serif" font-size="12" lengthAdjust="spacing" textLength="100" x="1613" y="170.5703">preseed.cfg.chroot</text><line style="stroke:#181818;stroke-width:1.5;" x1="1572" x2="1572" y1="129" y2="163.75"/><line style="stroke:#181818;stroke-width:1.5;" x1="72.5" x2="1572" y1="69.5" y2="69.5"/><rect fill="#F1F1F1" height="39.5" style="stroke:#181818;stroke-width:1.5;" width="75" x="784.75" y="10"/><path d="M805.739,30.212 C805.712,29.81 805.6705,29.421 805.6155,29.0495 C805.549,28.6045 805.466,28.1855 805.373,27.793 C805.2875,27.4315 805.195,27.0945 805.099,26.7845 C804.955,26.319 804.807,25.9155 804.673,25.5845 C804.4095,24.935 804.2015,24.563 804.2015,24.563 L802.395,24.796 C802.6035,25.231 802.6035,25.231 802.829,26.0835 C802.9205,26.4295 803.0145,26.8455 803.099,27.331 C803.142,27.576 803.182,27.837 803.218,28.1175 C803.268,28.508 803.3095,28.9335 803.339,29.392 C803.356,29.651 803.368,29.921 803.376,30.2015 C803.379,30.3035 803.3835,30.402 803.385,30.507 C803.39,30.835 803.367,31.1685 803.326,31.5015 C803.289,31.8015 803.235,32.1 803.1705,32.396 C803.078,32.82 802.964,33.2365 802.8355,33.6335 C802.7315,33.955 802.62,34.264 802.508,34.5535 C802.336,34.999 802.163,35.3995 802.0135,35.733 C801.7625,36.2925 801.578,36.6645 801.578,36.742 C801.578,36.987 801.753,37.446 802.9765,37.752 C804.89,38.23 805.0745,37.4415 805.0745,37.4415 C805.0745,37.4415 805.196,37.0725 805.3375,36.3455 C805.4075,35.9865 805.482,35.543 805.5495,35.0065 C805.59,34.6855 805.6275,34.3325 805.6605,33.9485 C805.6945,33.5485 805.723,33.115 805.743,32.646 C805.758,32.291 805.7665,31.911 805.7705,31.5165 C805.7715,31.3935 805.7745,31.2745 805.7745,31.148 C805.7745,30.828 805.7595,30.5175 805.739,30.212 " fill="#C1694F" style="stroke:;stroke-width:0.0;stroke-dasharray:;"/><path d="M803.903,35.034 C803.2015,34.912 802.754,34.7075 802.5085,34.5545 C802.3365,35 802.1635,35.4005 802.014,35.734 C802.472,35.9835 803.0535,36.1815 803.6845,36.291 C804.049,36.3545 804.4105,36.3865 804.75,36.3865 C804.957,36.3865 805.1515,36.37 805.338,36.3465 C805.408,35.9875 805.4825,35.544 805.55,35.0075 C805.328,35.086 804.776,35.186 803.903,35.034 M804.433,32.6975 C803.8865,32.6435 803.466,32.5235 803.1705,32.3965 C803.078,32.8205 802.964,33.237 802.8355,33.634 C803.2675,33.797 803.776,33.9145 804.308,33.967 C804.5225,33.988 804.7355,33.999 804.943,33.999 C805.194,33.999 805.432,33.9795 805.6605,33.9495 C805.6945,33.5495 805.723,33.116 805.743,32.647 C805.429,32.7145 804.9885,32.752 804.433,32.6975 M804.5875,31.631 C804.9985,31.631 805.4025,31.5895 805.7705,31.517 C805.7715,31.394 805.7745,31.275 805.7745,31.1485 C805.7745,30.828 805.76,30.5175 805.739,30.212 C805.4745,30.281 805.0965,30.348 804.563,30.355 C804.021,30.3525 803.6395,30.2775 803.376,30.202 C803.379,30.304 803.3835,30.4025 803.385,30.5075 C803.39,30.8355 803.367,31.169 803.326,31.502 C803.7075,31.5825 804.1285,31.6285 804.5565,31.6305 L804.5875,31.631 M804.463,29.3425 C804.8755,29.283 805.258,29.176 805.615,29.05 C805.5485,28.605 805.4655,28.186 805.3725,27.7935 C805.1245,27.8955 804.773,28.009 804.282,28.0795 C803.827,28.1455 803.4795,28.1415 803.2175,28.118 C803.2675,28.5085 803.309,28.934 803.3385,29.3925 C803.4145,29.3955 803.4835,29.407 803.5615,29.407 C803.8555,29.4075 804.1615,29.3855 804.463,29.3425 M805.0985,26.7845 C804.9545,26.319 804.8065,25.9155 804.6725,25.5845 C804.451,25.6955 804.1705,25.8125 803.804,25.914 C803.4065,26.0245 803.0855,26.0685 802.8285,26.0835 C802.92,26.4295 803.014,26.8455 803.0985,27.331 C803.439,27.297 803.79,27.2415 804.1455,27.143 C804.485,27.049 804.8005,26.923 805.0985,26.7845 " fill="#D99E82" style="stroke:;stroke-width:0.0;stroke-dasharray:;"/><path d="M811.055,22.1525 C811.033,22.122 808.815,19.1555 805.938,20.4575 C804.6475,21.041 803.8145,21.9945 803.5125,23.225 C802.95,22.441 802.095,21.9425 800.966,21.741 C797.8665,21.188 796.0035,24.625 795.985,24.66 C795.958,24.711 795.9695,24.7745 796.013,24.8125 C796.0565,24.8505 796.1215,24.853 796.1685,24.82 C796.1825,24.81 797.5915,23.8235 799.94,24.2415 C802.3405,24.6685 804.0235,25.0885 804.0405,25.0925 C804.0505,25.095 804.061,25.096 804.071,25.096 C804.1055,25.096 804.139,25.082 804.163,25.056 C804.179,25.0385 805.773,23.326 807.2395,22.6625 C809.409,21.682 810.8885,22.333 810.9025,22.3395 C810.9545,22.3625 811.016,22.3485 811.0515,22.3045 C811.0875,22.261 811.089,22.198 811.055,22.1525 " fill="#3E721D" style="stroke:;stroke-width:0.0;stroke-dasharray:;"/><path d="M808.692,23.815 C806.4895,22.651 804.7675,23.2185 803.6945,23.925 C802.407,23.6815 800.0275,23.6955 798.0125,26.2785 C795.521,29.472 797.7035,33.4495 797.726,33.4895 C797.7595,33.549 797.8225,33.585 797.8895,33.585 C797.897,33.585 797.905,33.5845 797.9125,33.5835 C797.988,33.574 798.0505,33.52 798.0705,33.4465 C798.078,33.4195 798.834,30.6865 800.7455,28.3875 C801.7825,27.1395 803.0205,25.9845 803.8995,25.2175 C804.7805,25.3665 806.063,25.691 807.3225,26.3945 C809.8015,27.781 810.9395,30.1275 810.951,30.151 C810.985,30.223 811.0565,30.264 811.1405,30.257 C811.2195,30.248 811.285,30.1905 811.303,30.1135 C811.313,30.0695 812.287,25.7135 808.692,23.815 " fill="#5C913B" style="stroke:;stroke-width:0.0;stroke-dasharray:;"/><text fill="#000000" font-family="sans-serif" font-size="12" lengthAdjust="spacing" textLength="34" x="815.75" y="36.5703">config</text><line style="stroke:#181818;stroke-width:1.5;" x1="822.25" x2="822.25" y1="49.5" y2="69.5"/><!--SRC=[bPJRJjj048Rl_HHx2KXh9Kw0ngegsePMJPCMaO9w5utNOsULzQwrXq3UlcF0IWW9SYyzC_ytn_MLys3zG-QYw8nzJ6jGrS9RnFGJ4qONiepEzkrI2nLoTB5OMcFysu2ChCf0ZjQHyutS6ILrU6nSZQymmIuKGh4GogpHxeJ4eYWF44eRCbwB5h3hKdADt2-nmdVmZVu5lIUlGQoWH7VKmvLqlktg0DhLqe9wAfxVA70Ly9OPDzAZCriQipeqBMri1UgTPdh3onuFTGuUUTwiZETPtD2sgOvAHxqU5sIp76hF1OWbTfQEHdodsQwoONBU5klGEMaqhq3JUAW4vT5gyBJ1hhJ1-RPrB20eJrIxbW8TfxlsmNMkYqYe8LF8Ay98i6BPLKjZv1Oh-kH1Fu3sc6-N_fgnjzmc2xNRxPwUxoUJ6kpcFmJR-WyB2d3UMoetNk7cQAMrHOUO7yUy13JFgeL4LwZpfpyBlGJjxsPJHh7Dpba_Jdh98Buy-MObcy66zHFM7wJ981qcx7hyXpNkq-Xa-lrcoXnb4yXowiRAB7W2d4OJM0Ex3ThB2bFskqOz6Vzi3UnQhwKrkaBjeydzR1jmCUHVf6TpkXAqx7uMZP_lXXJ2v5ANAVlyQ_vZyNSG3tb_TF4Xce8k0wqoPQYZhuOIs4tAxkR_0000]--></g></svg>