<?xml version="1.0" encoding="us-ascii" standalone="no"?><svg xmlns="http://www.w3.org/2000/svg" xmlns:xlink="http://www.w3.org/1999/xlink" contentStyleType="text/css" height="521px" preserveAspectRatio="none" style="width:762px;height:521px;background:#FFFFFF;" version="1.1" viewBox="0 0 762 521" width="762px" zoomAndPan="magnify"><defs/><g><line style="stroke:#181818;stroke-width:1.5;" x1="47.5" x2="47.5" y1="69.5" y2="89.5"/><rect fill="#F1F1F1" height="39.5" style="stroke:#181818;stroke-width:1.5;" width="75" x="10" y="89.5"/><path d="M30.989,109.712 C30.962,109.31 30.9205,108.921 30.8655,108.5495 C30.799,108.1045 30.716,107.6855 30.623,107.293 C30.5375,106.9315 30.445,106.5945 30.349,106.2845 C30.205,105.819 30.057,105.4155 29.923,105.0845 C29.6595,104.435 29.4515,104.063 29.4515,104.063 L27.645,104.296 C27.8535,104.731 27.8535,104.731 28.079,105.5835 C28.1705,105.9295 28.2645,106.3455 28.349,106.831 C28.392,107.076 28.432,107.337 28.468,107.6175 C28.518,108.008 28.5595,108.4335 28.589,108.892 C28.606,109.151 28.618,109.421 28.626,109.7015 C28.629,109.8035 28.6335,109.902 28.635,110.007 C28.64,110.335 28.617,110.6685 28.576,111.0015 C28.539,111.3015 28.485,111.6 28.4205,111.896 C28.328,112.32 28.214,112.7365 28.0855,113.1335 C27.9815,113.455 27.87,113.764 27.758,114.0535 C27.586,114.499 27.413,114.8995 27.2635,115.233 C27.0125,115.7925 26.828,116.1645 26.828,116.242 C26.828,116.487 27.003,116.946 28.2265,117.252 C30.14,117.73 30.3245,116.9415 30.3245,116.9415 C30.3245,116.9415 30.446,116.5725 30.5875,115.8455 C30.6575,115.4865 30.732,115.043 30.7995,114.5065 C30.84,114.1855 30.8775,113.8325 30.9105,113.4485 C30.9445,113.0485 30.973,112.615 30.993,112.146 C31.008,111.791 31.0165,111.411 31.0205,111.0165 C31.0215,110.8935 31.0245,110.7745 31.0245,110.648 C31.0245,110.328 31.0095,110.0175 30.989,109.712 " fill="#C1694F" style="stroke:;stroke-width:0.0;stroke-dasharray:;"/><path d="M29.153,114.534 C28.4515,114.412 28.004,114.2075 27.7585,114.0545 C27.5865,114.5 27.4135,114.9005 27.264,115.234 C27.722,115.4835 28.3035,115.6815 28.9345,115.791 C29.299,115.8545 29.6605,115.8865 30,115.8865 C30.207,115.8865 30.4015,115.87 30.588,115.8465 C30.658,115.4875 30.7325,115.044 30.8,114.5075 C30.578,114.586 30.026,114.686 29.153,114.534 M29.683,112.1975 C29.1365,112.1435 28.716,112.0235 28.4205,111.8965 C28.328,112.3205 28.214,112.737 28.0855,113.134 C28.5175,113.297 29.026,113.4145 29.558,113.467 C29.7725,113.488 29.9855,113.499 30.193,113.499 C30.444,113.499 30.682,113.4795 30.9105,113.4495 C30.9445,113.0495 30.973,112.616 30.993,112.147 C30.679,112.2145 30.2385,112.252 29.683,112.1975 M29.8375,111.131 C30.2485,111.131 30.6525,111.0895 31.0205,111.017 C31.0215,110.894 31.0245,110.775 31.0245,110.6485 C31.0245,110.328 31.01,110.0175 30.989,109.712 C30.7245,109.781 30.3465,109.848 29.813,109.855 C29.271,109.8525 28.8895,109.7775 28.626,109.702 C28.629,109.804 28.6335,109.9025 28.635,110.0075 C28.64,110.3355 28.617,110.669 28.576,111.002 C28.9575,111.0825 29.3785,111.1285 29.8065,111.1305 L29.8375,111.131 M29.713,108.8425 C30.1255,108.783 30.508,108.676 30.865,108.55 C30.7985,108.105 30.7155,107.686 30.6225,107.2935 C30.3745,107.3955 30.023,107.509 29.532,107.5795 C29.077,107.6455 28.7295,107.6415 28.4675,107.618 C28.5175,108.0085 28.559,108.434 28.5885,108.8925 C28.6645,108.8955 28.7335,108.907 28.8115,108.907 C29.1055,108.9075 29.4115,108.8855 29.713,108.8425 M30.3485,106.2845 C30.2045,105.819 30.0565,105.4155 29.9225,105.0845 C29.701,105.1955 29.4205,105.3125 29.054,105.414 C28.6565,105.5245 28.3355,105.5685 28.0785,105.5835 C28.17,105.9295 28.264,106.3455 28.3485,106.831 C28.689,106.797 29.04,106.7415 29.3955,106.643 C29.735,106.549 30.0505,106.423 30.3485,106.2845 " fill="#D99E82" style="stroke:;stroke-width:0.0;stroke-dasharray:;"/><path d="M36.305,101.6525 C36.283,101.622 34.065,98.6555 31.188,99.9575 C29.8975,100.541 29.0645,101.4945 28.7625,102.725 C28.2,101.941 27.345,101.4425 26.216,101.241 C23.1165,100.688 21.2535,104.125 21.235,104.16 C21.208,104.211 21.2195,104.2745 21.263,104.3125 C21.3065,104.3505 21.3715,104.353 21.4185,104.32 C21.4325,104.31 22.8415,103.3235 25.19,103.7415 C27.5905,104.1685 29.2735,104.5885 29.2905,104.5925 C29.3005,104.595 29.311,104.596 29.321,104.596 C29.3555,104.596 29.389,104.582 29.413,104.556 C29.429,104.5385 31.023,102.826 32.4895,102.1625 C34.659,101.182 36.1385,101.833 36.1525,101.8395 C36.2045,101.8625 36.266,101.8485 36.3015,101.8045 C36.3375,101.761 36.339,101.698 36.305,101.6525 " fill="#3E721D" style="stroke:;stroke-width:0.0;stroke-dasharray:;"/><path d="M33.942,103.315 C31.7395,102.151 30.0175,102.7185 28.9445,103.425 C27.657,103.1815 25.2775,103.1955 23.2625,105.7785 C20.771,108.972 22.9535,112.9495 22.976,112.9895 C23.0095,113.049 23.0725,113.085 23.1395,113.085 C23.147,113.085 23.155,113.0845 23.1625,113.0835 C23.238,113.074 23.3005,113.02 23.3205,112.9465 C23.328,112.9195 24.084,110.1865 25.9955,107.8875 C27.0325,106.6395 28.2705,105.4845 29.1495,104.7175 C30.0305,104.8665 31.313,105.191 32.5725,105.8945 C35.0515,107.281 36.1895,109.6275 36.201,109.651 C36.235,109.723 36.3065,109.764 36.3905,109.757 C36.4695,109.748 36.535,109.6905 36.553,109.6135 C36.563,109.5695 37.537,105.2135 33.942,103.315 " fill="#5C913B" style="stroke:;stroke-width:0.0;stroke-dasharray:;"/><text fill="#000000" font-family="sans-serif" font-size="12" lengthAdjust="spacing" textLength="34" x="41" y="116.0703">config</text><line style="stroke:#181818;stroke-width:1.5;" x1="47.5" x2="57.5" y1="163.75" y2="163.75"/><rect fill="#F1F1F1" height="39.5" style="stroke:#181818;stroke-width:1.5;" width="125" x="57.5" y="144"/><path d="M78.489,164.212 C78.462,163.81 78.4205,163.421 78.3655,163.0495 C78.299,162.6045 78.216,162.1855 78.123,161.793 C78.0375,161.4315 77.945,161.0945 77.849,160.7845 C77.705,160.319 77.557,159.9155 77.423,159.5845 C77.1595,158.935 76.9515,158.563 76.9515,158.563 L75.145,158.796 C75.3535,159.231 75.3535,159.231 75.579,160.0835 C75.6705,160.4295 75.7645,160.8455 75.849,161.331 C75.892,161.576 75.932,161.837 75.968,162.1175 C76.018,162.508 76.0595,162.9335 76.089,163.392 C76.106,163.651 76.118,163.921 76.126,164.2015 C76.129,164.3035 76.1335,164.402 76.135,164.507 C76.14,164.835 76.117,165.1685 76.076,165.5015 C76.039,165.8015 75.985,166.1 75.9205,166.396 C75.828,166.82 75.714,167.2365 75.5855,167.6335 C75.4815,167.955 75.37,168.264 75.258,168.5535 C75.086,168.999 74.913,169.3995 74.7635,169.733 C74.5125,170.2925 74.328,170.6645 74.328,170.742 C74.328,170.987 74.503,171.446 75.7265,171.752 C77.64,172.23 77.8245,171.4415 77.8245,171.4415 C77.8245,171.4415 77.946,171.0725 78.0875,170.3455 C78.1575,169.9865 78.232,169.543 78.2995,169.0065 C78.34,168.6855 78.3775,168.3325 78.4105,167.9485 C78.4445,167.5485 78.473,167.115 78.493,166.646 C78.508,166.291 78.5165,165.911 78.5205,165.5165 C78.5215,165.3935 78.5245,165.2745 78.5245,165.148 C78.5245,164.828 78.5095,164.5175 78.489,164.212 " fill="#C1694F" style="stroke:;stroke-width:0.0;stroke-dasharray:;"/><path d="M76.653,169.034 C75.9515,168.912 75.504,168.7075 75.2585,168.5545 C75.0865,169 74.9135,169.4005 74.764,169.734 C75.222,169.9835 75.8035,170.1815 76.4345,170.291 C76.799,170.3545 77.1605,170.3865 77.5,170.3865 C77.707,170.3865 77.9015,170.37 78.088,170.3465 C78.158,169.9875 78.2325,169.544 78.3,169.0075 C78.078,169.086 77.526,169.186 76.653,169.034 M77.183,166.6975 C76.6365,166.6435 76.216,166.5235 75.9205,166.3965 C75.828,166.8205 75.714,167.237 75.5855,167.634 C76.0175,167.797 76.526,167.9145 77.058,167.967 C77.2725,167.988 77.4855,167.999 77.693,167.999 C77.944,167.999 78.182,167.9795 78.4105,167.9495 C78.4445,167.5495 78.473,167.116 78.493,166.647 C78.179,166.7145 77.7385,166.752 77.183,166.6975 M77.3375,165.631 C77.7485,165.631 78.1525,165.5895 78.5205,165.517 C78.5215,165.394 78.5245,165.275 78.5245,165.1485 C78.5245,164.828 78.51,164.5175 78.489,164.212 C78.2245,164.281 77.8465,164.348 77.313,164.355 C76.771,164.3525 76.3895,164.2775 76.126,164.202 C76.129,164.304 76.1335,164.4025 76.135,164.5075 C76.14,164.8355 76.117,165.169 76.076,165.502 C76.4575,165.5825 76.8785,165.6285 77.3065,165.6305 L77.3375,165.631 M77.213,163.3425 C77.6255,163.283 78.008,163.176 78.365,163.05 C78.2985,162.605 78.2155,162.186 78.1225,161.7935 C77.8745,161.8955 77.523,162.009 77.032,162.0795 C76.577,162.1455 76.2295,162.1415 75.9675,162.118 C76.0175,162.5085 76.059,162.934 76.0885,163.3925 C76.1645,163.3955 76.2335,163.407 76.3115,163.407 C76.6055,163.4075 76.9115,163.3855 77.213,163.3425 M77.8485,160.7845 C77.7045,160.319 77.5565,159.9155 77.4225,159.5845 C77.201,159.6955 76.9205,159.8125 76.554,159.914 C76.1565,160.0245 75.8355,160.0685 75.5785,160.0835 C75.67,160.4295 75.764,160.8455 75.8485,161.331 C76.189,161.297 76.54,161.2415 76.8955,161.143 C77.235,161.049 77.5505,160.923 77.8485,160.7845 " fill="#D99E82" style="stroke:;stroke-width:0.0;stroke-dasharray:;"/><path d="M83.805,156.1525 C83.783,156.122 81.565,153.1555 78.688,154.4575 C77.3975,155.041 76.5645,155.9945 76.2625,157.225 C75.7,156.441 74.845,155.9425 73.716,155.741 C70.6165,155.188 68.7535,158.625 68.735,158.66 C68.708,158.711 68.7195,158.7745 68.763,158.8125 C68.8065,158.8505 68.8715,158.853 68.9185,158.82 C68.9325,158.81 70.3415,157.8235 72.69,158.2415 C75.0905,158.6685 76.7735,159.0885 76.7905,159.0925 C76.8005,159.095 76.811,159.096 76.821,159.096 C76.8555,159.096 76.889,159.082 76.913,159.056 C76.929,159.0385 78.523,157.326 79.9895,156.6625 C82.159,155.682 83.6385,156.333 83.6525,156.3395 C83.7045,156.3625 83.766,156.3485 83.8015,156.3045 C83.8375,156.261 83.839,156.198 83.805,156.1525 " fill="#3E721D" style="stroke:;stroke-width:0.0;stroke-dasharray:;"/><path d="M81.442,157.815 C79.2395,156.651 77.5175,157.2185 76.4445,157.925 C75.157,157.6815 72.7775,157.6955 70.7625,160.2785 C68.271,163.472 70.4535,167.4495 70.476,167.4895 C70.5095,167.549 70.5725,167.585 70.6395,167.585 C70.647,167.585 70.655,167.5845 70.6625,167.5835 C70.738,167.574 70.8005,167.52 70.8205,167.4465 C70.828,167.4195 71.584,164.6865 73.4955,162.3875 C74.5325,161.1395 75.7705,159.9845 76.6495,159.2175 C77.5305,159.3665 78.813,159.691 80.0725,160.3945 C82.5515,161.781 83.6895,164.1275 83.701,164.151 C83.735,164.223 83.8065,164.264 83.8905,164.257 C83.9695,164.248 84.035,164.1905 84.053,164.1135 C84.063,164.0695 85.037,159.7135 81.442,157.815 " fill="#5C913B" style="stroke:;stroke-width:0.0;stroke-dasharray:;"/><text fill="#000000" font-family="sans-serif" font-size="12" lengthAdjust="spacing" textLength="84" x="88.5" y="170.5703">includes.chroot</text><line style="stroke:#181818;stroke-width:1.5;" x1="47.5" x2="57.5" y1="218.25" y2="218.25"/><rect fill="#F1F1F1" height="39.5" style="stroke:#181818;stroke-width:1.5;" width="106" x="57.5" y="198.5"/><path d="M78.489,218.712 C78.462,218.31 78.4205,217.921 78.3655,217.5495 C78.299,217.1045 78.216,216.6855 78.123,216.293 C78.0375,215.9315 77.945,215.5945 77.849,215.2845 C77.705,214.819 77.557,214.4155 77.423,214.0845 C77.1595,213.435 76.9515,213.063 76.9515,213.063 L75.145,213.296 C75.3535,213.731 75.3535,213.731 75.579,214.5835 C75.6705,214.9295 75.7645,215.3455 75.849,215.831 C75.892,216.076 75.932,216.337 75.968,216.6175 C76.018,217.008 76.0595,217.4335 76.089,217.892 C76.106,218.151 76.118,218.421 76.126,218.7015 C76.129,218.8035 76.1335,218.902 76.135,219.007 C76.14,219.335 76.117,219.6685 76.076,220.0015 C76.039,220.3015 75.985,220.6 75.9205,220.896 C75.828,221.32 75.714,221.7365 75.5855,222.1335 C75.4815,222.455 75.37,222.764 75.258,223.0535 C75.086,223.499 74.913,223.8995 74.7635,224.233 C74.5125,224.7925 74.328,225.1645 74.328,225.242 C74.328,225.487 74.503,225.946 75.7265,226.252 C77.64,226.73 77.8245,225.9415 77.8245,225.9415 C77.8245,225.9415 77.946,225.5725 78.0875,224.8455 C78.1575,224.4865 78.232,224.043 78.2995,223.5065 C78.34,223.1855 78.3775,222.8325 78.4105,222.4485 C78.4445,222.0485 78.473,221.615 78.493,221.146 C78.508,220.791 78.5165,220.411 78.5205,220.0165 C78.5215,219.8935 78.5245,219.7745 78.5245,219.648 C78.5245,219.328 78.5095,219.0175 78.489,218.712 " fill="#C1694F" style="stroke:;stroke-width:0.0;stroke-dasharray:;"/><path d="M76.653,223.534 C75.9515,223.412 75.504,223.2075 75.2585,223.0545 C75.0865,223.5 74.9135,223.9005 74.764,224.234 C75.222,224.4835 75.8035,224.6815 76.4345,224.791 C76.799,224.8545 77.1605,224.8865 77.5,224.8865 C77.707,224.8865 77.9015,224.87 78.088,224.8465 C78.158,224.4875 78.2325,224.044 78.3,223.5075 C78.078,223.586 77.526,223.686 76.653,223.534 M77.183,221.1975 C76.6365,221.1435 76.216,221.0235 75.9205,220.8965 C75.828,221.3205 75.714,221.737 75.5855,222.134 C76.0175,222.297 76.526,222.4145 77.058,222.467 C77.2725,222.488 77.4855,222.499 77.693,222.499 C77.944,222.499 78.182,222.4795 78.4105,222.4495 C78.4445,222.0495 78.473,221.616 78.493,221.147 C78.179,221.2145 77.7385,221.252 77.183,221.1975 M77.3375,220.131 C77.7485,220.131 78.1525,220.0895 78.5205,220.017 C78.5215,219.894 78.5245,219.775 78.5245,219.6485 C78.5245,219.328 78.51,219.0175 78.489,218.712 C78.2245,218.781 77.8465,218.848 77.313,218.855 C76.771,218.8525 76.3895,218.7775 76.126,218.702 C76.129,218.804 76.1335,218.9025 76.135,219.0075 C76.14,219.3355 76.117,219.669 76.076,220.002 C76.4575,220.0825 76.8785,220.1285 77.3065,220.1305 L77.3375,220.131 M77.213,217.8425 C77.6255,217.783 78.008,217.676 78.365,217.55 C78.2985,217.105 78.2155,216.686 78.1225,216.2935 C77.8745,216.3955 77.523,216.509 77.032,216.5795 C76.577,216.6455 76.2295,216.6415 75.9675,216.618 C76.0175,217.0085 76.059,217.434 76.0885,217.8925 C76.1645,217.8955 76.2335,217.907 76.3115,217.907 C76.6055,217.9075 76.9115,217.8855 77.213,217.8425 M77.8485,215.2845 C77.7045,214.819 77.5565,214.4155 77.4225,214.0845 C77.201,214.1955 76.9205,214.3125 76.554,214.414 C76.1565,214.5245 75.8355,214.5685 75.5785,214.5835 C75.67,214.9295 75.764,215.3455 75.8485,215.831 C76.189,215.797 76.54,215.7415 76.8955,215.643 C77.235,215.549 77.5505,215.423 77.8485,215.2845 " fill="#D99E82" style="stroke:;stroke-width:0.0;stroke-dasharray:;"/><path d="M83.805,210.6525 C83.783,210.622 81.565,207.6555 78.688,208.9575 C77.3975,209.541 76.5645,210.4945 76.2625,211.725 C75.7,210.941 74.845,210.4425 73.716,210.241 C70.6165,209.688 68.7535,213.125 68.735,213.16 C68.708,213.211 68.7195,213.2745 68.763,213.3125 C68.8065,213.3505 68.8715,213.353 68.9185,213.32 C68.9325,213.31 70.3415,212.3235 72.69,212.7415 C75.0905,213.1685 76.7735,213.5885 76.7905,213.5925 C76.8005,213.595 76.811,213.596 76.821,213.596 C76.8555,213.596 76.889,213.582 76.913,213.556 C76.929,213.5385 78.523,211.826 79.9895,211.1625 C82.159,210.182 83.6385,210.833 83.6525,210.8395 C83.7045,210.8625 83.766,210.8485 83.8015,210.8045 C83.8375,210.761 83.839,210.698 83.805,210.6525 " fill="#3E721D" style="stroke:;stroke-width:0.0;stroke-dasharray:;"/><path d="M81.442,212.315 C79.2395,211.151 77.5175,211.7185 76.4445,212.425 C75.157,212.1815 72.7775,212.1955 70.7625,214.7785 C68.271,217.972 70.4535,221.9495 70.476,221.9895 C70.5095,222.049 70.5725,222.085 70.6395,222.085 C70.647,222.085 70.655,222.0845 70.6625,222.0835 C70.738,222.074 70.8005,222.02 70.8205,221.9465 C70.828,221.9195 71.584,219.1865 73.4955,216.8875 C74.5325,215.6395 75.7705,214.4845 76.6495,213.7175 C77.5305,213.8665 78.813,214.191 80.0725,214.8945 C82.5515,216.281 83.6895,218.6275 83.701,218.651 C83.735,218.723 83.8065,218.764 83.8905,218.757 C83.9695,218.748 84.035,218.6905 84.053,218.6135 C84.063,218.5695 85.037,214.2135 81.442,212.315 " fill="#5C913B" style="stroke:;stroke-width:0.0;stroke-dasharray:;"/><text fill="#000000" font-family="sans-serif" font-size="12" lengthAdjust="spacing" textLength="65" x="88.5" y="225.0703">bootloaders</text><line style="stroke:#181818;stroke-width:1.5;" x1="47.5" x2="57.5" y1="272.75" y2="272.75"/><rect fill="#F1F1F1" height="39.5" style="stroke:#181818;stroke-width:1.5;" width="93" x="57.5" y="253"/><path d="M78.489,273.212 C78.462,272.81 78.4205,272.421 78.3655,272.0495 C78.299,271.6045 78.216,271.1855 78.123,270.793 C78.0375,270.4315 77.945,270.0945 77.849,269.7845 C77.705,269.319 77.557,268.9155 77.423,268.5845 C77.1595,267.935 76.9515,267.563 76.9515,267.563 L75.145,267.796 C75.3535,268.231 75.3535,268.231 75.579,269.0835 C75.6705,269.4295 75.7645,269.8455 75.849,270.331 C75.892,270.576 75.932,270.837 75.968,271.1175 C76.018,271.508 76.0595,271.9335 76.089,272.392 C76.106,272.651 76.118,272.921 76.126,273.2015 C76.129,273.3035 76.1335,273.402 76.135,273.507 C76.14,273.835 76.117,274.1685 76.076,274.5015 C76.039,274.8015 75.985,275.1 75.9205,275.396 C75.828,275.82 75.714,276.2365 75.5855,276.6335 C75.4815,276.955 75.37,277.264 75.258,277.5535 C75.086,277.999 74.913,278.3995 74.7635,278.733 C74.5125,279.2925 74.328,279.6645 74.328,279.742 C74.328,279.987 74.503,280.446 75.7265,280.752 C77.64,281.23 77.8245,280.4415 77.8245,280.4415 C77.8245,280.4415 77.946,280.0725 78.0875,279.3455 C78.1575,278.9865 78.232,278.543 78.2995,278.0065 C78.34,277.6855 78.3775,277.3325 78.4105,276.9485 C78.4445,276.5485 78.473,276.115 78.493,275.646 C78.508,275.291 78.5165,274.911 78.5205,274.5165 C78.5215,274.3935 78.5245,274.2745 78.5245,274.148 C78.5245,273.828 78.5095,273.5175 78.489,273.212 " fill="#C1694F" style="stroke:;stroke-width:0.0;stroke-dasharray:;"/><path d="M76.653,278.034 C75.9515,277.912 75.504,277.7075 75.2585,277.5545 C75.0865,278 74.9135,278.4005 74.764,278.734 C75.222,278.9835 75.8035,279.1815 76.4345,279.291 C76.799,279.3545 77.1605,279.3865 77.5,279.3865 C77.707,279.3865 77.9015,279.37 78.088,279.3465 C78.158,278.9875 78.2325,278.544 78.3,278.0075 C78.078,278.086 77.526,278.186 76.653,278.034 M77.183,275.6975 C76.6365,275.6435 76.216,275.5235 75.9205,275.3965 C75.828,275.8205 75.714,276.237 75.5855,276.634 C76.0175,276.797 76.526,276.9145 77.058,276.967 C77.2725,276.988 77.4855,276.999 77.693,276.999 C77.944,276.999 78.182,276.9795 78.4105,276.9495 C78.4445,276.5495 78.473,276.116 78.493,275.647 C78.179,275.7145 77.7385,275.752 77.183,275.6975 M77.3375,274.631 C77.7485,274.631 78.1525,274.5895 78.5205,274.517 C78.5215,274.394 78.5245,274.275 78.5245,274.1485 C78.5245,273.828 78.51,273.5175 78.489,273.212 C78.2245,273.281 77.8465,273.348 77.313,273.355 C76.771,273.3525 76.3895,273.2775 76.126,273.202 C76.129,273.304 76.1335,273.4025 76.135,273.5075 C76.14,273.8355 76.117,274.169 76.076,274.502 C76.4575,274.5825 76.8785,274.6285 77.3065,274.6305 L77.3375,274.631 M77.213,272.3425 C77.6255,272.283 78.008,272.176 78.365,272.05 C78.2985,271.605 78.2155,271.186 78.1225,270.7935 C77.8745,270.8955 77.523,271.009 77.032,271.0795 C76.577,271.1455 76.2295,271.1415 75.9675,271.118 C76.0175,271.5085 76.059,271.934 76.0885,272.3925 C76.1645,272.3955 76.2335,272.407 76.3115,272.407 C76.6055,272.4075 76.9115,272.3855 77.213,272.3425 M77.8485,269.7845 C77.7045,269.319 77.5565,268.9155 77.4225,268.5845 C77.201,268.6955 76.9205,268.8125 76.554,268.914 C76.1565,269.0245 75.8355,269.0685 75.5785,269.0835 C75.67,269.4295 75.764,269.8455 75.8485,270.331 C76.189,270.297 76.54,270.2415 76.8955,270.143 C77.235,270.049 77.5505,269.923 77.8485,269.7845 " fill="#D99E82" style="stroke:;stroke-width:0.0;stroke-dasharray:;"/><path d="M83.805,265.1525 C83.783,265.122 81.565,262.1555 78.688,263.4575 C77.3975,264.041 76.5645,264.9945 76.2625,266.225 C75.7,265.441 74.845,264.9425 73.716,264.741 C70.6165,264.188 68.7535,267.625 68.735,267.66 C68.708,267.711 68.7195,267.7745 68.763,267.8125 C68.8065,267.8505 68.8715,267.853 68.9185,267.82 C68.9325,267.81 70.3415,266.8235 72.69,267.2415 C75.0905,267.6685 76.7735,268.0885 76.7905,268.0925 C76.8005,268.095 76.811,268.096 76.821,268.096 C76.8555,268.096 76.889,268.082 76.913,268.056 C76.929,268.0385 78.523,266.326 79.9895,265.6625 C82.159,264.682 83.6385,265.333 83.6525,265.3395 C83.7045,265.3625 83.766,265.3485 83.8015,265.3045 C83.8375,265.261 83.839,265.198 83.805,265.1525 " fill="#3E721D" style="stroke:;stroke-width:0.0;stroke-dasharray:;"/><path d="M81.442,266.815 C79.2395,265.651 77.5175,266.2185 76.4445,266.925 C75.157,266.6815 72.7775,266.6955 70.7625,269.2785 C68.271,272.472 70.4535,276.4495 70.476,276.4895 C70.5095,276.549 70.5725,276.585 70.6395,276.585 C70.647,276.585 70.655,276.5845 70.6625,276.5835 C70.738,276.574 70.8005,276.52 70.8205,276.4465 C70.828,276.4195 71.584,273.6865 73.4955,271.3875 C74.5325,270.1395 75.7705,268.9845 76.6495,268.2175 C77.5305,268.3665 78.813,268.691 80.0725,269.3945 C82.5515,270.781 83.6895,273.1275 83.701,273.151 C83.735,273.223 83.8065,273.264 83.8905,273.257 C83.9695,273.248 84.035,273.1905 84.053,273.1135 C84.063,273.0695 85.037,268.7135 81.442,266.815 " fill="#5C913B" style="stroke:;stroke-width:0.0;stroke-dasharray:;"/><text fill="#000000" font-family="sans-serif" font-size="12" lengthAdjust="spacing" textLength="52" x="88.5" y="279.5703">packages</text><line style="stroke:#181818;stroke-width:1.5;" x1="47.5" x2="57.5" y1="327.25" y2="327.25"/><rect fill="#F1F1F1" height="39.5" style="stroke:#181818;stroke-width:1.5;" width="113" x="57.5" y="307.5"/><path d="M78.489,327.712 C78.462,327.31 78.4205,326.921 78.3655,326.5495 C78.299,326.1045 78.216,325.6855 78.123,325.293 C78.0375,324.9315 77.945,324.5945 77.849,324.2845 C77.705,323.819 77.557,323.4155 77.423,323.0845 C77.1595,322.435 76.9515,322.063 76.9515,322.063 L75.145,322.296 C75.3535,322.731 75.3535,322.731 75.579,323.5835 C75.6705,323.9295 75.7645,324.3455 75.849,324.831 C75.892,325.076 75.932,325.337 75.968,325.6175 C76.018,326.008 76.0595,326.4335 76.089,326.892 C76.106,327.151 76.118,327.421 76.126,327.7015 C76.129,327.8035 76.1335,327.902 76.135,328.007 C76.14,328.335 76.117,328.6685 76.076,329.0015 C76.039,329.3015 75.985,329.6 75.9205,329.896 C75.828,330.32 75.714,330.7365 75.5855,331.1335 C75.4815,331.455 75.37,331.764 75.258,332.0535 C75.086,332.499 74.913,332.8995 74.7635,333.233 C74.5125,333.7925 74.328,334.1645 74.328,334.242 C74.328,334.487 74.503,334.946 75.7265,335.252 C77.64,335.73 77.8245,334.9415 77.8245,334.9415 C77.8245,334.9415 77.946,334.5725 78.0875,333.8455 C78.1575,333.4865 78.232,333.043 78.2995,332.5065 C78.34,332.1855 78.3775,331.8325 78.4105,331.4485 C78.4445,331.0485 78.473,330.615 78.493,330.146 C78.508,329.791 78.5165,329.411 78.5205,329.0165 C78.5215,328.8935 78.5245,328.7745 78.5245,328.648 C78.5245,328.328 78.5095,328.0175 78.489,327.712 " fill="#C1694F" style="stroke:;stroke-width:0.0;stroke-dasharray:;"/><path d="M76.653,332.534 C75.9515,332.412 75.504,332.2075 75.2585,332.0545 C75.0865,332.5 74.9135,332.9005 74.764,333.234 C75.222,333.4835 75.8035,333.6815 76.4345,333.791 C76.799,333.8545 77.1605,333.8865 77.5,333.8865 C77.707,333.8865 77.9015,333.87 78.088,333.8465 C78.158,333.4875 78.2325,333.044 78.3,332.5075 C78.078,332.586 77.526,332.686 76.653,332.534 M77.183,330.1975 C76.6365,330.1435 76.216,330.0235 75.9205,329.8965 C75.828,330.3205 75.714,330.737 75.5855,331.134 C76.0175,331.297 76.526,331.4145 77.058,331.467 C77.2725,331.488 77.4855,331.499 77.693,331.499 C77.944,331.499 78.182,331.4795 78.4105,331.4495 C78.4445,331.0495 78.473,330.616 78.493,330.147 C78.179,330.2145 77.7385,330.252 77.183,330.1975 M77.3375,329.131 C77.7485,329.131 78.1525,329.0895 78.5205,329.017 C78.5215,328.894 78.5245,328.775 78.5245,328.6485 C78.5245,328.328 78.51,328.0175 78.489,327.712 C78.2245,327.781 77.8465,327.848 77.313,327.855 C76.771,327.8525 76.3895,327.7775 76.126,327.702 C76.129,327.804 76.1335,327.9025 76.135,328.0075 C76.14,328.3355 76.117,328.669 76.076,329.002 C76.4575,329.0825 76.8785,329.1285 77.3065,329.1305 L77.3375,329.131 M77.213,326.8425 C77.6255,326.783 78.008,326.676 78.365,326.55 C78.2985,326.105 78.2155,325.686 78.1225,325.2935 C77.8745,325.3955 77.523,325.509 77.032,325.5795 C76.577,325.6455 76.2295,325.6415 75.9675,325.618 C76.0175,326.0085 76.059,326.434 76.0885,326.8925 C76.1645,326.8955 76.2335,326.907 76.3115,326.907 C76.6055,326.9075 76.9115,326.8855 77.213,326.8425 M77.8485,324.2845 C77.7045,323.819 77.5565,323.4155 77.4225,323.0845 C77.201,323.1955 76.9205,323.3125 76.554,323.414 C76.1565,323.5245 75.8355,323.5685 75.5785,323.5835 C75.67,323.9295 75.764,324.3455 75.8485,324.831 C76.189,324.797 76.54,324.7415 76.8955,324.643 C77.235,324.549 77.5505,324.423 77.8485,324.2845 " fill="#D99E82" style="stroke:;stroke-width:0.0;stroke-dasharray:;"/><path d="M83.805,319.6525 C83.783,319.622 81.565,316.6555 78.688,317.9575 C77.3975,318.541 76.5645,319.4945 76.2625,320.725 C75.7,319.941 74.845,319.4425 73.716,319.241 C70.6165,318.688 68.7535,322.125 68.735,322.16 C68.708,322.211 68.7195,322.2745 68.763,322.3125 C68.8065,322.3505 68.8715,322.353 68.9185,322.32 C68.9325,322.31 70.3415,321.3235 72.69,321.7415 C75.0905,322.1685 76.7735,322.5885 76.7905,322.5925 C76.8005,322.595 76.811,322.596 76.821,322.596 C76.8555,322.596 76.889,322.582 76.913,322.556 C76.929,322.5385 78.523,320.826 79.9895,320.1625 C82.159,319.182 83.6385,319.833 83.6525,319.8395 C83.7045,319.8625 83.766,319.8485 83.8015,319.8045 C83.8375,319.761 83.839,319.698 83.805,319.6525 " fill="#3E721D" style="stroke:;stroke-width:0.0;stroke-dasharray:;"/><path d="M81.442,321.315 C79.2395,320.151 77.5175,320.7185 76.4445,321.425 C75.157,321.1815 72.7775,321.1955 70.7625,323.7785 C68.271,326.972 70.4535,330.9495 70.476,330.9895 C70.5095,331.049 70.5725,331.085 70.6395,331.085 C70.647,331.085 70.655,331.0845 70.6625,331.0835 C70.738,331.074 70.8005,331.02 70.8205,330.9465 C70.828,330.9195 71.584,328.1865 73.4955,325.8875 C74.5325,324.6395 75.7705,323.4845 76.6495,322.7175 C77.5305,322.8665 78.813,323.191 80.0725,323.8945 C82.5515,325.281 83.6895,327.6275 83.701,327.651 C83.735,327.723 83.8065,327.764 83.8905,327.757 C83.9695,327.748 84.035,327.6905 84.053,327.6135 C84.063,327.5695 85.037,323.2135 81.442,321.315 " fill="#5C913B" style="stroke:;stroke-width:0.0;stroke-dasharray:;"/><text fill="#000000" font-family="sans-serif" font-size="12" lengthAdjust="spacing" textLength="72" x="88.5" y="334.0703">package-lists</text><line style="stroke:#181818;stroke-width:1.5;" x1="47.5" x2="57.5" y1="381.75" y2="381.75"/><rect fill="#F1F1F1" height="39.5" style="stroke:#181818;stroke-width:1.5;" width="75" x="57.5" y="362"/><path d="M78.489,382.212 C78.462,381.81 78.4205,381.421 78.3655,381.0495 C78.299,380.6045 78.216,380.1855 78.123,379.793 C78.0375,379.4315 77.945,379.0945 77.849,378.7845 C77.705,378.319 77.557,377.9155 77.423,377.5845 C77.1595,376.935 76.9515,376.563 76.9515,376.563 L75.145,376.796 C75.3535,377.231 75.3535,377.231 75.579,378.0835 C75.6705,378.4295 75.7645,378.8455 75.849,379.331 C75.892,379.576 75.932,379.837 75.968,380.1175 C76.018,380.508 76.0595,380.9335 76.089,381.392 C76.106,381.651 76.118,381.921 76.126,382.2015 C76.129,382.3035 76.1335,382.402 76.135,382.507 C76.14,382.835 76.117,383.1685 76.076,383.5015 C76.039,383.8015 75.985,384.1 75.9205,384.396 C75.828,384.82 75.714,385.2365 75.5855,385.6335 C75.4815,385.955 75.37,386.264 75.258,386.5535 C75.086,386.999 74.913,387.3995 74.7635,387.733 C74.5125,388.2925 74.328,388.6645 74.328,388.742 C74.328,388.987 74.503,389.446 75.7265,389.752 C77.64,390.23 77.8245,389.4415 77.8245,389.4415 C77.8245,389.4415 77.946,389.0725 78.0875,388.3455 C78.1575,387.9865 78.232,387.543 78.2995,387.0065 C78.34,386.6855 78.3775,386.3325 78.4105,385.9485 C78.4445,385.5485 78.473,385.115 78.493,384.646 C78.508,384.291 78.5165,383.911 78.5205,383.5165 C78.5215,383.3935 78.5245,383.2745 78.5245,383.148 C78.5245,382.828 78.5095,382.5175 78.489,382.212 " fill="#C1694F" style="stroke:;stroke-width:0.0;stroke-dasharray:;"/><path d="M76.653,387.034 C75.9515,386.912 75.504,386.7075 75.2585,386.5545 C75.0865,387 74.9135,387.4005 74.764,387.734 C75.222,387.9835 75.8035,388.1815 76.4345,388.291 C76.799,388.3545 77.1605,388.3865 77.5,388.3865 C77.707,388.3865 77.9015,388.37 78.088,388.3465 C78.158,387.9875 78.2325,387.544 78.3,387.0075 C78.078,387.086 77.526,387.186 76.653,387.034 M77.183,384.6975 C76.6365,384.6435 76.216,384.5235 75.9205,384.3965 C75.828,384.8205 75.714,385.237 75.5855,385.634 C76.0175,385.797 76.526,385.9145 77.058,385.967 C77.2725,385.988 77.4855,385.999 77.693,385.999 C77.944,385.999 78.182,385.9795 78.4105,385.9495 C78.4445,385.5495 78.473,385.116 78.493,384.647 C78.179,384.7145 77.7385,384.752 77.183,384.6975 M77.3375,383.631 C77.7485,383.631 78.1525,383.5895 78.5205,383.517 C78.5215,383.394 78.5245,383.275 78.5245,383.1485 C78.5245,382.828 78.51,382.5175 78.489,382.212 C78.2245,382.281 77.8465,382.348 77.313,382.355 C76.771,382.3525 76.3895,382.2775 76.126,382.202 C76.129,382.304 76.1335,382.4025 76.135,382.5075 C76.14,382.8355 76.117,383.169 76.076,383.502 C76.4575,383.5825 76.8785,383.6285 77.3065,383.6305 L77.3375,383.631 M77.213,381.3425 C77.6255,381.283 78.008,381.176 78.365,381.05 C78.2985,380.605 78.2155,380.186 78.1225,379.7935 C77.8745,379.8955 77.523,380.009 77.032,380.0795 C76.577,380.1455 76.2295,380.1415 75.9675,380.118 C76.0175,380.5085 76.059,380.934 76.0885,381.3925 C76.1645,381.3955 76.2335,381.407 76.3115,381.407 C76.6055,381.4075 76.9115,381.3855 77.213,381.3425 M77.8485,378.7845 C77.7045,378.319 77.5565,377.9155 77.4225,377.5845 C77.201,377.6955 76.9205,377.8125 76.554,377.914 C76.1565,378.0245 75.8355,378.0685 75.5785,378.0835 C75.67,378.4295 75.764,378.8455 75.8485,379.331 C76.189,379.297 76.54,379.2415 76.8955,379.143 C77.235,379.049 77.5505,378.923 77.8485,378.7845 " fill="#D99E82" style="stroke:;stroke-width:0.0;stroke-dasharray:;"/><path d="M83.805,374.1525 C83.783,374.122 81.565,371.1555 78.688,372.4575 C77.3975,373.041 76.5645,373.9945 76.2625,375.225 C75.7,374.441 74.845,373.9425 73.716,373.741 C70.6165,373.188 68.7535,376.625 68.735,376.66 C68.708,376.711 68.7195,376.7745 68.763,376.8125 C68.8065,376.8505 68.8715,376.853 68.9185,376.82 C68.9325,376.81 70.3415,375.8235 72.69,376.2415 C75.0905,376.6685 76.7735,377.0885 76.7905,377.0925 C76.8005,377.095 76.811,377.096 76.821,377.096 C76.8555,377.096 76.889,377.082 76.913,377.056 C76.929,377.0385 78.523,375.326 79.9895,374.6625 C82.159,373.682 83.6385,374.333 83.6525,374.3395 C83.7045,374.3625 83.766,374.3485 83.8015,374.3045 C83.8375,374.261 83.839,374.198 83.805,374.1525 " fill="#3E721D" style="stroke:;stroke-width:0.0;stroke-dasharray:;"/><path d="M81.442,375.815 C79.2395,374.651 77.5175,375.2185 76.4445,375.925 C75.157,375.6815 72.7775,375.6955 70.7625,378.2785 C68.271,381.472 70.4535,385.4495 70.476,385.4895 C70.5095,385.549 70.5725,385.585 70.6395,385.585 C70.647,385.585 70.655,385.5845 70.6625,385.5835 C70.738,385.574 70.8005,385.52 70.8205,385.4465 C70.828,385.4195 71.584,382.6865 73.4955,380.3875 C74.5325,379.1395 75.7705,377.9845 76.6495,377.2175 C77.5305,377.3665 78.813,377.691 80.0725,378.3945 C82.5515,379.781 83.6895,382.1275 83.701,382.151 C83.735,382.223 83.8065,382.264 83.8905,382.257 C83.9695,382.248 84.035,382.1905 84.053,382.1135 C84.063,382.0695 85.037,377.7135 81.442,375.815 " fill="#5C913B" style="stroke:;stroke-width:0.0;stroke-dasharray:;"/><text fill="#000000" font-family="sans-serif" font-size="12" lengthAdjust="spacing" textLength="34" x="88.5" y="388.5703">hooks</text><line style="stroke:#181818;stroke-width:1.5;" x1="47.5" x2="57.5" y1="436.25" y2="436.25"/><rect fill="#F1F1F1" height="39.5" style="stroke:#181818;stroke-width:1.5;" width="87" x="57.5" y="416.5"/><path d="M78.489,436.712 C78.462,436.31 78.4205,435.921 78.3655,435.5495 C78.299,435.1045 78.216,434.6855 78.123,434.293 C78.0375,433.9315 77.945,433.5945 77.849,433.2845 C77.705,432.819 77.557,432.4155 77.423,432.0845 C77.1595,431.435 76.9515,431.063 76.9515,431.063 L75.145,431.296 C75.3535,431.731 75.3535,431.731 75.579,432.5835 C75.6705,432.9295 75.7645,433.3455 75.849,433.831 C75.892,434.076 75.932,434.337 75.968,434.6175 C76.018,435.008 76.0595,435.4335 76.089,435.892 C76.106,436.151 76.118,436.421 76.126,436.7015 C76.129,436.8035 76.1335,436.902 76.135,437.007 C76.14,437.335 76.117,437.6685 76.076,438.0015 C76.039,438.3015 75.985,438.6 75.9205,438.896 C75.828,439.32 75.714,439.7365 75.5855,440.1335 C75.4815,440.455 75.37,440.764 75.258,441.0535 C75.086,441.499 74.913,441.8995 74.7635,442.233 C74.5125,442.7925 74.328,443.1645 74.328,443.242 C74.328,443.487 74.503,443.946 75.7265,444.252 C77.64,444.73 77.8245,443.9415 77.8245,443.9415 C77.8245,443.9415 77.946,443.5725 78.0875,442.8455 C78.1575,442.4865 78.232,442.043 78.2995,441.5065 C78.34,441.1855 78.3775,440.8325 78.4105,440.4485 C78.4445,440.0485 78.473,439.615 78.493,439.146 C78.508,438.791 78.5165,438.411 78.5205,438.0165 C78.5215,437.8935 78.5245,437.7745 78.5245,437.648 C78.5245,437.328 78.5095,437.0175 78.489,436.712 " fill="#C1694F" style="stroke:;stroke-width:0.0;stroke-dasharray:;"/><path d="M76.653,441.534 C75.9515,441.412 75.504,441.2075 75.2585,441.0545 C75.0865,441.5 74.9135,441.9005 74.764,442.234 C75.222,442.4835 75.8035,442.6815 76.4345,442.791 C76.799,442.8545 77.1605,442.8865 77.5,442.8865 C77.707,442.8865 77.9015,442.87 78.088,442.8465 C78.158,442.4875 78.2325,442.044 78.3,441.5075 C78.078,441.586 77.526,441.686 76.653,441.534 M77.183,439.1975 C76.6365,439.1435 76.216,439.0235 75.9205,438.8965 C75.828,439.3205 75.714,439.737 75.5855,440.134 C76.0175,440.297 76.526,440.4145 77.058,440.467 C77.2725,440.488 77.4855,440.499 77.693,440.499 C77.944,440.499 78.182,440.4795 78.4105,440.4495 C78.4445,440.0495 78.473,439.616 78.493,439.147 C78.179,439.2145 77.7385,439.252 77.183,439.1975 M77.3375,438.131 C77.7485,438.131 78.1525,438.0895 78.5205,438.017 C78.5215,437.894 78.5245,437.775 78.5245,437.6485 C78.5245,437.328 78.51,437.0175 78.489,436.712 C78.2245,436.781 77.8465,436.848 77.313,436.855 C76.771,436.8525 76.3895,436.7775 76.126,436.702 C76.129,436.804 76.1335,436.9025 76.135,437.0075 C76.14,437.3355 76.117,437.669 76.076,438.002 C76.4575,438.0825 76.8785,438.1285 77.3065,438.1305 L77.3375,438.131 M77.213,435.8425 C77.6255,435.783 78.008,435.676 78.365,435.55 C78.2985,435.105 78.2155,434.686 78.1225,434.2935 C77.8745,434.3955 77.523,434.509 77.032,434.5795 C76.577,434.6455 76.2295,434.6415 75.9675,434.618 C76.0175,435.0085 76.059,435.434 76.0885,435.8925 C76.1645,435.8955 76.2335,435.907 76.3115,435.907 C76.6055,435.9075 76.9115,435.8855 77.213,435.8425 M77.8485,433.2845 C77.7045,432.819 77.5565,432.4155 77.4225,432.0845 C77.201,432.1955 76.9205,432.3125 76.554,432.414 C76.1565,432.5245 75.8355,432.5685 75.5785,432.5835 C75.67,432.9295 75.764,433.3455 75.8485,433.831 C76.189,433.797 76.54,433.7415 76.8955,433.643 C77.235,433.549 77.5505,433.423 77.8485,433.2845 " fill="#D99E82" style="stroke:;stroke-width:0.0;stroke-dasharray:;"/><path d="M83.805,428.6525 C83.783,428.622 81.565,425.6555 78.688,426.9575 C77.3975,427.541 76.5645,428.4945 76.2625,429.725 C75.7,428.941 74.845,428.4425 73.716,428.241 C70.6165,427.688 68.7535,431.125 68.735,431.16 C68.708,431.211 68.7195,431.2745 68.763,431.3125 C68.8065,431.3505 68.8715,431.353 68.9185,431.32 C68.9325,431.31 70.3415,430.3235 72.69,430.7415 C75.0905,431.1685 76.7735,431.5885 76.7905,431.5925 C76.8005,431.595 76.811,431.596 76.821,431.596 C76.8555,431.596 76.889,431.582 76.913,431.556 C76.929,431.5385 78.523,429.826 79.9895,429.1625 C82.159,428.182 83.6385,428.833 83.6525,428.8395 C83.7045,428.8625 83.766,428.8485 83.8015,428.8045 C83.8375,428.761 83.839,428.698 83.805,428.6525 " fill="#3E721D" style="stroke:;stroke-width:0.0;stroke-dasharray:;"/><path d="M81.442,430.315 C79.2395,429.151 77.5175,429.7185 76.4445,430.425 C75.157,430.1815 72.7775,430.1955 70.7625,432.7785 C68.271,435.972 70.4535,439.9495 70.476,439.9895 C70.5095,440.049 70.5725,440.085 70.6395,440.085 C70.647,440.085 70.655,440.0845 70.6625,440.0835 C70.738,440.074 70.8005,440.02 70.8205,439.9465 C70.828,439.9195 71.584,437.1865 73.4955,434.8875 C74.5325,433.6395 75.7705,432.4845 76.6495,431.7175 C77.5305,431.8665 78.813,432.191 80.0725,432.8945 C82.5515,434.281 83.6895,436.6275 83.701,436.651 C83.735,436.723 83.8065,436.764 83.8905,436.757 C83.9695,436.748 84.035,436.6905 84.053,436.6135 C84.063,436.5695 85.037,432.2135 81.442,430.315 " fill="#5C913B" style="stroke:;stroke-width:0.0;stroke-dasharray:;"/><text fill="#000000" font-family="sans-serif" font-size="12" lengthAdjust="spacing" textLength="46" x="88.5" y="443.0703">archives</text><line style="stroke:#181818;stroke-width:1.5;" x1="47.5" x2="57.5" y1="490.75" y2="490.75"/><rect fill="#F1F1F1" height="39.5" style="stroke:#181818;stroke-width:1.5;" width="83" x="57.5" y="471"/><path d="M78.489,491.212 C78.462,490.81 78.4205,490.421 78.3655,490.0495 C78.299,489.6045 78.216,489.1855 78.123,488.793 C78.0375,488.4315 77.945,488.0945 77.849,487.7845 C77.705,487.319 77.557,486.9155 77.423,486.5845 C77.1595,485.935 76.9515,485.563 76.9515,485.563 L75.145,485.796 C75.3535,486.231 75.3535,486.231 75.579,487.0835 C75.6705,487.4295 75.7645,487.8455 75.849,488.331 C75.892,488.576 75.932,488.837 75.968,489.1175 C76.018,489.508 76.0595,489.9335 76.089,490.392 C76.106,490.651 76.118,490.921 76.126,491.2015 C76.129,491.3035 76.1335,491.402 76.135,491.507 C76.14,491.835 76.117,492.1685 76.076,492.5015 C76.039,492.8015 75.985,493.1 75.9205,493.396 C75.828,493.82 75.714,494.2365 75.5855,494.6335 C75.4815,494.955 75.37,495.264 75.258,495.5535 C75.086,495.999 74.913,496.3995 74.7635,496.733 C74.5125,497.2925 74.328,497.6645 74.328,497.742 C74.328,497.987 74.503,498.446 75.7265,498.752 C77.64,499.23 77.8245,498.4415 77.8245,498.4415 C77.8245,498.4415 77.946,498.0725 78.0875,497.3455 C78.1575,496.9865 78.232,496.543 78.2995,496.0065 C78.34,495.6855 78.3775,495.3325 78.4105,494.9485 C78.4445,494.5485 78.473,494.115 78.493,493.646 C78.508,493.291 78.5165,492.911 78.5205,492.5165 C78.5215,492.3935 78.5245,492.2745 78.5245,492.148 C78.5245,491.828 78.5095,491.5175 78.489,491.212 " fill="#C1694F" style="stroke:;stroke-width:0.0;stroke-dasharray:;"/><path d="M76.653,496.034 C75.9515,495.912 75.504,495.7075 75.2585,495.5545 C75.0865,496 74.9135,496.4005 74.764,496.734 C75.222,496.9835 75.8035,497.1815 76.4345,497.291 C76.799,497.3545 77.1605,497.3865 77.5,497.3865 C77.707,497.3865 77.9015,497.37 78.088,497.3465 C78.158,496.9875 78.2325,496.544 78.3,496.0075 C78.078,496.086 77.526,496.186 76.653,496.034 M77.183,493.6975 C76.6365,493.6435 76.216,493.5235 75.9205,493.3965 C75.828,493.8205 75.714,494.237 75.5855,494.634 C76.0175,494.797 76.526,494.9145 77.058,494.967 C77.2725,494.988 77.4855,494.999 77.693,494.999 C77.944,494.999 78.182,494.9795 78.4105,494.9495 C78.4445,494.5495 78.473,494.116 78.493,493.647 C78.179,493.7145 77.7385,493.752 77.183,493.6975 M77.3375,492.631 C77.7485,492.631 78.1525,492.5895 78.5205,492.517 C78.5215,492.394 78.5245,492.275 78.5245,492.1485 C78.5245,491.828 78.51,491.5175 78.489,491.212 C78.2245,491.281 77.8465,491.348 77.313,491.355 C76.771,491.3525 76.3895,491.2775 76.126,491.202 C76.129,491.304 76.1335,491.4025 76.135,491.5075 C76.14,491.8355 76.117,492.169 76.076,492.502 C76.4575,492.5825 76.8785,492.6285 77.3065,492.6305 L77.3375,492.631 M77.213,490.3425 C77.6255,490.283 78.008,490.176 78.365,490.05 C78.2985,489.605 78.2155,489.186 78.1225,488.7935 C77.8745,488.8955 77.523,489.009 77.032,489.0795 C76.577,489.1455 76.2295,489.1415 75.9675,489.118 C76.0175,489.5085 76.059,489.934 76.0885,490.3925 C76.1645,490.3955 76.2335,490.407 76.3115,490.407 C76.6055,490.4075 76.9115,490.3855 77.213,490.3425 M77.8485,487.7845 C77.7045,487.319 77.5565,486.9155 77.4225,486.5845 C77.201,486.6955 76.9205,486.8125 76.554,486.914 C76.1565,487.0245 75.8355,487.0685 75.5785,487.0835 C75.67,487.4295 75.764,487.8455 75.8485,488.331 C76.189,488.297 76.54,488.2415 76.8955,488.143 C77.235,488.049 77.5505,487.923 77.8485,487.7845 " fill="#D99E82" style="stroke:;stroke-width:0.0;stroke-dasharray:;"/><path d="M83.805,483.1525 C83.783,483.122 81.565,480.1555 78.688,481.4575 C77.3975,482.041 76.5645,482.9945 76.2625,484.225 C75.7,483.441 74.845,482.9425 73.716,482.741 C70.6165,482.188 68.7535,485.625 68.735,485.66 C68.708,485.711 68.7195,485.7745 68.763,485.8125 C68.8065,485.8505 68.8715,485.853 68.9185,485.82 C68.9325,485.81 70.3415,484.8235 72.69,485.2415 C75.0905,485.6685 76.7735,486.0885 76.7905,486.0925 C76.8005,486.095 76.811,486.096 76.821,486.096 C76.8555,486.096 76.889,486.082 76.913,486.056 C76.929,486.0385 78.523,484.326 79.9895,483.6625 C82.159,482.682 83.6385,483.333 83.6525,483.3395 C83.7045,483.3625 83.766,483.3485 83.8015,483.3045 C83.8375,483.261 83.839,483.198 83.805,483.1525 " fill="#3E721D" style="stroke:;stroke-width:0.0;stroke-dasharray:;"/><path d="M81.442,484.815 C79.2395,483.651 77.5175,484.2185 76.4445,484.925 C75.157,484.6815 72.7775,484.6955 70.7625,487.2785 C68.271,490.472 70.4535,494.4495 70.476,494.4895 C70.5095,494.549 70.5725,494.585 70.6395,494.585 C70.647,494.585 70.655,494.5845 70.6625,494.5835 C70.738,494.574 70.8005,494.52 70.8205,494.4465 C70.828,494.4195 71.584,491.6865 73.4955,489.3875 C74.5325,488.1395 75.7705,486.9845 76.6495,486.2175 C77.5305,486.3665 78.813,486.691 80.0725,487.3945 C82.5515,488.781 83.6895,491.1275 83.701,491.151 C83.735,491.223 83.8065,491.264 83.8905,491.257 C83.9695,491.248 84.035,491.1905 84.053,491.1135 C84.063,491.0695 85.037,486.7135 81.442,484.815 " fill="#5C913B" style="stroke:;stroke-width:0.0;stroke-dasharray:;"/><text fill="#000000" font-family="sans-serif" font-size="12" lengthAdjust="spacing" textLength="42" x="88.5" y="497.5703">preseed</text><line style="stroke:#181818;stroke-width:1.5;" x1="47.5" x2="47.5" y1="129" y2="490.75"/><line style="stroke:#181818;stroke-width:1.5;" x1="238" x2="238" y1="69.5" y2="89.5"/><rect fill="#F1F1F1" height="39.5" style="stroke:#181818;stroke-width:1.5;" width="71" x="202.5" y="89.5"/><path d="M228.7755,108.926 C227.729,108.002 225.4325,107.294 223.6865,107.006 C225.4325,106.7175 227.729,106.0095 228.7755,105.0865 C229.7825,104.1985 230.257,103.6125 229.846,102.7255 C229.563,102.116 228.419,102.059 227.763,101.48 C227.107,100.901 227.0415,99.8915 226.35,99.6425 C225.345,99.2795 224.682,99.6995 223.6765,100.587 C222.6295,101.5105 221.8275,103.5365 221.5,105.077 C221.1735,103.536 220.371,101.51 219.3245,100.5865 C218.317,99.6985 217.654,99.2795 216.6485,99.6425 C215.957,99.8925 215.8925,100.9015 215.237,101.48 C214.5815,102.0585 213.436,102.117 213.154,102.727 C212.7425,103.614 213.2185,104.1985 214.224,105.086 C215.271,106.0095 217.568,106.7175 219.3145,107.006 C217.568,107.2945 215.271,108.0025 214.224,108.926 C213.2175,109.8135 212.7425,110.3985 213.1545,111.2865 C213.437,111.896 214.5815,111.9535 215.2375,112.5315 C215.893,113.1105 215.9595,114.1205 216.651,114.3695 C217.6555,114.733 218.319,114.312 219.325,113.425 C220.1505,112.6965 220.8235,111.281 221.232,109.9585 C221.101,112.226 221.496,115.254 223.158,117.0895 C223.83,117.831 224.3615,117.365 224.569,117.183 C224.777,117.0005 225.3715,116.476 224.662,115.772 C222.707,113.8305 222.029,111.8135 221.848,110.202 C222.2615,111.451 222.9015,112.7405 223.6765,113.425 C224.6825,114.3125 225.346,114.7325 226.352,114.3695 C227.043,114.1195 227.108,113.1095 227.763,112.5315 C228.419,111.9525 229.564,111.895 229.846,111.2845 C230.257,110.3975 229.781,109.8125 228.7755,108.926 " fill="#77B255" style="stroke:;stroke-width:0.0;stroke-dasharray:;"/><text fill="#000000" font-family="sans-serif" font-size="12" lengthAdjust="spacing" textLength="30" x="233.5" y="116.0703">spiral</text><line style="stroke:#181818;stroke-width:1.5;" x1="326.5" x2="326.5" y1="69.5" y2="89.5"/><rect fill="#F1F1F1" height="39.5" style="stroke:#181818;stroke-width:1.5;" width="66" x="293.5" y="89.5"/><path d="M314.489,109.712 C314.462,109.31 314.4205,108.921 314.3655,108.5495 C314.299,108.1045 314.216,107.6855 314.123,107.293 C314.0375,106.9315 313.945,106.5945 313.849,106.2845 C313.705,105.819 313.557,105.4155 313.423,105.0845 C313.1595,104.435 312.9515,104.063 312.9515,104.063 L311.145,104.296 C311.3535,104.731 311.3535,104.731 311.579,105.5835 C311.6705,105.9295 311.7645,106.3455 311.849,106.831 C311.892,107.076 311.932,107.337 311.968,107.6175 C312.018,108.008 312.0595,108.4335 312.089,108.892 C312.106,109.151 312.118,109.421 312.126,109.7015 C312.129,109.8035 312.1335,109.902 312.135,110.007 C312.14,110.335 312.117,110.6685 312.076,111.0015 C312.039,111.3015 311.985,111.6 311.9205,111.896 C311.828,112.32 311.714,112.7365 311.5855,113.1335 C311.4815,113.455 311.37,113.764 311.258,114.0535 C311.086,114.499 310.913,114.8995 310.7635,115.233 C310.5125,115.7925 310.328,116.1645 310.328,116.242 C310.328,116.487 310.503,116.946 311.7265,117.252 C313.64,117.73 313.8245,116.9415 313.8245,116.9415 C313.8245,116.9415 313.946,116.5725 314.0875,115.8455 C314.1575,115.4865 314.232,115.043 314.2995,114.5065 C314.34,114.1855 314.3775,113.8325 314.4105,113.4485 C314.4445,113.0485 314.473,112.615 314.493,112.146 C314.508,111.791 314.5165,111.411 314.5205,111.0165 C314.5215,110.8935 314.5245,110.7745 314.5245,110.648 C314.5245,110.328 314.5095,110.0175 314.489,109.712 " fill="#C1694F" style="stroke:;stroke-width:0.0;stroke-dasharray:;"/><path d="M312.653,114.534 C311.9515,114.412 311.504,114.2075 311.2585,114.0545 C311.0865,114.5 310.9135,114.9005 310.764,115.234 C311.222,115.4835 311.8035,115.6815 312.4345,115.791 C312.799,115.8545 313.1605,115.8865 313.5,115.8865 C313.707,115.8865 313.9015,115.87 314.088,115.8465 C314.158,115.4875 314.2325,115.044 314.3,114.5075 C314.078,114.586 313.526,114.686 312.653,114.534 M313.183,112.1975 C312.6365,112.1435 312.216,112.0235 311.9205,111.8965 C311.828,112.3205 311.714,112.737 311.5855,113.134 C312.0175,113.297 312.526,113.4145 313.058,113.467 C313.2725,113.488 313.4855,113.499 313.693,113.499 C313.944,113.499 314.182,113.4795 314.4105,113.4495 C314.4445,113.0495 314.473,112.616 314.493,112.147 C314.179,112.2145 313.7385,112.252 313.183,112.1975 M313.3375,111.131 C313.7485,111.131 314.1525,111.0895 314.5205,111.017 C314.5215,110.894 314.5245,110.775 314.5245,110.6485 C314.5245,110.328 314.51,110.0175 314.489,109.712 C314.2245,109.781 313.8465,109.848 313.313,109.855 C312.771,109.8525 312.3895,109.7775 312.126,109.702 C312.129,109.804 312.1335,109.9025 312.135,110.0075 C312.14,110.3355 312.117,110.669 312.076,111.002 C312.4575,111.0825 312.8785,111.1285 313.3065,111.1305 L313.3375,111.131 M313.213,108.8425 C313.6255,108.783 314.008,108.676 314.365,108.55 C314.2985,108.105 314.2155,107.686 314.1225,107.2935 C313.8745,107.3955 313.523,107.509 313.032,107.5795 C312.577,107.6455 312.2295,107.6415 311.9675,107.618 C312.0175,108.0085 312.059,108.434 312.0885,108.8925 C312.1645,108.8955 312.2335,108.907 312.3115,108.907 C312.6055,108.9075 312.9115,108.8855 313.213,108.8425 M313.8485,106.2845 C313.7045,105.819 313.5565,105.4155 313.4225,105.0845 C313.201,105.1955 312.9205,105.3125 312.554,105.414 C312.1565,105.5245 311.8355,105.5685 311.5785,105.5835 C311.67,105.9295 311.764,106.3455 311.8485,106.831 C312.189,106.797 312.54,106.7415 312.8955,106.643 C313.235,106.549 313.5505,106.423 313.8485,106.2845 " fill="#D99E82" style="stroke:;stroke-width:0.0;stroke-dasharray:;"/><path d="M319.805,101.6525 C319.783,101.622 317.565,98.6555 314.688,99.9575 C313.3975,100.541 312.5645,101.4945 312.2625,102.725 C311.7,101.941 310.845,101.4425 309.716,101.241 C306.6165,100.688 304.7535,104.125 304.735,104.16 C304.708,104.211 304.7195,104.2745 304.763,104.3125 C304.8065,104.3505 304.8715,104.353 304.9185,104.32 C304.9325,104.31 306.3415,103.3235 308.69,103.7415 C311.0905,104.1685 312.7735,104.5885 312.7905,104.5925 C312.8005,104.595 312.811,104.596 312.821,104.596 C312.8555,104.596 312.889,104.582 312.913,104.556 C312.929,104.5385 314.523,102.826 315.9895,102.1625 C318.159,101.182 319.6385,101.833 319.6525,101.8395 C319.7045,101.8625 319.766,101.8485 319.8015,101.8045 C319.8375,101.761 319.839,101.698 319.805,101.6525 " fill="#3E721D" style="stroke:;stroke-width:0.0;stroke-dasharray:;"/><path d="M317.442,103.315 C315.2395,102.151 313.5175,102.7185 312.4445,103.425 C311.157,103.1815 308.7775,103.1955 306.7625,105.7785 C304.271,108.972 306.4535,112.9495 306.476,112.9895 C306.5095,113.049 306.5725,113.085 306.6395,113.085 C306.647,113.085 306.655,113.0845 306.6625,113.0835 C306.738,113.074 306.8005,113.02 306.8205,112.9465 C306.828,112.9195 307.584,110.1865 309.4955,107.8875 C310.5325,106.6395 311.7705,105.4845 312.6495,104.7175 C313.5305,104.8665 314.813,105.191 316.0725,105.8945 C318.5515,107.281 319.6895,109.6275 319.701,109.651 C319.735,109.723 319.8065,109.764 319.8905,109.757 C319.9695,109.748 320.035,109.6905 320.053,109.6135 C320.063,109.5695 321.037,105.2135 317.442,103.315 " fill="#5C913B" style="stroke:;stroke-width:0.0;stroke-dasharray:;"/><text fill="#000000" font-family="sans-serif" font-size="12" lengthAdjust="spacing" textLength="25" x="324.5" y="116.0703">auto</text><line style="stroke:#181818;stroke-width:1.5;" x1="326.5" x2="336.5" y1="163.75" y2="163.75"/><rect fill="#F1F1F1" height="39.5" style="stroke:#181818;stroke-width:1.5;" width="62" x="336.5" y="144"/><path d="M362.7755,163.426 C361.729,162.502 359.4325,161.794 357.6865,161.506 C359.4325,161.2175 361.729,160.5095 362.7755,159.5865 C363.7825,158.6985 364.257,158.1125 363.846,157.2255 C363.563,156.616 362.419,156.559 361.763,155.98 C361.107,155.401 361.0415,154.3915 360.35,154.1425 C359.345,153.7795 358.682,154.1995 357.6765,155.087 C356.6295,156.0105 355.8275,158.0365 355.5,159.577 C355.1735,158.036 354.371,156.01 353.3245,155.0865 C352.317,154.1985 351.654,153.7795 350.6485,154.1425 C349.957,154.3925 349.8925,155.4015 349.237,155.98 C348.5815,156.5585 347.436,156.617 347.154,157.227 C346.7425,158.114 347.2185,158.6985 348.224,159.586 C349.271,160.5095 351.568,161.2175 353.3145,161.506 C351.568,161.7945 349.271,162.5025 348.224,163.426 C347.2175,164.3135 346.7425,164.8985 347.1545,165.7865 C347.437,166.396 348.5815,166.4535 349.2375,167.0315 C349.893,167.6105 349.9595,168.6205 350.651,168.8695 C351.6555,169.233 352.319,168.812 353.325,167.925 C354.1505,167.1965 354.8235,165.781 355.232,164.4585 C355.101,166.726 355.496,169.754 357.158,171.5895 C357.83,172.331 358.3615,171.865 358.569,171.683 C358.777,171.5005 359.3715,170.976 358.662,170.272 C356.707,168.3305 356.029,166.3135 355.848,164.702 C356.2615,165.951 356.9015,167.2405 357.6765,167.925 C358.6825,168.8125 359.346,169.2325 360.352,168.8695 C361.043,168.6195 361.108,167.6095 361.763,167.0315 C362.419,166.4525 363.564,166.395 363.846,165.7845 C364.257,164.8975 363.781,164.3125 362.7755,163.426 " fill="#77B255" style="stroke:;stroke-width:0.0;stroke-dasharray:;"/><text fill="#000000" font-family="sans-serif" font-size="12" lengthAdjust="spacing" textLength="21" x="367.5" y="170.5703">hdd</text><line style="stroke:#181818;stroke-width:1.5;" x1="326.5" x2="336.5" y1="218.25" y2="218.25"/><rect fill="#F1F1F1" height="39.5" style="stroke:#181818;stroke-width:1.5;" width="70" x="336.5" y="198.5"/><path d="M362.7755,217.926 C361.729,217.002 359.4325,216.294 357.6865,216.006 C359.4325,215.7175 361.729,215.0095 362.7755,214.0865 C363.7825,213.1985 364.257,212.6125 363.846,211.7255 C363.563,211.116 362.419,211.059 361.763,210.48 C361.107,209.901 361.0415,208.8915 360.35,208.6425 C359.345,208.2795 358.682,208.6995 357.6765,209.587 C356.6295,210.5105 355.8275,212.5365 355.5,214.077 C355.1735,212.536 354.371,210.51 353.3245,209.5865 C352.317,208.6985 351.654,208.2795 350.6485,208.6425 C349.957,208.8925 349.8925,209.9015 349.237,210.48 C348.5815,211.0585 347.436,211.117 347.154,211.727 C346.7425,212.614 347.2185,213.1985 348.224,214.086 C349.271,215.0095 351.568,215.7175 353.3145,216.006 C351.568,216.2945 349.271,217.0025 348.224,217.926 C347.2175,218.8135 346.7425,219.3985 347.1545,220.2865 C347.437,220.896 348.5815,220.9535 349.2375,221.5315 C349.893,222.1105 349.9595,223.1205 350.651,223.3695 C351.6555,223.733 352.319,223.312 353.325,222.425 C354.1505,221.6965 354.8235,220.281 355.232,218.9585 C355.101,221.226 355.496,224.254 357.158,226.0895 C357.83,226.831 358.3615,226.365 358.569,226.183 C358.777,226.0005 359.3715,225.476 358.662,224.772 C356.707,222.8305 356.029,220.8135 355.848,219.202 C356.2615,220.451 356.9015,221.7405 357.6765,222.425 C358.6825,223.3125 359.346,223.7325 360.352,223.3695 C361.043,223.1195 361.108,222.1095 361.763,221.5315 C362.419,220.9525 363.564,220.895 363.846,220.2845 C364.257,219.3975 363.781,218.8125 362.7755,217.926 " fill="#77B255" style="stroke:;stroke-width:0.0;stroke-dasharray:;"/><text fill="#000000" font-family="sans-serif" font-size="12" lengthAdjust="spacing" textLength="29" x="367.5" y="225.0703">clean</text><line style="stroke:#181818;stroke-width:1.5;" x1="326.5" x2="336.5" y1="272.75" y2="272.75"/><rect fill="#F1F1F1" height="39.5" style="stroke:#181818;stroke-width:1.5;" width="58" x="336.5" y="253"/><path d="M362.7755,272.426 C361.729,271.502 359.4325,270.794 357.6865,270.506 C359.4325,270.2175 361.729,269.5095 362.7755,268.5865 C363.7825,267.6985 364.257,267.1125 363.846,266.2255 C363.563,265.616 362.419,265.559 361.763,264.98 C361.107,264.401 361.0415,263.3915 360.35,263.1425 C359.345,262.7795 358.682,263.1995 357.6765,264.087 C356.6295,265.0105 355.8275,267.0365 355.5,268.577 C355.1735,267.036 354.371,265.01 353.3245,264.0865 C352.317,263.1985 351.654,262.7795 350.6485,263.1425 C349.957,263.3925 349.8925,264.4015 349.237,264.98 C348.5815,265.5585 347.436,265.617 347.154,266.227 C346.7425,267.114 347.2185,267.6985 348.224,268.586 C349.271,269.5095 351.568,270.2175 353.3145,270.506 C351.568,270.7945 349.271,271.5025 348.224,272.426 C347.2175,273.3135 346.7425,273.8985 347.1545,274.7865 C347.437,275.396 348.5815,275.4535 349.2375,276.0315 C349.893,276.6105 349.9595,277.6205 350.651,277.8695 C351.6555,278.233 352.319,277.812 353.325,276.925 C354.1505,276.1965 354.8235,274.781 355.232,273.4585 C355.101,275.726 355.496,278.754 357.158,280.5895 C357.83,281.331 358.3615,280.865 358.569,280.683 C358.777,280.5005 359.3715,279.976 358.662,279.272 C356.707,277.3305 356.029,275.3135 355.848,273.702 C356.2615,274.951 356.9015,276.2405 357.6765,276.925 C358.6825,277.8125 359.346,278.2325 360.352,277.8695 C361.043,277.6195 361.108,276.6095 361.763,276.0315 C362.419,275.4525 363.564,275.395 363.846,274.7845 C364.257,273.8975 363.781,273.3125 362.7755,272.426 " fill="#77B255" style="stroke:;stroke-width:0.0;stroke-dasharray:;"/><text fill="#000000" font-family="sans-serif" font-size="12" lengthAdjust="spacing" textLength="17" x="367.5" y="279.5703">iso</text><line style="stroke:#181818;stroke-width:1.5;" x1="326.5" x2="336.5" y1="327.25" y2="327.25"/><rect fill="#F1F1F1" height="39.5" style="stroke:#181818;stroke-width:1.5;" width="67" x="336.5" y="307.5"/><path d="M362.7755,326.926 C361.729,326.002 359.4325,325.294 357.6865,325.006 C359.4325,324.7175 361.729,324.0095 362.7755,323.0865 C363.7825,322.1985 364.257,321.6125 363.846,320.7255 C363.563,320.116 362.419,320.059 361.763,319.48 C361.107,318.901 361.0415,317.8915 360.35,317.6425 C359.345,317.2795 358.682,317.6995 357.6765,318.587 C356.6295,319.5105 355.8275,321.5365 355.5,323.077 C355.1735,321.536 354.371,319.51 353.3245,318.5865 C352.317,317.6985 351.654,317.2795 350.6485,317.6425 C349.957,317.8925 349.8925,318.9015 349.237,319.48 C348.5815,320.0585 347.436,320.117 347.154,320.727 C346.7425,321.614 347.2185,322.1985 348.224,323.086 C349.271,324.0095 351.568,324.7175 353.3145,325.006 C351.568,325.2945 349.271,326.0025 348.224,326.926 C347.2175,327.8135 346.7425,328.3985 347.1545,329.2865 C347.437,329.896 348.5815,329.9535 349.2375,330.5315 C349.893,331.1105 349.9595,332.1205 350.651,332.3695 C351.6555,332.733 352.319,332.312 353.325,331.425 C354.1505,330.6965 354.8235,329.281 355.232,327.9585 C355.101,330.226 355.496,333.254 357.158,335.0895 C357.83,335.831 358.3615,335.365 358.569,335.183 C358.777,335.0005 359.3715,334.476 358.662,333.772 C356.707,331.8305 356.029,329.8135 355.848,328.202 C356.2615,329.451 356.9015,330.7405 357.6765,331.425 C358.6825,332.3125 359.346,332.7325 360.352,332.3695 C361.043,332.1195 361.108,331.1095 361.763,330.5315 C362.419,329.9525 363.564,329.895 363.846,329.2845 C364.257,328.3975 363.781,327.8125 362.7755,326.926 " fill="#77B255" style="stroke:;stroke-width:0.0;stroke-dasharray:;"/><text fill="#000000" font-family="sans-serif" font-size="12" lengthAdjust="spacing" textLength="26" x="367.5" y="334.0703">build</text><line style="stroke:#181818;stroke-width:1.5;" x1="326.5" x2="326.5" y1="129" y2="327.25"/><line style="stroke:#181818;stroke-width:1.5;" x1="514" x2="514" y1="69.5" y2="89.5"/><rect fill="#F1F1F1" height="39.5" style="stroke:#181818;stroke-width:1.5;" width="175" x="426.5" y="89.5"/><path d="M452.7755,108.926 C451.729,108.002 449.4325,107.294 447.6865,107.006 C449.4325,106.7175 451.729,106.0095 452.7755,105.0865 C453.7825,104.1985 454.257,103.6125 453.846,102.7255 C453.563,102.116 452.419,102.059 451.763,101.48 C451.107,100.901 451.0415,99.8915 450.35,99.6425 C449.345,99.2795 448.682,99.6995 447.6765,100.587 C446.6295,101.5105 445.8275,103.5365 445.5,105.077 C445.1735,103.536 444.371,101.51 443.3245,100.5865 C442.317,99.6985 441.654,99.2795 440.6485,99.6425 C439.957,99.8925 439.8925,100.9015 439.237,101.48 C438.5815,102.0585 437.436,102.117 437.154,102.727 C436.7425,103.614 437.2185,104.1985 438.224,105.086 C439.271,106.0095 441.568,106.7175 443.3145,107.006 C441.568,107.2945 439.271,108.0025 438.224,108.926 C437.2175,109.8135 436.7425,110.3985 437.1545,111.2865 C437.437,111.896 438.5815,111.9535 439.2375,112.5315 C439.893,113.1105 439.9595,114.1205 440.651,114.3695 C441.6555,114.733 442.319,114.312 443.325,113.425 C444.1505,112.6965 444.8235,111.281 445.232,109.9585 C445.101,112.226 445.496,115.254 447.158,117.0895 C447.83,117.831 448.3615,117.365 448.569,117.183 C448.777,117.0005 449.3715,116.476 448.662,115.772 C446.707,113.8305 446.029,111.8135 445.848,110.202 C446.2615,111.451 446.9015,112.7405 447.6765,113.425 C448.6825,114.3125 449.346,114.7325 450.352,114.3695 C451.043,114.1195 451.108,113.1095 451.763,112.5315 C452.419,111.9525 453.564,111.895 453.846,111.2845 C454.257,110.3975 453.781,109.8125 452.7755,108.926 " fill="#77B255" style="stroke:;stroke-width:0.0;stroke-dasharray:;"/><text fill="#000000" font-family="sans-serif" font-size="12" lengthAdjust="spacing" textLength="134" x="457.5" y="116.0703">live-build_memtest.patch</text><line style="stroke:#181818;stroke-width:1.5;" x1="686.5" x2="686.5" y1="69.5" y2="89.5"/><rect fill="#F1F1F1" height="39.5" style="stroke:#181818;stroke-width:1.5;" width="130" x="621.5" y="89.5"/><path d="M647.7755,108.926 C646.729,108.002 644.4325,107.294 642.6865,107.006 C644.4325,106.7175 646.729,106.0095 647.7755,105.0865 C648.7825,104.1985 649.257,103.6125 648.846,102.7255 C648.563,102.116 647.419,102.059 646.763,101.48 C646.107,100.901 646.0415,99.8915 645.35,99.6425 C644.345,99.2795 643.682,99.6995 642.6765,100.587 C641.6295,101.5105 640.8275,103.5365 640.5,105.077 C640.1735,103.536 639.371,101.51 638.3245,100.5865 C637.317,99.6985 636.654,99.2795 635.6485,99.6425 C634.957,99.8925 634.8925,100.9015 634.237,101.48 C633.5815,102.0585 632.436,102.117 632.154,102.727 C631.7425,103.614 632.2185,104.1985 633.224,105.086 C634.271,106.0095 636.568,106.7175 638.3145,107.006 C636.568,107.2945 634.271,108.0025 633.224,108.926 C632.2175,109.8135 631.7425,110.3985 632.1545,111.2865 C632.437,111.896 633.5815,111.9535 634.2375,112.5315 C634.893,113.1105 634.9595,114.1205 635.651,114.3695 C636.6555,114.733 637.319,114.312 638.325,113.425 C639.1505,112.6965 639.8235,111.281 640.232,109.9585 C640.101,112.226 640.496,115.254 642.158,117.0895 C642.83,117.831 643.3615,117.365 643.569,117.183 C643.777,117.0005 644.3715,116.476 643.662,115.772 C641.707,113.8305 641.029,111.8135 640.848,110.202 C641.2615,111.451 641.9015,112.7405 642.6765,113.425 C643.6825,114.3125 644.346,114.7325 645.352,114.3695 C646.043,114.1195 646.108,113.1095 646.763,112.5315 C647.419,111.9525 648.564,111.895 648.846,111.2845 C649.257,110.3975 648.781,109.8125 647.7755,108.926 " fill="#77B255" style="stroke:;stroke-width:0.0;stroke-dasharray:;"/><text fill="#000000" font-family="sans-serif" font-size="12" lengthAdjust="spacing" textLength="89" x="652.5" y="116.0703">firmwarelists.sh</text><line style="stroke:#181818;stroke-width:1.5;" x1="47.5" x2="686.5" y1="69.5" y2="69.5"/><rect fill="#F1F1F1" height="39.5" style="stroke:#181818;stroke-width:1.5;" width="145" x="294.5" y="10"/><path d="M315.489,30.212 C315.462,29.81 315.4205,29.421 315.3655,29.0495 C315.299,28.6045 315.216,28.1855 315.123,27.793 C315.0375,27.4315 314.945,27.0945 314.849,26.7845 C314.705,26.319 314.557,25.9155 314.423,25.5845 C314.1595,24.935 313.9515,24.563 313.9515,24.563 L312.145,24.796 C312.3535,25.231 312.3535,25.231 312.579,26.0835 C312.6705,26.4295 312.7645,26.8455 312.849,27.331 C312.892,27.576 312.932,27.837 312.968,28.1175 C313.018,28.508 313.0595,28.9335 313.089,29.392 C313.106,29.651 313.118,29.921 313.126,30.2015 C313.129,30.3035 313.1335,30.402 313.135,30.507 C313.14,30.835 313.117,31.1685 313.076,31.5015 C313.039,31.8015 312.985,32.1 312.9205,32.396 C312.828,32.82 312.714,33.2365 312.5855,33.6335 C312.4815,33.955 312.37,34.264 312.258,34.5535 C312.086,34.999 311.913,35.3995 311.7635,35.733 C311.5125,36.2925 311.328,36.6645 311.328,36.742 C311.328,36.987 311.503,37.446 312.7265,37.752 C314.64,38.23 314.8245,37.4415 314.8245,37.4415 C314.8245,37.4415 314.946,37.0725 315.0875,36.3455 C315.1575,35.9865 315.232,35.543 315.2995,35.0065 C315.34,34.6855 315.3775,34.3325 315.4105,33.9485 C315.4445,33.5485 315.473,33.115 315.493,32.646 C315.508,32.291 315.5165,31.911 315.5205,31.5165 C315.5215,31.3935 315.5245,31.2745 315.5245,31.148 C315.5245,30.828 315.5095,30.5175 315.489,30.212 " fill="#C1694F" style="stroke:;stroke-width:0.0;stroke-dasharray:;"/><path d="M313.653,35.034 C312.9515,34.912 312.504,34.7075 312.2585,34.5545 C312.0865,35 311.9135,35.4005 311.764,35.734 C312.222,35.9835 312.8035,36.1815 313.4345,36.291 C313.799,36.3545 314.1605,36.3865 314.5,36.3865 C314.707,36.3865 314.9015,36.37 315.088,36.3465 C315.158,35.9875 315.2325,35.544 315.3,35.0075 C315.078,35.086 314.526,35.186 313.653,35.034 M314.183,32.6975 C313.6365,32.6435 313.216,32.5235 312.9205,32.3965 C312.828,32.8205 312.714,33.237 312.5855,33.634 C313.0175,33.797 313.526,33.9145 314.058,33.967 C314.2725,33.988 314.4855,33.999 314.693,33.999 C314.944,33.999 315.182,33.9795 315.4105,33.9495 C315.4445,33.5495 315.473,33.116 315.493,32.647 C315.179,32.7145 314.7385,32.752 314.183,32.6975 M314.3375,31.631 C314.7485,31.631 315.1525,31.5895 315.5205,31.517 C315.5215,31.394 315.5245,31.275 315.5245,31.1485 C315.5245,30.828 315.51,30.5175 315.489,30.212 C315.2245,30.281 314.8465,30.348 314.313,30.355 C313.771,30.3525 313.3895,30.2775 313.126,30.202 C313.129,30.304 313.1335,30.4025 313.135,30.5075 C313.14,30.8355 313.117,31.169 313.076,31.502 C313.4575,31.5825 313.8785,31.6285 314.3065,31.6305 L314.3375,31.631 M314.213,29.3425 C314.6255,29.283 315.008,29.176 315.365,29.05 C315.2985,28.605 315.2155,28.186 315.1225,27.7935 C314.8745,27.8955 314.523,28.009 314.032,28.0795 C313.577,28.1455 313.2295,28.1415 312.9675,28.118 C313.0175,28.5085 313.059,28.934 313.0885,29.3925 C313.1645,29.3955 313.2335,29.407 313.3115,29.407 C313.6055,29.4075 313.9115,29.3855 314.213,29.3425 M314.8485,26.7845 C314.7045,26.319 314.5565,25.9155 314.4225,25.5845 C314.201,25.6955 313.9205,25.8125 313.554,25.914 C313.1565,26.0245 312.8355,26.0685 312.5785,26.0835 C312.67,26.4295 312.764,26.8455 312.8485,27.331 C313.189,27.297 313.54,27.2415 313.8955,27.143 C314.235,27.049 314.5505,26.923 314.8485,26.7845 " fill="#D99E82" style="stroke:;stroke-width:0.0;stroke-dasharray:;"/><path d="M320.805,22.1525 C320.783,22.122 318.565,19.1555 315.688,20.4575 C314.3975,21.041 313.5645,21.9945 313.2625,23.225 C312.7,22.441 311.845,21.9425 310.716,21.741 C307.6165,21.188 305.7535,24.625 305.735,24.66 C305.708,24.711 305.7195,24.7745 305.763,24.8125 C305.8065,24.8505 305.8715,24.853 305.9185,24.82 C305.9325,24.81 307.3415,23.8235 309.69,24.2415 C312.0905,24.6685 313.7735,25.0885 313.7905,25.0925 C313.8005,25.095 313.811,25.096 313.821,25.096 C313.8555,25.096 313.889,25.082 313.913,25.056 C313.929,25.0385 315.523,23.326 316.9895,22.6625 C319.159,21.682 320.6385,22.333 320.6525,22.3395 C320.7045,22.3625 320.766,22.3485 320.8015,22.3045 C320.8375,22.261 320.839,22.198 320.805,22.1525 " fill="#3E721D" style="stroke:;stroke-width:0.0;stroke-dasharray:;"/><path d="M318.442,23.815 C316.2395,22.651 314.5175,23.2185 313.4445,23.925 C312.157,23.6815 309.7775,23.6955 307.7625,26.2785 C305.271,29.472 307.4535,33.4495 307.476,33.4895 C307.5095,33.549 307.5725,33.585 307.6395,33.585 C307.647,33.585 307.655,33.5845 307.6625,33.5835 C307.738,33.574 307.8005,33.52 307.8205,33.4465 C307.828,33.4195 308.584,30.6865 310.4955,28.3875 C311.5325,27.1395 312.7705,25.9845 313.6495,25.2175 C314.5305,25.3665 315.813,25.691 317.0725,26.3945 C319.5515,27.781 320.6895,30.1275 320.701,30.151 C320.735,30.223 320.8065,30.264 320.8905,30.257 C320.9695,30.248 321.035,30.1905 321.053,30.1135 C321.063,30.0695 322.037,25.7135 318.442,23.815 " fill="#5C913B" style="stroke:;stroke-width:0.0;stroke-dasharray:;"/><text fill="#000000" font-family="sans-serif" font-size="12" lengthAdjust="spacing" textLength="104" x="325.5" y="36.5703">SpiralLinux-Plasma</text><line style="stroke:#181818;stroke-width:1.5;" x1="367" x2="367" y1="49.5" y2="69.5"/><!--SRC=[VPBBJiCm44Nt_efPqag9I5hnY10gK42K52eA5RjewamQ2yUE_2Zqxp45X0GfIy-vS-VX6Lc7nhqkBMDzECbQb4tX355s2lDM69IvKFujcacq3RB-RmtNgXAh4FyDXEBIbsHZNXkjNOTY6S9IOqd6Tj0M-Gkkw1yKIM5T5w-rVkcAe-6rM7TR6h94vUTybVQca8HLmQLUamdSRbVnTtpqJd_PTMJLPRaRyl1Kkx6m_nWllP2xcvLXo6WhAHfg75aNj-XulJEX4gPvHKFRXSQsPcn4gjpUHFXtvPwcEGIb5Lf14gVxwI0-tBio0gQuWII5P92bWsoOmkNu4JvmZ-tbrxCSRAZ52ShWQyJIks3GOnDS8pnuvKH36Totf2RZs-y0NAgrC5erf1oRBAO_WeDXT2uSpCc4Lc0nPMEgq4iNChWkXLfbS7OtlocU1_4mIeuFZbYEQkN3eMH0YbteKC1iCdYQlmC0]--></g></svg>